<?xml version="1.0" encoding="UTF-8"?>
<svg id="Layer_2" data-name="Layer 2" xmlns="http://www.w3.org/2000/svg" viewBox="0 0 75.57 77.02">
  <defs>
    <style>
      .cls-1 {
        fill: #fff;
      }
    </style>
  </defs>
  <g id="Layer_1-2" data-name="Layer 1">
    <path class="cls-1" d="M43.81,.33c7.73-1.85,17.86,4.26,20.73,12.69,2.35,6.9,6.12,13.59,3.92,21.87,6.8,.5,7.24,4.83,7.09,9.97-.25,8.47,0,16.96-.07,25.43-.04,4.9-1.64,6.64-6.56,6.66-20.89,.09-41.78,.09-62.67,.01-4.51-.02-6.16-1.85-6.19-6.5C0,60.93,.12,51.39,0,41.85c-.04-2.96,.92-5.18,3.72-5.98,2.57-.74,3.12-2.17,3.06-4.59-.06-3-.87-7.14,.71-8.77,3.33-3.42,7.74-6.24,12.22-7.95,4.26-1.63,9.18-1.58,13.81-2.2,2.85-.38,5.74-.45,8.55-.99,5.86-1.11,6.9-4.13,3.22-8.84-.53-.67-.97-1.41-1.5-2.2Zm-6.04,73.99c10.15,0,20.3-.09,30.45,.05,3.53,.05,4.88-1.29,4.83-4.81-.13-8.79-.17-17.58,.03-26.36,.09-4.13-1.48-5.63-5.6-5.61-20,.12-40,.12-60-.03-3.87-.03-5.06,1.62-5.03,5.13,.09,8.79,.17,17.58,0,26.36-.08,3.93,1.37,5.39,5.31,5.32,10-.18,20-.06,30-.06Zm1.98-47.46l.03,1.99c-1.36,.15-2.71,.42-4.07,.43-7.27,.05-14.55,.03-21.82,.03-2.22,0-4.65-.6-4.65,3.11,0,3.59,2.45,2.84,4.4,2.84,16.06,.04,32.13,.03,48.19,0,1.4,0,2.81-.26,4.21-.4-4.2-5.03-10.36-.79-14.83-4.52,3.63-.69,7.24-.7,10.86-.69,2.18,.01,4.29,.27,4.2-3.1-.08-3.22-2.22-2.67-4.11-2.68-16.37-.03-32.73-.04-49.1-.01-1.2,0-2.41,.37-3.61,.56,0,.5,.01,.99,.02,1.49,4.77,2,9.97,.61,14.93,.87,5.1,.26,10.23,.06,15.35,.06ZM49.66,3.13c.75,7.53-1.09,9.91-8.32,10.83-5.53,.7-11.16,.85-16.62,1.88-3.55,.67-6.89,2.49-10.32,3.8,.17,.57,.34,1.15,.51,1.72,15.5,0,31,.05,46.49-.15,.75,0,2.19-2.22,2.1-3.3-.56-6.56-6.64-12.98-13.83-14.78Z"/>
    <path class="cls-1" d="M37.58,65.08c-6.04,0-12.08-.11-18.12,.05-2.98,.08-4.27-.83-4.47-4-.91-14.09-.99-14.09,13-14.09,9.21,0,18.43,.13,27.63-.07,3.61-.08,5.05,.9,5.06,4.79,.06,13.35,.19,13.35-13.14,13.35-3.32,0-6.64,0-9.97,0v-.03Zm-19.28-2.49c10.55,0,21.1,.08,31.64-.02,9.12-.09,7.98,1.71,8.23-8.59,.08-3.29-1-4.57-4.39-4.51-8.61,.16-17.22,.05-25.83,.03q-11.36-.02-10.27,11.5c.03,.28,.21,.55,.61,1.6Z"/>
  </g>
</svg>