<?xml version="1.0" encoding="UTF-8"?>
<svg id="Layer_2" data-name="Layer 2" xmlns="http://www.w3.org/2000/svg" viewBox="0 0 184.06 184.02">
  <defs>
    <style>
      .cls-1 {
        fill: #bc202e;
      }
    </style>
  </defs>
  <g id="Layer_1-2" data-name="Layer 1">
    <g>
      <path class="cls-1" d="M90.87,183.05c-2.94-2.1-16.61-1.84-18.9,.97-1.85-2.33-4.06-1.76-6.76-1.58-5.96,.4-12.02-.22-18.02-.71-5.58-.45-11.21-.85-16.68-1.98-14.81-3.06-26.59-15.14-28.67-30.15-1.3-9.38-1.59-18.94-1.68-28.43C-.05,98.45-.08,75.71,.23,52.98c.11-8.01,.91-16.1,2.36-23.98,1.51-8.19,6.5-14.63,12.98-19.83,.07-.06,.18-.09,.21-.17,1.84-3.95,5.86-4.18,9.28-5.25,3.6-1.13,7.3-2.25,11.03-2.6C43.11,.48,50.18,.08,57.23,.06c25.28-.09,50.56-.09,75.84,.11,10.06,.08,19.98,1.12,29.28,5.79,3.89,1.95,6.32,5.15,9.08,8.03,7.14,7.45,9.78,16.93,9.91,26.9,.39,29.81,.38,59.63,.62,89.44,.01,1.36,.74,2.81,1.44,4.04,.78,1.38,1.13,2.32-.48,3.4-.69,.46-1.15,1.65-1.24,2.56-.99,9.56-2.72,18.82-9.18,26.5-6.93,8.24-15.73,13.35-26.41,13.89-16.27,.82-32.58,.79-48.87,1.22-1.96,.05-3.91,.67-6.36,1.11Zm13.84-74.36s0-.03,0-.04c-7.16,0-14.32,.09-21.47-.08-1.24-.03-3.08-.86-3.52-1.83-.44-.98,.23-2.76,.91-3.88,1.43-2.34,3.89-2.66,6.44-2.7,9.41-.13,18.83-.2,28.24-.56,5.16-.2,8.97-3.97,9.61-9.09,.28-2.24,.25-4.52,.24-6.78-.01-4.85-2.3-6.87-7.19-6.55-1.71,.11-2.58,.91-2.88,2.63-1.04,6.06-3.16,8.31-9.23,8.62-8.58,.44-17.18,.43-25.77,.58-1.5,.03-3.12,.23-4.47-.24-4.01-1.4-6.58-6-6.03-10.76,.3-2.59,1.17-5.11,1.66-7.69,.6-3.15-.48-4.45-3.62-4.53-1.27-.03-2.54-.02-3.81,.03-3.64,.16-4.92,1.4-4.93,5.02-.03,6.8,.04,13.59,.06,20.39,0,2.68,1.13,4.63,3.47,6.02,3.75,2.23,3.85,4.72,.6,7.74-11.53,10.73-25.19,17.47-40.25,21.61-3.35,.92-4,1.91-3.15,5.28,.24,.96,.52,1.93,.89,2.85,1.38,3.43,3.18,4.43,6.8,3.6,10.15-2.31,19.52-6.54,28.43-11.81,2.89-1.71,4.86-1.98,6.97-.15,4.59,3.97,9.17,7.95,13.6,12.1,3.23,3.03,2.47,5.73-1.82,6.74-6.07,1.42-12.24,2.43-18.26,4.04-12.15,3.27-24.59,4.11-37.05,4.84-3.44,.2-4.79,1.08-4.83,3.47-.08,4.62,2.44,9.25,5.14,9.46,.09,0,.18,.01,.27,0,6.1-.76,12.31-1.05,18.28-2.37,10.78-2.39,21.54-5.01,32.07-8.3,5.86-1.83,12.5-1.73,17.44-6.2,.19-.17,.5-.32,.74-.31,3.22,.26,6.59,.03,9.61,.95,6.73,2.03,13.26,4.69,19.91,7,12.45,4.31,25.11,7.27,38.43,7.66,6.9,.2,11.72-1.19,13.49-8.4,.11-.43,.42-.8,.62-1.21,1.27-2.69,.64-3.99-2.26-4.28-3.06-.3-6.15-.33-9.21-.61-9.72-.89-19.47-1.62-29.15-2.86-4.54-.58-9.01-2.02-13.39-3.44-1.42-.46-3.13-1.92-3.47-3.24-.28-1.08,.98-2.97,2.07-3.91,3.84-3.3,7.93-6.33,11.87-9.51,1.04-.84,1.85-1.97,2.89-2.81,3.37-2.71,6.87-5.26,10.17-8.05,2.03-1.72,1.85-3.17-.33-4.89-3.69-2.91-7.44-5.51-12.6-3.74-1.31,.45-2.87,.2-4.32,.21-5.98,.02-11.96,0-17.94,0Zm18.47-49.13v.02c8.88,0,17.76-.04,26.63,.02,3.82,.02,5.04,1.31,5.13,5.09,.05,1.9-.01,3.81,0,5.71,.01,7.19,.37,7.53,7.52,7.32,3.83-.11,4.86-1.06,4.91-4.88,.09-6.61,.09-13.23,.09-19.84,0-4.01-1.11-5.17-5.18-5.21-5.89-.06-11.78-.02-17.67-.03-2.9,0-5.8,.11-8.69-.04-3.04-.16-4.15-2.17-2.77-4.88,.53-1.03,1.3-1.96,2.06-2.85,2.06-2.41,4.21-4.73,6.25-7.16,2-2.38,1.63-4.07-1.19-5.3-2.65-1.16-5.34-2.25-8.06-3.24-3.33-1.21-4.77-.68-6.47,2.44-2.9,5.33-5.86,10.63-8.51,16.08-2.08,4.26-5.1,6.04-9.91,5.97-13.86-.21-27.72,0-41.58-.09-5.97-.04-11.93-.56-17.89-.57-5.24-.01-10.48,.48-15.72,.58-5.71,.11-11.41,.03-17.12,.04-2.2,0-4.11,.56-4.13,3.22-.05,7.88-.04,15.77,.03,23.65,.02,2.36,1.29,3.69,3.77,3.66,1.63-.02,3.26,.01,4.89-.05,3.71-.14,4.76-1.23,4.8-5.03,.04-3.35-.1-6.71,0-10.06,.09-3,1.37-4.23,4.35-4.48,1.17-.1,2.35-.08,3.53-.08,22.24,0,44.48,0,66.72,0,8.06,0,16.13,0,24.19,0Zm17.99-42.09c2.02,0,3.75,.1,5.46-.02,2.58-.18,3.48-1.74,1.98-3.86-1.82-2.58-3.94-4.96-6.11-7.25-.67-.71-1.93-1.19-2.93-1.19-3.97-.04-7.96-.04-11.91,.3-6.74,.59-13.45,1.56-20.18,2.18-5.14,.47-10.31,.53-15.45,.99-8.48,.76-16.93,1.82-25.41,2.51-11.72,.95-23.46,1.68-35.2,2.48-2.53,.17-5.09,.09-7.58,.47-1.05,.16-2.54,1.04-2.82,1.91-1.13,3.49,3.09,9.28,6.77,9.46,2.25,.11,4.52-.09,6.78-.18,5.42-.22,11.03,.35,16.2-.9,6.27-1.52,12.51-1.63,18.81-1.98,7.95-.45,15.91-.78,23.86-1.36,7.8-.56,15.58-1.45,23.39-2.03,8.21-.61,16.44-1.03,24.35-1.52Zm-11.67,57.18c.41,.68,.93,1.85,1.72,2.77,3.07,3.56,6.25,7.03,9.34,10.57,1.97,2.25,3.84,4.58,5.79,6.84,1.39,1.61,3,1.9,4.81,.68,1.95-1.31,3.98-2.52,5.86-3.94,2.52-1.91,2.72-3.58,.56-5.91-4.55-4.9-9.21-9.69-13.87-14.49-.81-.84-1.76-1.57-2.71-2.26-2.91-2.09-10.72,1.12-11.38,4.65-.03,.18-.04,.36-.12,1.09Zm-96.87,26.14c.78-.52,2.06-.98,2.76-1.89,4.62-6.02,9.15-12.11,13.65-18.22,1.34-1.82,1.09-3.74-.8-4.97-2.1-1.36-4.39-2.49-6.69-3.5-2.28-1-4.1-.15-5.16,2.06-3.1,6.49-6.97,12.43-11.86,17.73-.68,.73-1.08,2.72-.6,3.34,2.07,2.68,4.83,4.55,8.7,5.44ZM88.89,26.67c-3.02,1.03-5.8,2.05-8.63,2.94-3.04,.96-3.54,2.16-1.67,4.66,1.73,2.32,3.6,4.54,5.36,6.84,1.98,2.57,4.5,3.17,7.48,2.1,2.04-.73,4.08-1.49,6.11-2.25,1.79-.67,2.5-1.99,1.46-3.62-1.89-2.97-3.85-5.92-6.1-8.62-.87-1.04-2.61-1.37-4.02-2.05Zm-40.59,18.15c3.32-.95,6.49-1.71,9.55-2.79,2.41-.85,2.92-2.35,1.38-4.45-1.86-2.54-4.04-4.86-6.27-7.09-.68-.68-2.05-1.17-2.96-1-3.09,.58-6.21,1.26-9.15,2.34-2.32,.85-2.76,2.61-1.38,4.59,1.6,2.29,3.39,4.48,5.33,6.49,.86,.9,2.28,1.26,3.51,1.9Zm53.04,30.66c-.72-1.64-1.07-2.78-1.69-3.74-.88-1.37-1.95-2.61-2.96-3.89-3.89-4.95-7.05-5.54-12.44-2.34-2.3,1.37-2.79,2.94-1.36,5.2,1.84,2.91,3.81,5.73,5.76,8.57,.35,.51,.79,1.06,1.31,1.35,3.29,1.82,5.4-1.07,7.89-2.19,1.32-.59,2.31-1.93,3.49-2.96Z"/>
      <path class="cls-1" d="M95.57,119.9c5.24,0,10.49-.09,15.73,.07,1.19,.04,2.83,.62,3.38,1.51,.4,.65-.28,2.67-1.08,3.26-5.2,3.84-10.43,7.69-15.98,10.98-1.47,.87-4.44,.39-6.13-.55-4.33-2.4-8.41-5.29-12.42-8.21-1.76-1.28-4.23-3.05-3.06-5.38,.6-1.18,3.55-1.53,5.47-1.62,4.69-.22,9.4-.07,14.1-.07,0,0,0,.01,0,.02Z"/>
    </g>
  </g>
</svg>