<?xml version="1.0" encoding="UTF-8"?>
<svg id="Layer_2" data-name="Layer 2" xmlns="http://www.w3.org/2000/svg" viewBox="0 0 109.61 100.21">
  <defs>
    <style>
      .cls-1 {
        fill: #fff;
      }
    </style>
  </defs>
  <g id="Layer_1-2" data-name="Layer 1">
    <path class="cls-1" d="M49.58,48.86c-.75-2.29-1.66-4.63-2.27-7.05-1.85-7.35-1.68-14.78-.61-22.22,.89-6.15,2.42-12.15,4.57-17.99,.14-.38,.23-.84,.51-1.09,.32-.29,.85-.57,1.23-.51,.38,.06,.97,.53,.99,.87,.3,3.64,2.83,5.83,5.23,8.05,4.19,3.88,8.93,7.03,13.8,9.97,4.26,2.58,8.6,5.02,12.95,7.46,13.09,7.35,21.06,18.39,23.15,33.24,1.98,14.01-2.34,26.15-12.28,36.26-.84,.85-1.76,1.46-3,1.72-10.57,2.27-21.25,3.11-32.03,2.34-11.35-.82-22.22-3.43-32.25-9.02-7.32-4.08-13.52-9.43-18.56-16.16C6.11,68.21,2.69,60.94,.21,53.19c-.23-.72-.43-1.46,.31-2.02,.7-.54,1.31-.12,1.94,.21,3.19,1.65,6.66,2.13,10.17,2.35,8.89,.56,17.58-.87,26.23-2.73,3.56-.77,7.15-1.43,10.73-2.13Zm43.52,46.28c-.03-.49-.02-.67-.05-.85-1.68-8.97-4.75-17.42-9.69-25.13-8.93-13.95-22.03-19.7-38.34-16.82-6.68,1.18-13.32,2.59-20.03,3.6-5.45,.82-10.97,.86-16.44-.04-1.62-.27-3.22-.65-4.93-1.01,.09,.36,.15,.63,.24,.9,2.32,6.39,5.4,12.36,9.56,17.77,4.25,5.53,9.32,10.16,15.28,13.8,10.52,6.43,22.11,9.22,34.28,10.03,6.87,.46,13.73,.17,20.56-.7,3.17-.41,6.32-1.01,9.57-1.55Zm2.63-2.07c.33-.28,.59-.48,.82-.71,.34-.34,.66-.7,.96-1.07,7.25-8.82,10.54-18.91,9.16-30.27-1.74-14.36-9.18-25.04-21.71-32.22-4.93-2.83-9.89-5.6-14.73-8.57-5.23-3.2-10.28-6.68-14.59-11.11-1.04-1.06-1.94-2.26-2.97-3.48-.16,.45-.29,.79-.39,1.14-2.01,6.55-3.35,13.23-3.68,20.09-.34,6.97,.41,13.77,3.24,20.26,.59,1.35,1.3,1.89,2.84,1.93,9.05,.24,16.89,3.54,23.49,9.71,7.81,7.3,12.27,16.59,15.49,26.58,.8,2.48,1.37,5.05,2.08,7.71Z"/>
  </g>
</svg>