<?xml version="1.0" encoding="UTF-8"?>
<svg id="Layer_2" data-name="Layer 2" xmlns="http://www.w3.org/2000/svg" viewBox="0 0 60.72 55.52">
  <g id="Layer_1-2" data-name="Layer 1">
    <path d="M27.51,27.17c-.41-1.2-.86-2.34-1.19-3.52-.98-3.52-1.07-7.11-.72-10.71,.41-4.13,1.35-8.14,2.78-12.04,.08-.21,.13-.47,.28-.6,.18-.16,.48-.34,.68-.29,.23,.05,.56,.33,.57,.53,.14,1.86,1.4,3.01,2.61,4.16,2.38,2.27,5.12,4.08,7.92,5.77,2.34,1.42,4.73,2.77,7.12,4.1,7.28,4.07,11.7,10.19,12.89,18.44,1.06,7.38-1.13,13.84-6.08,19.42-1.11,1.25-2.45,1.71-3.99,1.98-4.57,.81-9.16,1.23-13.8,1.08-6.51-.22-12.8-1.41-18.68-4.31-7.36-3.63-12.59-9.31-15.91-16.77-.7-1.57-1.24-3.2-1.84-4.81-.07-.19-.13-.39-.14-.59-.04-.6,.47-.99,1.01-.71,2.86,1.51,5.97,1.58,9.09,1.52,4.27-.09,8.45-.88,12.6-1.83,1.31-.3,2.66-.46,3.98-.69,.28-.05,.55-.08,.83-.12Zm24.05,25.53c0-.25,0-.31,0-.37-.95-5.12-2.7-9.93-5.57-14.29-2.38-3.61-5.42-6.5-9.5-8.12-4.08-1.62-8.27-1.66-12.49-.73-4.52,1-9.04,1.93-13.68,2.09-2.67,.09-5.31-.06-7.9-.8-.12-.04-.26-.03-.51-.06,.5,1.21,.93,2.33,1.42,3.43,2.41,5.37,5.9,9.88,10.71,13.32,5.75,4.11,12.28,6,19.23,6.67,4.6,.44,9.19,.28,13.77-.36,1.51-.21,3.01-.51,4.52-.77ZM29.18,3.11c-.09,.27-.17,.46-.23,.65-1.12,3.63-1.86,7.33-2.04,11.13-.19,3.95,.23,7.8,1.9,11.45,.28,.61,.61,.82,1.28,.84,5.79,.14,10.6,2.45,14.5,6.7,3.7,4.04,5.91,8.89,7.48,14.06,.36,1.18,.63,2.39,.97,3.72,.36-.39,.66-.69,.93-1.02,4.05-4.89,5.88-10.5,5.12-16.81-.95-7.91-5.04-13.81-11.91-17.8-2.42-1.41-4.9-2.71-7.28-4.19-3.91-2.42-7.82-4.87-10.71-8.72Z"/>
  </g>
</svg>