<?xml version="1.0" encoding="UTF-8"?>
<svg id="Layer_2" data-name="Layer 2" xmlns="http://www.w3.org/2000/svg" viewBox="0 0 75.9 35.23">
  <g id="Layer_1-2" data-name="Layer 1">
    <g>
      <path d="M20.11,6.17c1.91,0,3.7-.03,5.49,.03,.37,.01,.86,.28,1.05,.58,.16,.27,.11,.85-.09,1.12-.2,.27-.7,.43-1.07,.44-2.18,.04-4.37,.02-6.55,.02-4.6,0-9.19,0-13.79,0-.25,0-.51,.02-.75-.04-.53-.12-.84-.47-.86-1.02-.02-.58,.31-.95,.86-1.09,.22-.06,.46-.03,.69-.03,3.97,0,7.95,0,11.92,0,.27,0,.54,0,.85,0,.2-1.02,.39-1.99,.56-2.95C18.8,1.08,20.05,0,22.21,0,32.22,0,42.24,0,52.26,0c2.33,0,3.48,.96,3.92,3.28,.01,.07,.04,.13,.08,.28,.23,0,.48,0,.72,0,2.57,0,5.15,.01,7.72,0,1.39,0,2.49,.54,3.31,1.65,2.38,3.21,4.75,6.42,7.13,9.62,.84,1.13,.84,2.36,.64,3.68-.49,3.13-.89,6.27-1.38,9.4-.32,2.04-1.8,3.25-3.88,3.28-1.13,.02-2.25,.02-3.38,0-.47-.01-.71,.14-.93,.58-1.2,2.42-3.83,3.58-6.22,2.77-1.42-.48-2.37-1.46-2.91-2.83-.16-.39-.35-.5-.75-.5-6.76,.01-13.51,.02-20.27,0-.41,0-.59,.12-.74,.51-1.12,2.79-3.97,4.19-6.58,3.22-1.45-.53-2.42-1.58-2.87-3.05-.18-.6-.47-.7-1.02-.69-2.41,.02-4.82,.01-7.24,0-2.22,0-3.86-1.93-3.53-4.14,.13-.84,.28-1.67,.44-2.61-.29-.01-.55-.04-.81-.04-4.07,0-8.13,0-12.2,0-.21,0-.42,0-.62-.03-.58-.11-.87-.49-.92-1.05-.04-.53,.39-1.02,.94-1.1,.25-.04,.5-.03,.76-.03,5.84,0,11.67,0,17.51,0,.14,0,.28,0,.41,.02,.62,.09,1.02,.53,1,1.11-.01,.59-.41,1.03-1.06,1.05-.91,.04-1.83,0-2.77,0-.18,1.02-.39,1.96-.52,2.91-.14,1.01,.48,1.69,1.47,1.69,2.41,0,4.83-.01,7.24,.01,.51,0,.69-.17,.84-.65,.84-2.77,3.35-4.4,5.98-3.91,1.88,.35,3.4,1.87,3.8,3.9,.1,.51,.28,.66,.8,.66,4.02-.02,8.04-.01,12.06-.01,.99,0,1.38-.31,1.54-1.28,.78-4.64,1.55-9.27,2.33-13.91,.53-3.19,1.05-6.38,1.59-9.57,.24-1.4-.28-2.05-1.68-2.05-10.04,0-20.08,0-30.12,0-.95,0-1.33,.3-1.51,1.23-.17,.87-.33,1.75-.51,2.73Zm46.84,22.83c.89,0,1.76-.03,2.63,0,1.96,.08,2.58-.24,2.84-2.41,.36-2.98,.86-5.94,1.24-8.92,.06-.5-.05-1.14-.33-1.54-2.32-3.22-4.69-6.4-7.05-9.59-.4-.54-.91-.79-1.59-.79-2.18,.02-4.36,0-6.54,0-.73,0-1.46,0-2.23,0-1.29,7.76-2.58,15.46-3.87,23.21h4.61c.94-3.43,2.86-5.13,5.64-5.03,2.43,.09,3.97,1.74,4.65,5.06Zm-33.78,.69c.01-1.39-1.04-2.53-2.36-2.56-1.41-.03-2.65,1.28-2.65,2.79,0,1.42,1.02,2.53,2.35,2.55,1.42,.02,2.65-1.26,2.66-2.78Zm31.11-.39c.06-1.37-.97-2.55-2.27-2.61-1.4-.06-2.67,1.18-2.74,2.7-.07,1.38,1,2.59,2.33,2.66,1.38,.07,2.63-1.2,2.69-2.74Z"/>
      <path d="M17,18.16c2.94,0,5.87,0,8.81,0,.84,0,1.33,.38,1.35,1.03,.02,.73-.44,1.15-1.31,1.15-5.94,0-11.88,0-17.82,0-.77,0-1.22-.44-1.21-1.11,0-.67,.46-1.08,1.23-1.08,2.98,0,5.97,0,8.95,0h0Z"/>
      <path d="M21.53,12.2c-2.18,0-4.36,0-6.54,0-.87,0-1.36-.42-1.34-1.12,.02-.66,.5-1.06,1.33-1.06,4.38,0,8.76,0,13.15,0,.82,0,1.31,.42,1.31,1.08,0,.68-.48,1.09-1.3,1.09-2.2,0-4.41,0-6.61,0h0Z"/>
      <path d="M15.41,16.36c-1.45,0-2.89,0-4.34,0-.89,0-1.37-.4-1.36-1.1,0-.7,.48-1.1,1.37-1.1,2.92,0,5.84,0,8.75,0,.85,0,1.36,.44,1.34,1.14-.02,.66-.52,1.06-1.34,1.06-1.47,0-2.94,0-4.41,0Z"/>
      <path d="M6.13,19.22c.02,.59-.47,1.11-1.05,1.14-.62,.03-1.15-.48-1.15-1.1,0-.61,.47-1.08,1.08-1.09,.59-.01,1.11,.47,1.12,1.06Z"/>
      <path d="M31.19,10.02c.61,0,1.09,.46,1.12,1.06,.02,.61-.51,1.14-1.13,1.12-.59-.01-1.08-.51-1.08-1.1,0-.59,.49-1.08,1.09-1.08Z"/>
      <path d="M2.64,7.24c.01,.6-.46,1.09-1.07,1.11-.59,.02-1.1-.45-1.12-1.05-.02-.63,.47-1.14,1.1-1.14,.6,0,1.08,.47,1.09,1.08Z"/>
      <path d="M62.72,14.26c-1.84,0-3.67,0-5.51,0-.76,0-.86-.1-.74-.84,.25-1.58,.54-3.16,.78-4.75,.08-.5,.27-.7,.8-.69,2.25,.02,4.5,0,6.75,.02,.27,0,.63,.18,.77,.4,1.13,1.65,2.22,3.32,3.31,4.99,.39,.6,.23,.86-.51,.87-1.88,0-3.76,0-5.65,0Z"/>
    </g>
  </g>
</svg>