<?xml version="1.0" encoding="UTF-8"?>
<svg id="Layer_2" data-name="Layer 2" xmlns="http://www.w3.org/2000/svg" viewBox="0 0 51.3 84.74">
  <g id="Layer_1-2" data-name="Layer 1">
    <path d="M46.98,74.31c-2.39,.89-6.38-.48-8.51-2.83-2.5-2.75-3.16-6.16-3.56-9.66-.14-1.22-.21-2.45-.31-3.67-.16-.1-.32-.21-.47-.31-.8,.92-1.55,1.88-2.4,2.75-3.94,4.04-8.1,4.07-12.08,.1-.23-.23-.48-.44-.92-.84-1.51,4.22-.84,8.5-1.41,12.62-.56,4.06-.87,8.16-1.42,12.23-1.28-5.2,.38-10.27,.77-15.39,.39-5.16,1.17-10.3,1.55-15.52-.94,2.7-1.88,5.4-2.82,8.1-.19-.03-.38-.06-.57-.09,.03-.43-.02-.88,.09-1.29,.81-3.27,1.67-6.53,2.47-9.8,.13-.55,.02-1.16-.27-1.83-1.69,3.87-2.55,8.07-5.02,11.57,1.01-4.44,3.54-8.47,3.15-13.35-.34,.53-.75,1.03-.99,1.6-1.3,3.06-2.55,6.14-3.86,9.19-.31,.71-.81,1.35-1.41,1.9,.72-3.87,3.03-7.18,3.85-10.97-.19-.07-.38-.14-.58-.21-1.39,3.05-2.55,6.24-4.22,9.13-2.23,3.86-1.71,7.7-.61,11.61,1.4,4.98,.9,9.96,.2,14.95-.02,.17-.24,.32-.73,.43,0-.72-.04-1.44,0-2.16,.15-2.19,.34-4.39,.51-6.58,.08-1.02-.37-1.39-1.41-1.33-1.52,.09-3.05,.05-4.58,.02-.48-.01-.95-.18-1.42-.27,.02-.21,.03-.42,.05-.63H7.3c-.33-1.81-.44-3.28-.88-4.64-1.35-4.23-1.28-8.26,.96-12.24,1.27-2.25,2.17-4.71,3.27-7.06,.46-.99,.62-1.55-.67-2.2-3.22-1.62-3.87-7.52-1.16-9.74-1.83-3.17-2.87-6.58-2.8-10.29,.11-6.59,2.81-11.87,8.08-15.8,.89-.66,1.35-1.09,.93-2.4-.87-2.75,.73-6,3.55-7.55C22.75-.43,27.14-.56,31.47,1.23c4.35,1.79,5.8,5.13,4.49,9.54,9.6,6.22,11.9,17.95,6.53,27.27,1.77,.76,2.24,2.31,1.75,3.91-.65,2.12-.73,4.63-3.09,5.91-.28,.15-.37,.65-.57,.98-1.32,2.21-2.68,4.39-3.94,6.63-.47,.83-1.06,1.83-.97,2.7,.3,3.01,.58,6.08,1.39,8.98,1.14,4.04,4.17,6.14,8.34,6.57,.55,.06,1.07,.35,1.6,.54,0,0-.03,.05-.03,.05ZM11.07,45.81c-.2,.02-.4,.05-.59,.07-.07-.51-.19-1.03-.21-1.54-.03-1.07,.15-2.18-.06-3.21-.14-.7-.8-1.29-1.23-1.93-.35,.63-1.09,1.34-.98,1.87,.37,1.79,.9,3.59,1.67,5.24,.4,.85,1.31,1.2,1.99-.15,.98-1.95,2.71-2.85,4.86-2.72,2.1,.12,3.63,1.27,4.4,3.2,.79,1.99,.41,3.85-1.02,5.5-.29,.33-.49,.83-.54,1.27-.1,.82,.09,1.7-.11,2.49-.47,1.89,.04,3.26,1.48,4.61,3.05,2.85,7.02,2.89,9.93-.11,1.45-1.5,2.94-2.96,4.35-4.5,2.57-2.81,4.99-5.74,5.04-9.84,.05-3.55,.04-7.11-.03-10.66-.01-.59-.34-1.33-.77-1.75-6.91-6.79-18.3-7.29-25.84-1.24-1.49,1.2-2.45,2.45-2.26,4.53,.2,2.35,.06,4.74,.05,7.11,0,.59-.09,1.18-.13,1.77Zm-3.47-14.36c4.24-6.73,10.12-10.57,18.15-10.53,8.02,.04,13.86,3.93,18.1,10.69,2.09-7.02-1.64-15.77-8.32-19.88-7.06-4.35-16.46-3.46-22.35,1.92-5.45,4.97-7.38,12.95-5.58,17.8Zm34.79,4.21c1.09-1.33,1.39-2.6,.33-3.9-1.6-1.95-3.01-4.15-4.94-5.71-9.47-7.64-23.41-4.72-29.35,5.98-.75,1.35-.47,2.43,.53,3.64,4.31-5.37,9.72-8.39,16.64-8.41,6.98-.02,12.44,3.01,16.79,8.4Zm-7.24-25.86c.08-.27,.41-.87,.42-1.48,.05-2.32-.97-4.16-2.92-5.38-3.94-2.48-8.16-2.38-12.36-.93-3.03,1.05-4.81,3.92-4.53,6.63,.12,1.19,.5,1.74,1.86,1.11,2.74-1.28,5.67-2.05,8.7-1.67,2.87,.37,5.69,1.09,8.83,1.71ZM18.15,52c1.76-1.01,2.49-2.62,2.15-4.35-.33-1.69-2.01-3.13-3.83-3.3-1.81-.16-3.23,.77-4.28,3.19,.89-.27,1.56-.28,1.87-.61,1.17-1.28,1.54-1.27,2.49,.27,.13,.21,.35,.43,.58,.51,1.32,.43,1.45,1.41,1.28,2.56-.08,.52-.16,1.04-.26,1.72Zm22.9-5.6c.25,.06,.5,.12,.75,.18,.54-1.94,1.15-3.87,1.54-5.85,.09-.43-.62-1.01-.97-1.53-.44,.45-1.23,.88-1.27,1.36-.15,1.93-.06,3.89-.06,5.83Z"/>
    <path d="M46.98,74.31s.03-.05,.03-.05c1.41-.22,2.81-.45,4.22-.67,.02,.3,.05,.61,.07,.91-1.43,.2-2.85,.6-4.32-.2Z"/>
    <path d="M20.64,52.98c1.75-.09,3-2.98,4.64-.93,1.24-.12,2.14-.4,2.94-.23,.83,.19,1.56,.82,2.33,1.26-1.53,2.82-7.89,2.88-9.91-.11Zm8.14,.54c-.71-.84-1.25-1.29-2.27-.52-.38,.29-1.35,.25-1.76-.05-.98-.71-1.47-.26-2.17,.6,2.14,.97,4.09,1.11,6.2-.04Z"/>
    <path d="M37.52,39.98c-.77-.58-1.29-.97-1.65-1.24-.71,.64-1.33,1.21-1.96,1.78-.5-.56-.99-1.12-1.6-1.81-.4,.27-.97,.65-1.6,1.07,0-1.44,1.18-2.29,3.16-2.44,1.89-.14,3.37,.8,3.65,2.64Z"/>
    <path d="M28.21,35.86c2.62-3.2,7.46-3.49,9.87-.99-1.38-.21-3.22-.88-4.93-.63-1.65,.24-3.17,1.44-4.74,2.21-.07-.2-.13-.39-.2-.59Z"/>
    <path d="M18.13,38.31c.54,.9,.65,1.91-.54,2.1-.56,.09-1.29-.82-1.94-1.28,.05-.19,.11-.39,.16-.58-.59,.41-1.19,.82-1.81,1.25-.32-1.54,1.17-2.42,3.58-2.22l.55,.74Z"/>
    <path d="M14.42,34.34c1.92-1.88,6.52-1.03,8.27,.98,.18,.2,.14,.58,.21,.88-.34,0-.84,.17-1.01,0-2.12-2.1-4.59-2.69-7.47-1.86Z"/>
    <path d="M23.11,56.2h4.89c.07,.09,.14,.17,.21,.26-.76,.32-1.5,.82-2.28,.93-1.08,.14-2.19-.06-2.81-1.19Z"/>
    <path d="M27.29,47.55c-1.43,1.29-2.97,.98-3.55-.65,1.14,.21,2.28,.42,3.55,.65Z"/>
    <path d="M18.13,38.31l-.55-.74c1.95-.07,3,.65,3.09,2.22-.87-.51-1.71-.99-2.54-1.47Z"/>
  </g>
</svg>