<?xml version="1.0" encoding="UTF-8"?>
<svg id="Layer_2" data-name="Layer 2" xmlns="http://www.w3.org/2000/svg" viewBox="0 0 58.31 96.31">
  <defs>
    <style>
      .cls-1 {
        fill: #fff;
      }
    </style>
  </defs>
  <g id="Layer_1-2" data-name="Layer 1">
    <path class="cls-1" d="M53.4,84.46c-2.71,1.02-7.25-.54-9.67-3.21-2.84-3.13-3.59-7-4.05-10.98-.16-1.39-.24-2.78-.35-4.17-.18-.12-.36-.24-.54-.36-.9,1.04-1.76,2.14-2.72,3.13-4.48,4.6-9.21,4.62-13.73,.11-.26-.26-.55-.5-1.05-.96-1.71,4.8-.96,9.66-1.6,14.35-.64,4.62-.99,9.27-1.62,13.9-1.45-5.91,.43-11.67,.87-17.49,.44-5.87,1.33-11.7,1.76-17.64-1.07,3.07-2.14,6.13-3.21,9.2-.22-.03-.43-.07-.65-.1,.03-.49-.02-1,.1-1.47,.93-3.71,1.9-7.42,2.81-11.14,.15-.63,.02-1.32-.3-2.08-1.92,4.4-2.9,9.17-5.7,13.15,1.15-5.05,4.02-9.63,3.58-15.17-.38,.6-.85,1.17-1.13,1.82-1.48,3.47-2.89,6.98-4.39,10.45-.35,.81-.92,1.53-1.6,2.16,.81-4.4,3.44-8.16,4.38-12.47-.22-.08-.44-.16-.66-.24-1.58,3.47-2.9,7.09-4.8,10.37-2.53,4.39-1.95,8.75-.7,13.2,1.59,5.66,1.03,11.31,.22,16.99-.03,.2-.27,.36-.83,.49,0-.82-.05-1.64,0-2.45,.17-2.49,.39-4.98,.58-7.48,.09-1.16-.42-1.58-1.6-1.51-1.73,.1-3.47,.06-5.2,.02-.54-.01-1.08-.2-1.61-.31,.02-.24,.03-.48,.05-.72H8.3c-.38-2.06-.5-3.72-1-5.27-1.54-4.81-1.46-9.39,1.09-13.91,1.44-2.56,2.46-5.36,3.72-8.02,.53-1.12,.7-1.77-.76-2.51-3.65-1.84-4.4-8.55-1.32-11.07-2.08-3.6-3.26-7.47-3.19-11.69,.13-7.49,3.19-13.49,9.18-17.96,1.01-.75,1.53-1.24,1.06-2.73-.99-3.12,.83-6.82,4.03-8.58,4.74-2.61,9.73-2.75,14.66-.72,4.94,2.04,6.59,5.83,5.1,10.85,10.91,7.07,13.52,20.4,7.43,30.99,2.01,.86,2.55,2.62,1.99,4.44-.74,2.41-.83,5.26-3.52,6.72-.32,.18-.42,.74-.65,1.12-1.5,2.51-3.04,4.99-4.47,7.54-.53,.95-1.2,2.08-1.11,3.06,.34,3.43,.65,6.91,1.58,10.21,1.3,4.6,4.73,6.97,9.48,7.47,.62,.07,1.22,.4,1.82,.61,0,0-.04,.06-.04,.06ZM12.58,52.07c-.23,.03-.45,.06-.68,.08-.08-.58-.22-1.17-.23-1.75-.04-1.22,.17-2.47-.07-3.64-.16-.79-.91-1.47-1.4-2.19-.4,.71-1.24,1.52-1.12,2.13,.43,2.03,1.03,4.07,1.9,5.95,.45,.97,1.49,1.36,2.26-.17,1.11-2.22,3.08-3.23,5.52-3.1,2.39,.13,4.13,1.44,5,3.63,.89,2.26,.47,4.38-1.15,6.26-.33,.38-.55,.94-.61,1.44-.11,.93,.1,1.93-.12,2.82-.53,2.14,.05,3.71,1.68,5.24,3.46,3.24,7.98,3.29,11.29-.12,1.65-1.7,3.34-3.37,4.94-5.12,2.92-3.2,5.67-6.53,5.73-11.18,.06-4.04,.05-8.08-.04-12.12-.01-.68-.39-1.51-.87-1.98-7.86-7.72-20.8-8.29-29.36-1.41-1.69,1.36-2.78,2.78-2.57,5.15,.23,2.67,.07,5.38,.06,8.08,0,.67-.1,1.34-.15,2.01Zm-3.94-16.32c4.82-7.65,11.5-12.01,20.63-11.97,9.11,.04,15.76,4.47,20.57,12.15,2.38-7.98-1.87-17.92-9.45-22.59-8.02-4.94-18.71-3.93-25.41,2.18-6.19,5.65-8.39,14.71-6.34,20.23Zm39.54,4.78c1.23-1.51,1.58-2.96,.37-4.43-1.81-2.22-3.42-4.72-5.61-6.49-10.76-8.69-26.61-5.36-33.36,6.8-.85,1.53-.53,2.76,.6,4.14,4.9-6.11,11.05-9.54,18.92-9.56,7.94-.02,14.14,3.42,19.08,9.54Zm-8.22-29.4c.09-.31,.47-.99,.48-1.68,.05-2.64-1.1-4.73-3.32-6.12-4.48-2.81-9.28-2.71-14.05-1.05-3.44,1.19-5.46,4.46-5.15,7.54,.14,1.36,.57,1.98,2.11,1.26,3.12-1.46,6.45-2.33,9.89-1.9,3.26,.42,6.47,1.24,10.03,1.94ZM20.63,59.1c2-1.15,2.83-2.98,2.45-4.94-.37-1.92-2.29-3.56-4.36-3.75-2.05-.18-3.68,.87-4.86,3.63,1.01-.31,1.78-.31,2.12-.69,1.33-1.45,1.75-1.44,2.83,.31,.15,.24,.4,.49,.66,.58,1.5,.49,1.65,1.6,1.45,2.91-.09,.59-.18,1.18-.29,1.96Zm26.03-6.36c.28,.07,.57,.14,.85,.21,.61-2.21,1.31-4.4,1.76-6.64,.1-.49-.71-1.15-1.1-1.73-.5,.51-1.4,1-1.44,1.54-.17,2.2-.07,4.42-.07,6.63Z"/>
    <path class="cls-1" d="M53.4,84.46s.04-.06,.04-.06c1.6-.25,3.2-.51,4.79-.76,.03,.35,.05,.69,.08,1.04-1.62,.23-3.23,.68-4.91-.22Z"/>
    <path class="cls-1" d="M23.46,60.22c1.98-.1,3.41-3.38,5.27-1.06,1.41-.13,2.43-.46,3.34-.26,.94,.21,1.77,.93,2.65,1.44-1.74,3.2-8.97,3.27-11.26-.12Zm9.25,.62c-.8-.95-1.42-1.47-2.58-.59-.43,.33-1.54,.28-2-.05-1.11-.81-1.67-.3-2.47,.68,2.43,1.1,4.65,1.26,7.05-.04Z"/>
    <path class="cls-1" d="M42.65,45.44c-.88-.66-1.47-1.1-1.88-1.41-.81,.73-1.52,1.38-2.23,2.02-.56-.64-1.13-1.28-1.82-2.06-.46,.31-1.11,.74-1.82,1.22,0-1.63,1.34-2.6,3.59-2.77,2.15-.16,3.82,.91,4.15,3Z"/>
    <path class="cls-1" d="M32.06,40.76c2.97-3.64,8.48-3.96,11.22-1.12-1.57-.24-3.66-1.01-5.61-.72-1.88,.27-3.6,1.63-5.39,2.52-.07-.22-.15-.45-.22-.67Z"/>
    <path class="cls-1" d="M20.61,43.54c.62,1.03,.74,2.17-.61,2.39-.64,.1-1.47-.94-2.21-1.46,.06-.22,.12-.44,.18-.66-.68,.46-1.35,.93-2.06,1.42-.36-1.75,1.33-2.75,4.07-2.53l.63,.84Z"/>
    <path class="cls-1" d="M16.39,39.03c2.18-2.14,7.41-1.17,9.4,1.11,.2,.23,.16,.66,.24,1-.39,0-.96,.19-1.15,0-2.41-2.38-5.21-3.06-8.49-2.12Z"/>
    <path class="cls-1" d="M26.26,63.87h5.55c.08,.1,.16,.2,.23,.29-.86,.37-1.7,.94-2.6,1.05-1.23,.16-2.48-.06-3.19-1.35Z"/>
    <path class="cls-1" d="M31.02,54.05c-1.63,1.47-3.38,1.12-4.04-.74,1.3,.24,2.6,.48,4.04,.74Z"/>
    <path class="cls-1" d="M20.61,43.54l-.63-.84c2.22-.08,3.41,.74,3.51,2.52-.99-.58-1.94-1.13-2.88-1.68Z"/>
  </g>
</svg>