<?xml version="1.0" encoding="UTF-8"?>
<svg id="Layer_2" data-name="Layer 2" xmlns="http://www.w3.org/2000/svg" viewBox="0 0 123.18 133.84">
  <defs>
    <style>
      .cls-1 {
        fill: #53616c;
      }

      .cls-2 {
        fill: #c9d6e0;
      }
    </style>
  </defs>
  <g id="Layer_1-2" data-name="Layer 1">
    <g>
      <path class="cls-2" d="M.13,74.16c0-15.13,.06-30.25-.05-45.38-.03-3.61,.72-5.89,4.9-6.29,1.04-.1,2.55-2.4,2.65-3.77,.34-4.62,.22-9.27,.12-13.91C7.67,1.34,9.01-.04,12.64,.03c9.45,.2,18.91,.22,28.36-.03,3.8-.1,4.81,1.46,4.65,4.85-.15,3.26-.03,6.53-.02,9.79,0,3.96-1.19,8.51,5.41,8.67,.93,.02,2.55,3.15,2.56,4.85,.16,31.26,.14,62.51,.11,93.77,0,4.16-1.87,7.05-6.39,7.07-13.75,.06-27.5,.06-41.25-.11C1.08,128.85-.02,125.28,0,121.07c.05-13.57,.09-27.15,.13-40.72,0-2.06,0-4.13,0-6.19Zm2.82,1.03c0,15.12,.04,30.25-.03,45.37-.01,3.3,.35,5.58,4.65,5.52,12.89-.18,25.78-.07,38.67,.03,3.27,.03,4.71-1.3,4.7-4.57-.03-30.74,.02-61.49-.17-92.23,0-1.31-2.13-3.73-3.31-3.75-13.37-.31-26.74-.2-40.11-.32-3.7-.03-4.48,1.76-4.45,5.1,.14,14.95,.06,29.9,.06,44.85ZM42.59,2.88c-8.94,0-17.33-.1-25.72,.07-2.02,.04-5.55,.62-5.75,1.52-.66,3.08-.22,6.41,.01,9.63,.03,.42,1.34,1.07,2.06,1.07,9.73,.07,19.46,.05,29.4,.05V2.88Zm-15.45,15.18v-.05c-4.28,0-8.57-.14-12.84,.09-1.21,.06-2.38,1.16-3.56,1.79,1.1,.71,2.18,2.01,3.3,2.03,8.56,.19,17.13,.19,25.69,.07,1.01-.01,2-1.13,2.99-1.74-1.08-.73-2.13-2.02-3.25-2.09-4.1-.25-8.22-.1-12.33-.1Z"/>
      <path class="cls-1" d="M2.95,75.19c0-14.95,.08-29.9-.06-44.85-.03-3.33,.74-5.13,4.45-5.1,13.37,.12,26.75,.01,40.11,.32,1.18,.03,3.31,2.44,3.31,3.75,.19,30.74,.14,61.49,.17,92.23,0,3.27-1.44,4.59-4.7,4.57-12.89-.1-25.78-.21-38.67-.03-4.3,.06-4.66-2.22-4.65-5.52,.07-15.12,.03-30.25,.03-45.37Z"/>
      <path class="cls-1" d="M42.59,2.88V15.22c-9.94,0-19.67,.02-29.4-.05-.72,0-2.02-.65-2.06-1.07-.24-3.22-.68-6.56-.01-9.63,.19-.9,3.73-1.48,5.75-1.52,8.38-.17,16.77-.07,25.72-.07Z"/>
      <path class="cls-1" d="M27.14,18.06c4.11,0,8.23-.15,12.33,.1,1.12,.07,2.17,1.36,3.25,2.09-1,.61-1.99,1.72-2.99,1.74-8.56,.12-17.13,.12-25.69-.07-1.11-.02-2.2-1.32-3.3-2.03,1.19-.62,2.35-1.72,3.56-1.79,4.27-.22,8.56-.09,12.84-.09v.05Z"/>
    </g>
    <g>
      <path class="cls-2" d="M55.96,5.13c3.81,0,7.04,0,10.27,0,17.18-.01,34.36,.12,51.54-.14,4.54-.07,5.8,1.59,5.3,5.74-2.13,17.71-4.16,35.43-6.26,53.14-1.21,10.22-2.6,20.41-3.73,30.64-.99,8.93-1.6,17.91-2.71,26.83-.17,1.38-2.04,3.62-3.16,3.65-11.96,.23-23.93,.2-35.89-.11-1.07-.03-2.84-2.36-3.01-3.77-1.33-11.5-2.17-23.05-3.52-34.55-2.83-24.19-5.92-48.35-8.8-72.53-.32-2.66-.04-5.4-.04-8.9Zm3.06,8.53c.3,3.09,.5,5.79,.82,8.48,1.22,10.22,2.51,20.42,3.72,30.64,1.79,15.16,3.48,30.34,5.42,45.48,.15,1.19,1.94,3.09,3,3.11,12.33,.22,24.66,.14,37.46,.14,3.5-29.46,6.95-58.45,10.45-87.85H59.03Zm11.97,90.83c0,2.48-.38,4.44,.12,6.15,.42,1.45,1.79,3.56,2.86,3.64,1.46,.1,3.86-1.08,4.43-2.35,2.3-5.13,6.61-5.48,11.18-5.48,4.63,0,8.86,.5,10.81,5.9,.41,1.14,3.14,1.97,4.78,1.93,.91-.02,2.33-2.04,2.54-3.31,.33-2.06-.16-4.25-.3-6.47h-36.42ZM119.8,10.26c-6.17-3.53-59.27-2.59-61.47,0h61.47Zm-30.44,112.79v.45c4.8-.22,9.62-.2,14.36-.81,1.46-.19,2.7-2.1,4.05-3.23-1.66-.69-3.49-2.2-4.94-1.89-2.09,.45-3.76,2.88-5.84,3.29-6.28,1.25-12.68,2.96-18.4-2.31-1.27-1.17-4.11-.76-6.23-.75-.4,0-1.26,2.2-1.11,2.31,1.48,1.11,3.08,2.66,4.76,2.81,4.42,.38,8.9,.13,13.36,.13Zm-8.63-8.5c5.55,0,10.08,.09,14.58-.16,.4-.02,1.35-2.94,.87-3.49-2.9-3.33-12.18-1.8-15.46,3.65Z"/>
      <path class="cls-1" d="M59.03,13.66h60.87c-3.5,29.39-6.95,58.39-10.45,87.85-12.8,0-25.13,.08-37.46-.14-1.06-.02-2.84-1.92-3-3.11-1.94-15.14-3.63-30.32-5.42-45.48-1.21-10.22-2.5-20.43-3.72-30.64-.32-2.68-.52-5.38-.82-8.48Z"/>
      <path class="cls-1" d="M71,104.49h36.42c.15,2.22,.63,4.41,.3,6.47-.2,1.27-1.62,3.29-2.54,3.31-1.64,.04-4.37-.79-4.78-1.93-1.95-5.4-6.19-5.9-10.81-5.9-4.58,0-8.89,.36-11.18,5.48-.57,1.27-2.97,2.46-4.43,2.35-1.07-.08-2.44-2.2-2.86-3.64-.5-1.71-.12-3.68-.12-6.15Z"/>
      <path class="cls-1" d="M119.8,10.26H58.33c2.2-2.59,55.3-3.53,61.47,0Z"/>
      <path class="cls-1" d="M89.36,123.05c-4.46,0-8.93,.25-13.36-.13-1.68-.15-3.27-1.7-4.76-2.81-.15-.11,.71-2.31,1.11-2.31,2.12-.01,4.96-.42,6.23,.75,5.72,5.27,12.12,3.57,18.4,2.31,2.08-.42,3.75-2.84,5.84-3.29,1.44-.31,3.28,1.19,4.94,1.89-1.34,1.12-2.58,3.04-4.05,3.23-4.74,.61-9.56,.59-14.35,.81v-.45Z"/>
      <path class="cls-1" d="M80.73,114.55c3.28-5.45,12.56-6.99,15.46-3.65,.48,.55-.48,3.47-.87,3.49-4.5,.26-9.03,.16-14.58,.16Z"/>
    </g>
    <g>
      <path class="cls-2" d="M36.53,101.04c0-8.24,.11-16.49-.03-24.73-.1-6.21,2.54-10.83,7.42-14.44,4.55-3.37,4.36-5.11,1.88-10.38-1.28-2.71-.59-6.34-.77-9.56-.18-3.13-.49-6.26,3.86-7.08,.57-.11,1.08-2.02,1.14-3.12,.21-3.6,.09-7.21,.3-10.81,.32-5.4,4.19-8.83,9.53-8.64,4.68,.16,8.45,4.16,8.57,9.07,.07,3.09-.08,6.2,.31,9.25,.27,2.13-.09,4.98,3.5,5.27,.6,.05,1.64,1.96,1.5,2.85-.75,4.82,2.24,10.02-2.07,14.68-.91,.99,.58,6.06,2.35,7.35,6.5,4.76,8.85,10.8,8.72,18.62-.27,15.45-.08,30.91-.1,46.37-.01,6.18-1.28,7.8-7.43,7.93-10.46,.22-20.93,.23-31.39-.08-6.48-.19-7.27-1.39-7.28-7.83-.01-8.24,0-16.49,0-24.73Zm14.42-48.38c-.14,5.41-1.58,9.25-6.12,12.11-4.03,2.55-5.62,7.01-5.55,12.07,.18,12.69,.06,25.39,.06,38.08,0,4.94,0,9.88,0,15.62,12.88,0,25.15,.12,37.4-.22,1.07-.03,2.92-3.08,2.95-4.74,.22-16.29,.37-32.6-.07-48.88-.1-3.61-1.66-8.15-4.18-10.51-4.13-3.86-7.9-7.36-7.51-13.53h-16.99Zm20.28-3.28c0-2.77,.26-5.34-.11-7.82-.17-1.15-1.53-3.01-2.4-3.04-6.81-.25-13.64-.14-20.73-.14v11h23.24Zm-5.66-14.29c0-5.24,.17-9.87-.06-14.48-.16-3.34-2.09-5.34-5.64-5.4-3.55-.06-6.26,1.35-6.5,5.08-.32,4.9-.08,9.83-.08,15.13,3.05,0,5.94,.03,8.82-.02,1.17-.02,2.33-.21,3.46-.32Z"/>
      <path class="cls-1" d="M50.95,52.67h16.99c-.39,6.17,3.38,9.67,7.51,13.53,2.52,2.36,4.08,6.9,4.18,10.51,.44,16.28,.29,32.59,.07,48.88-.02,1.66-1.88,4.71-2.95,4.74-12.26,.34-24.52,.22-37.4,.22,0-5.73,0-10.67,0-15.62,0-12.69,.12-25.39-.06-38.08-.07-5.06,1.51-9.53,5.55-12.07,4.53-2.86,5.97-6.7,6.12-12.11Z"/>
      <path class="cls-1" d="M71.23,49.39h-23.24v-11c7.1,0,13.92-.11,20.73,.14,.87,.03,2.23,1.89,2.4,3.04,.37,2.48,.11,5.05,.11,7.82Z"/>
      <path class="cls-1" d="M65.56,35.09c-1.13,.11-2.3,.3-3.46,.32-2.88,.05-5.77,.02-8.82,.02,0-5.3-.24-10.24,.08-15.13,.25-3.73,2.96-5.14,6.5-5.08,3.55,.06,5.48,2.06,5.64,5.4,.23,4.61,.06,9.24,.06,14.48Z"/>
    </g>
  </g>
</svg>