<?xml version="1.0" encoding="UTF-8"?>
<svg id="Layer_2" data-name="Layer 2" xmlns="http://www.w3.org/2000/svg" viewBox="0 0 27.62 60.12">
  <g id="Layer_1-2" data-name="Layer 1">
    <g>
      <path d="M18.48,33.96c.21,.83,.3,1.63,.32,2.44,.04,1.55-.43,2.97-1.2,4.29-.94,1.61-2.18,2.97-3.67,4.09-.07,.05-.12,.1-.22,.02-1.81-1.38-3.27-3.05-4.22-5.14-.8-1.75-.82-3.57-.42-5.41,.01-.06,.03-.13,.04-.19,0-.01,0-.03,0-.07-.27,0-.55,0-.83,.01-.07,0-.15,.1-.21,.16-.87,.98-1.73,1.96-2.6,2.94-.41,.46-.89,.53-1.37,.15C.78,34.6-.56,31.19,.22,27.02c.49-2.63,1.94-4.69,4.11-6.24,.15-.11,.12-.23,.12-.36-.03-1.91,.08-3.8,.37-5.69,.39-2.58,1.1-5.05,2.26-7.39,1.14-2.3,2.64-4.34,4.63-5.99,.6-.5,1.23-.95,1.93-1.29,.12-.06,.21-.06,.33,0,1.06,.53,1.96,1.27,2.81,2.08,1.44,1.38,2.59,2.98,3.51,4.73,1.11,2.11,1.85,4.35,2.3,6.69,.44,2.26,.61,4.55,.57,6.85,0,.21,.05,.34,.22,.47,2.21,1.62,3.61,3.76,4.07,6.47,.53,3.1-.23,5.87-2.22,8.3-.52,.63-1.11,1.18-1.77,1.66-.42,.31-.93,.24-1.28-.15-.87-.98-1.73-1.96-2.59-2.94-.13-.15-.26-.23-.47-.21-.2,.02-.4,0-.64,0ZM8.55,8.61s-.02,.02-.03,.04c-.03,.06-.06,.12-.08,.18-1.03,2.3-1.63,4.71-1.91,7.21-.33,2.92-.27,5.85,.09,8.76,.3,2.43,.83,4.82,1.71,7.11,.05,.13,.11,.19,.27,.19,3.47,0,6.94,0,10.41,0,.14,0,.21-.04,.26-.17,.45-1.17,.81-2.36,1.09-3.58,.87-3.81,1.13-7.66,.79-11.55-.24-2.76-.85-5.43-1.99-7.97-.04-.08-.08-.16-.11-.22-3.51,2.31-6.99,2.31-10.5,0Zm5.75,33.33c.66-.71,1.19-1.39,1.64-2.13,1.1-1.79,1.23-3.68,.63-5.66-.04-.12-.08-.18-.23-.18-1.69,0-3.39,0-5.08,0-.12,0-.19,.02-.23,.15-.39,1.32-.52,2.66-.12,4,.51,1.68,1.56,3.01,2.79,4.22,.08,.07,.13,.06,.2,0,.15-.16,.31-.31,.4-.4Zm8.77-18.91s-.02,.04-.02,.05c-.02,.18-.03,.36-.05,.55-.29,3.12-.88,6.17-2.03,9.09-.05,.12-.02,.19,.05,.28,.62,.7,1.24,1.4,1.86,2.1,.04,.05,.09,.09,.13,.13,3.79-3.39,3.47-9.26,.07-12.19ZM4.6,35.21s.05-.04,.07-.06c.65-.73,1.3-1.47,1.94-2.21,.04-.05,.05-.16,.03-.22-.19-.56-.41-1.12-.59-1.68-.81-2.53-1.25-5.14-1.47-7.78,0-.08-.02-.16-.03-.25-3.56,3.16-3.59,9.01,.06,12.2ZM15.72,3.66c-.51-.42-1-.86-1.52-1.26-.48-.37-.31-.36-.79,0-1.58,1.17-2.82,2.65-3.85,4.32-.1,.15-.05,.22,.07,.32,2.49,1.91,5.89,1.91,8.36,0,.13-.1,.16-.18,.06-.33-.68-1.09-1.45-2.1-2.32-3.03Z"/>
      <path d="M9.49,55.25c-.29,.27-.62,.35-.99,.22-.37-.14-.6-.47-.6-.88,0-.77,0-1.54,0-2.31,0-2.83,0-5.66,0-8.49,0-.39,.13-.71,.47-.91,.63-.37,1.4,.08,1.4,.82,0,1.08,0,2.16,0,3.23,0,2.52,0,5.03,0,7.55,0,.29-.06,.56-.28,.77Z"/>
      <path d="M19.43,43.01c.21,.2,.28,.44,.28,.73,0,2.39,0,4.78,0,7.18,0,1.2,0,2.4,0,3.61,0,.58-.39,1-.93,1-.54,0-.94-.42-.94-1.01,0-3.59,0-7.19,0-10.78,0-.45,.22-.78,.59-.93,.34-.14,.73-.06,1,.21Z"/>
      <path d="M14.45,47.59c.22,.23,.29,.49,.29,.79,0,1.97,0,3.95,0,5.92,0,1.6,0,3.2,0,4.8,0,.5-.26,.86-.68,.98-.6,.17-1.18-.28-1.19-.92,0-.99,0-1.99,0-2.98,0-2.61,0-5.22,0-7.82,0-.55,.3-.94,.79-1.01,.31-.05,.58,.05,.79,.24Z"/>
      <path d="M16.45,14.4c1.46,1.47,1.45,3.81-.01,5.27-1.47,1.46-3.82,1.45-5.29-.02-1.45-1.45-1.43-3.81,.03-5.26,1.47-1.46,3.81-1.46,5.27,0Zm-3.95,1.32c-.72,.72-.73,1.89-.02,2.61,.72,.73,1.9,.75,2.63,.03,.73-.73,.74-1.9,.02-2.63-.73-.73-1.89-.74-2.63-.01Z"/>
    </g>
  </g>
</svg>