<?xml version="1.0" encoding="UTF-8"?>
<svg id="Layer_2" data-name="Layer 2" xmlns="http://www.w3.org/2000/svg" viewBox="0 0 43.61 47.52">
  <g id="Layer_1-2" data-name="Layer 1">
    <g>
      <path d="M18.83,47.52c-.05-.03-.1-.09-.15-.1-3.51-.66-5.96-4.95-3.42-8.67-.45-.97-.94-1.81-1.24-2.71C10.79,26.22,7.59,16.39,4.39,6.56c-.08-.23-.16-.46-.26-.75-.36,.14-.68,.29-1.02,.4-1.16,.38-2.36-.14-2.87-1.24C-.26,3.92,.04,2.62,1.05,2.04,2.25,1.34,3.5,.71,4.77,.18c1.31-.54,2.6,.2,3.09,1.69,1.19,3.61,2.35,7.22,3.53,10.83,2.16,6.63,4.32,13.26,6.48,19.89,.08,.23,.17,.46,.28,.77,.72-.25,1.41-.49,2.19-.76-.12-.36-.22-.67-.33-.97-1.45-4.14-2.9-8.27-4.35-12.41q-.59-1.69,1.09-2.3c.14-.05,.28-.11,.5-.19-.08-.27-.13-.53-.22-.77-.95-2.71-1.9-5.41-2.85-8.12-.36-1.04-.24-1.27,.81-1.64,3.35-1.18,6.7-2.35,10.04-3.53,1.08-.38,1.31-.26,1.7,.85,1.02,2.91,2.04,5.82,3.09,8.81,.69-.23,1.32-.45,1.96-.66,1.04-.35,1.28-.24,1.65,.81,1.54,4.37,3.07,8.74,4.6,13.1,.07,.2,.16,.39,.27,.65,.64-.22,1.24-.43,1.85-.63,1.51-.51,2.83,.01,3.3,1.3,.49,1.35-.18,2.62-1.74,3.18-6.1,2.18-12.21,4.34-18.32,6.5-.34,.12-.68,.25-.84,.31,.75,.93,1.67,1.76,2.2,2.79,1.48,2.9,0,6.38-3.05,7.52-.28,.11-.56,.23-.84,.35h-2.04Zm17.92-20.84c-1.6-4.54-3.16-8.97-4.73-13.43-1.56,.55-2.98,1.05-4.47,1.58,.56,1.6,1.13,3.13,1.63,4.68,.13,.4,.2,1.02-.01,1.26-.21,.24-.89,.3-1.24,.15-1.32-.59-2.17-.19-2.86,1.01-.19,.33-.71,.67-1.07,.65-.26-.01-.59-.55-.73-.92-.59-1.55-1.13-3.12-1.7-4.74-1.51,.53-2.95,1.04-4.47,1.57,1.58,4.51,3.14,8.95,4.72,13.44,5-1.76,9.91-3.48,14.94-5.25Zm-20.29,10.64c.72-.26,1.18-.44,1.64-.6,7.65-2.71,15.3-5.41,22.95-8.12,.17-.06,.42-.09,.5-.22,.16-.26,.4-.65,.31-.85-.12-.26-.51-.47-.82-.55-.23-.05-.52,.14-.78,.24-7.24,2.57-14.48,5.14-21.72,7.7-1.27,.45-1.46,.36-1.87-.91-2.43-7.48-4.86-14.96-7.3-22.44-.98-3.02-1.98-6.04-2.95-9.06-.18-.56-.46-1.07-1.09-.81-1.16,.49-2.29,1.07-3.39,1.7-.2,.11-.32,.71-.2,.93,.12,.23,.59,.37,.91,.36,.31-.01,.62-.25,.92-.4,1.35-.67,1.58-.58,2.04,.85,2.06,6.34,4.12,12.67,6.18,19.01,1.31,4.02,2.6,8.04,3.94,12.05,.14,.43,.5,.78,.74,1.14Zm2.33-21.22c3.22-1.13,6.35-2.23,9.52-3.34-1.02-2.89-2.01-5.69-3-8.52-.89,.32-1.66,.6-2.49,.89,.35,1,.71,1.88,.97,2.79,.11,.38,.17,.94-.04,1.18-.2,.23-.8,.27-1.15,.17-.7-.22-1.13-.07-1.54,.54-.2,.3-.68,.6-1.01,.58-.26-.02-.57-.49-.71-.82-.39-.92-.7-1.88-1.05-2.86-.88,.31-1.65,.58-2.49,.88,1.01,2.87,1.98,5.64,2.99,8.51Zm5.05,25.97c.02-2.23-1.74-4.02-3.96-4.03-2.24-.02-4.02,1.74-4.04,3.96-.01,2.23,1.74,4.02,3.96,4.04,2.22,.02,4.02-1.75,4.04-3.97Zm2.2-26.73c-1.06,.38-1.99,.7-2.97,1.06,.45,1.26,.87,2.46,1.38,3.91,.63-1.54,1.63-1.73,2.96-1.1-.5-1.41-.92-2.59-1.37-3.87Zm-6.23-9.16c.22,.62,.4,1.15,.56,1.59,.56-.18,1-.32,1.51-.48-.17-.49-.36-1.02-.57-1.62-.52,.17-.94,.32-1.5,.51Z"/>
      <path d="M22.16,41.98c0,1.29-1.07,2.36-2.35,2.37-1.31,.01-2.42-1.11-2.39-2.42,.03-1.29,1.12-2.34,2.39-2.32,1.28,.02,2.34,1.1,2.34,2.38Zm-1.28,0c-.5-.36-.83-.78-1.06-.73-.31,.07-.54,.49-.81,.76,.26,.24,.51,.64,.79,.67,.26,.03,.56-.35,1.07-.7Z"/>
    </g>
  </g>
</svg>