<?xml version="1.0" encoding="UTF-8"?>
<svg id="Layer_2" data-name="Layer 2" xmlns="http://www.w3.org/2000/svg" viewBox="0 0 60.06 69.94">
  <defs>
    <style>
      .cls-1 {
        fill: #fff;
      }

      .cls-2 {
        fill: #daafbc;
      }

      .cls-3 {
        fill: #52616b;
      }

      .cls-4 {
        fill: #1e2022;
      }

      .cls-5 {
        fill: #ddb1be;
      }

      .cls-6 {
        fill: none;
        stroke: #f0f5f9;
        stroke-miterlimit: 10;
      }

      .cls-7 {
        fill: #c9d6e0;
      }

      .cls-8 {
        fill: #f0f5f9;
      }
    </style>
  </defs>
  <g id="Layer_1-2" data-name="Layer 1">
    <path class="cls-3" d="M4.27,44.75c-.06-.04-.07-.1-.04-.17-.15-.24,.02-.56-.22-.78-.74-2.27-.76-4.61-.58-6.96,.29-3.89,1.35-7.62,2.52-11.31,1.04-3.28,2.1-6.55,3-9.87,.41-1.51,.95-2.98,1.61-4.4C13.57,4.82,18.57,1.11,25.67,.29c3.32-.38,6.66-.45,9.95,.16,6.48,1.2,11.03,4.94,13.76,10.91,.44,.96,.86,1.94,1.15,2.95,1.37,4.86,3.01,9.63,4.4,14.47,.86,2.97,1.54,5.99,1.63,9.1,.06,2,0,3.99-.61,5.92-.2,.21-.02,.52-.21,.73,.03,.08,.01,.15-.04,.21-.11,.15-.08,.36-.18,.51,.03,.08,0,.14-.05,.19-.11,.14-.08,.34-.19,.48h0c-.16,.12-.14,.33-.21,.49h0c-.32,.09-.39-.13-.46-.36-.01-.11,0-.22,.01-.33,.07-.27,.14-.53,.18-.8,.02-.11,.04-.22,.07-.33,.11-.34,.07-.69,.07-1.04,.5-3.33,.14-6.58-.83-9.78-.02-.33-.03-.67-.14-.99-.02,.1,.04,.18,.06,.28,.1,.62,.1,1.26,.3,1.87,.15,2.56-.33,5.05-.92,7.52-.75,3.12-2.16,6.02-3.21,9.04-.35,.44-.14,1-.32,1.48-.57,.63-.31,1.33-.09,1.98,.57,1.66,1.8,2.69,3.36,3.37,.53,.23,1.11,.36,1.66,.54,.23,.18,.53,.05,.77,.17,.13,.02,.27,.05,.4,.07,.05,.2-.07,.3-.22,.38-.15,.06-.3,.08-.46,.09-.18,0-.36-.03-.53-.06,.01,0-.05-.05-.05-.05,0,0-.03,.07-.02,.07,.16,.02,.31,.05,.46,.12,2.51,1.29,4.32,3.11,4.66,6.06,.04,.67-.1,1.36,.13,2.02,.05,.1,.1,.2,.14,.3-.29,.61-.9,.97-1.24,1.54-.17,.74-.47,.12-.72,.07-.32-.23-.64-.47-.96-.7-.41-.19-.85-.29-1.28-.45-2.54-.92-5.21-1.35-7.79-2.13-3.33-1.01-6.34-2.5-8.2-5.61-1.42-2.37-1.94-5.02-2.05-7.73-.06-1.4-.29-2.8-.11-4.2,.02-.2-.06-.38-.19-.53-.12-.14-.21-.29-.23-.47,.7-1.22,1.83-2.08,2.74-3.12,2.24-2.53,3.93-5.31,4.62-8.65,.07-.35,.15-.69,.43-.94,.27-.12,.39,.05,.5,.24,.06,.1,.09,.23,.25,.22,.07-.05,.13-.11,.18-.17,.06-.13,.1-.26,.14-.39,.02-.09,.05-.18,.08-.27,.09-.26,.1-.55,.26-.78,.16-.15,.43-.13,.56-.34,.12-.22,.19-.46,.28-.69,2.8-7.89,1.33-15.06-3.64-21.63-1.15-1.53-2.6-2.81-4.1-4-.22-.19-.47-.1-.71-.07-.32-.06-.51-.31-.73-.51-.07-.07-.14-.14-.21-.21-.07-.07-.15-.13-.22-.2-.04-.03-.08-.07-.12-.1-.5-.4-1.09-.61-1.66-.86-5.7-2.12-11.06-1.39-15.88,2.26-5.12,3.87-7.9,9.14-8.7,15.52-.43,3.49,.18,6.77,1.35,10.01,.02,.23,.06,.45,.18,.65-.1-.21-.15-.42-.14-.65-.01-.24,.02-.47,.2-.65,.11-.04,.22-.03,.33,.03,.38,.58,.43,1.24,.48,1.9,.03,.43,.1,.85,.37,1.2,.14,.09,.23,.03,.32-.09,.12-.17,.26-.32,.5-.2,.24,.22,.34,.52,.4,.83,.75,3.82,2.95,6.81,5.52,9.58,.37,.4,.79,.76,1.11,1.2,.09,.12,.19,.24,.3,.35,.08,.06,.15,.13,.23,.2,.07,.07,.13,.16,.17,.25,0,.05,0,.1,.01,.15-.06,.15-.18,.24-.32,.32-.09,.06-.17,.12-.25,.19-.27,1.72-.05,3.44-.12,5.16-.13,2.86-.72,5.57-2.42,7.95-1.83,2.55-4.5,3.79-7.37,4.7-2.68,.85-5.46,1.33-8.12,2.27-.42,.11-.82,.27-1.21,.45-.52,.23-.9,.66-1.36,.97-.64,.14-.19-.64-.59-.71-.34-.27-.67-.55-.88-.95-.09-.38,.25-.75,.02-1.14-.24-2.86,1.17-4.9,3.28-6.58,.42-.34,.88-.64,1.37-.88,.21-.11,.45-.08,.66-.15-.04-.05-.08,.01-.12,0-.19,.04-.38,.03-.57,.03-.23-.05-.42-.14-.46-.4,.07-.19,.24-.23,.41-.26,1.92-.15,3.5-.97,4.74-2.45,.54-.64,.89-1.37,1-2.2,.06-.42,.12-.86-.24-1.21-.18-.41,.03-.92-.3-1.3-1.4-3.89-3.15-7.67-3.81-11.8-.3-1.93-.61-3.86-.31-5.82,.2-.41,.21-.86,.29-1.28,.03-.05,.04-.11,.03-.18,0-.03-.01-.04,0-.04,0,0,0,.03,0,.1-.12,.28-.07,.58-.13,.87-.98,2.95-1.15,5.99-1.04,9.06,0,.41-.06,.81,.05,1.21,.03,.1,.05,.21,.07,.32,.04,.25,.08,.51,.16,.76,.03,.1,.06,.2,.08,.3,.04,.25,.11,.5,.18,.75,.02,.11,.03,.21,.02,.32-.07,.21-.12,.44-.43,.34h0c-.12-.14-.08-.34-.21-.48-.06-.04-.08-.09-.05-.16-.08-.18-.05-.4-.2-.55-.06-.03-.07-.08-.04-.14-.06-.19-.05-.4-.19-.56Z"/>
    <path class="cls-3" d="M55.73,44.54c-.03-.27-.06-.54,.21-.73,.04,.27,0,.52-.21,.73Z"/>
    <path class="cls-3" d="M4.01,43.81c.3,.19,.25,.49,.22,.78-.23-.22-.24-.49-.22-.78Z"/>
    <path class="cls-3" d="M55.51,45.26c-.03-.2,0-.39,.18-.51,.04,.2-.02,.38-.18,.51Z"/>
    <path class="cls-3" d="M55.05,46.43c-.04-.22,0-.4,.21-.5,.01,.2-.02,.39-.21,.5Z"/>
    <path class="cls-3" d="M4.5,45.45c.21,.13,.24,.33,.2,.55-.19-.14-.22-.33-.2-.55Z"/>
    <path class="cls-3" d="M4.27,44.75c.21,.14,.23,.34,.19,.56-.19-.15-.22-.35-.19-.56Z"/>
    <path class="cls-3" d="M4.75,46.16c.19,.11,.23,.28,.21,.48-.17-.12-.23-.28-.21-.48Z"/>
    <path class="cls-3" d="M55.26,45.94c-.03-.2,.01-.37,.19-.48,.03,.2-.03,.36-.19,.48Z"/>
    <path class="cls-3" d="M12.53,33.42c-2.8-6.87-1.98-13.46,1.69-19.76,2.35-4.03,5.6-7.12,10.05-8.73,4-1.45,8.01-1.46,11.96,.29,.45,.52,1.11,.65,1.68,.95l-.02-.02c.03,.14,.11,.24,.27,.25l-.06,.02,.06-.03c.09,.31-.06,.53-.27,.73-.4,.38-1.21,.58-.6,1.39,.13,.13,.27,.21,.45,.11,.3-.48-.16-1.03,.15-1.51,.64-.29,.86,.34,1.26,.58,.12,.13,.22,.28,.29,.44,.07,.17,.1,.35,.12,.53,.02,.38,.02,.75-.06,1.13-.39,1.17-1.21,1.68-2.42,1.62-1.9-.37-3.75-1.03-5.72-1.01-.85-.18-1.7-.36-2.57-.09-.22,.12-.47,.1-.71,.11-.29,0-.59,0-.87,.13-8.41,1.55-13.18,7.69-14.09,15.39-.24,.39-.16,.82-.17,1.24,0,.5,.01,.99-.02,1.49-.16,.6-.17,1.2,0,1.81,.03,.57,.03,1.13,0,1.7-.08,.3-.12,.61-.1,.92-.02,.18-.02,.38-.3,.31Z"/>
    <path class="cls-3" d="M39.51,6.9c5.29,3.87,8.31,9.12,9.31,15.54,.57,3.7,.15,7.31-1.35,10.77-.5-.04-.43-.42-.46-.74,.04-.4,.02-.81,.02-1.22-.04-1.77,.15-3.55-.23-5.31-.16-1.8-.67-3.51-1.34-5.17-.24-.86-.72-1.61-1.13-2.39-.27-.32-.4-.74-.71-1.03-.24-.34-.44-.71-.76-.99-1.27-1.83-3.21-2.88-4.95-4.16-.11-.21-.19-.42-.07-.65,1.27-.62,1.91-1.59,1.67-3.04,0-.22-.01-.43-.15-.61-.05-.1-.1-.19-.14-.29-.03-.29-.31-.69,.3-.71Z"/>
    <path class="cls-3" d="M22.11,47.98c-.3,.18-.18,.48-.19,.73-.02,1.27-.02,2.54-.05,3.81,0,.42,.04,.85-.19,1.24-.01-1.78-.03-3.55-.02-5.33,0-.24-.11-.73,.45-.45Z"/>
    <path class="cls-4" d="M45.89,33.7c-.02,.21-.04,.42-.07,.63-.28,.39,.22,1.02-.39,1.31-.08-.18-.06-.41-.27-.52,0-.3,0-.6,0-.91,.34-.25-.33-1.2,.69-.98h0c.13,.14,.13,.3,.04,.46Z"/>
    <path class="cls-3" d="M37.86,7.15c0-.29,.16-.52,.3-.76,.33,.15,.44,.5,.67,.74,.24,.19,.47,.39,.18,.72-.41-.19-.61-.73-1.15-.71h0Z"/>
    <path class="cls-3" d="M37.91,6.17c-.68-.1-1.39-.16-1.68-.95,.65,.16,1.25,.39,1.68,.95Z"/>
    <path class="cls-3" d="M39.01,7.86c-.06-.24-.12-.48-.18-.72,.23-.06,.23-.79,.68-.24-.43,.23,.07,.49-.03,.73-.14,.15-.01,.42-.24,.52-.08-.1-.15-.2-.23-.29Z"/>
    <path class="cls-7" d="M46.53,33.23c.02,.24,.04,.47,.06,.71-.1,.32-.01,.68-.24,.97,.02-.56-.19-1.16,.19-1.68Z"/>
    <path class="cls-3" d="M3.95,40.19c-.24-.45-.15-.77-.09-1.22,.24,.45,.15,.77,.09,1.22Z"/>
    <path class="cls-3" d="M55.31,59.51c-.18,.06-.37,.06-.5,.23l-.49-.19c-.06-.22,0-.33,.25-.26,.22,.02,.44,.04,.66,.05,.09,.03,.11,.09,.08,.17Z"/>
    <path class="cls-3" d="M4.52,42.78c.22,.39,.22,.82,.2,1.26-.39-.37-.21-.82-.2-1.26Z"/>
    <path class="cls-3" d="M55.03,44.74c-.03-.35,0-.69,.21-.99,.02,.35,.13,.71-.21,.99Z"/>
    <path class="cls-3" d="M54.57,59.28c-.08,.09-.17,.18-.25,.26-.22-.02-.46-.22-.37-.34,.16-.22,.42-.07,.62,.08Z"/>
    <path class="cls-3" d="M14.4,35.8c.06,0,.12,.02,.18,.04,0,.39-.07,.63-.46,.23,.09-.09,.19-.18,.28-.27Z"/>
    <path class="cls-3" d="M4.98,45.18c.2,.21,.24,.47,.22,.74-.29-.18-.25-.46-.22-.74Z"/>
    <path class="cls-3" d="M54.78,45.69c-.02-.28,0-.55,.21-.76,.04,.28,.08,.57-.21,.76Z"/>
    <path class="cls-3" d="M4.76,44.21c.19,.22,.22,.49,.19,.76-.27-.2-.22-.48-.19-.76Z"/>
    <path class="cls-3" d="M55.31,59.51c-.03-.06-.05-.12-.08-.17,.17,0,.33-.01,.5-.02,0,.06,0,.13,0,.19-.14,0-.28,0-.42,0Z"/>
    <path class="cls-7" d="M46.11,35.6c-.03-.2,.01-.38,.2-.49,.03,.2,0,.38-.2,.49Z"/>
    <path class="cls-3" d="M38.16,6.4c-.15-.02-.24-.1-.27-.25,.14,.02,.24,.1,.27,.25Z"/>
    <path class="cls-3" d="M41.8,24.82c-2.75-.76-5.32-.05-7.85,.97-.47,.19-.92,.43-1.4,.58-.49,.15-.86-.27-.65-.73,.31-.68,.6-1.28,1.5-1.54,1.31-.38,2.58-.85,3.94-1.05,1.33-.2,2.56-.06,3.69,.72,.42,.28,.87,.52,1.3,.78,.02,.46-.27,.33-.52,.28Z"/>
    <path class="cls-3" d="M40,26.87c.79,.63,1.55,1.35,2.74,.77-.69,1.07-1.72,.9-2.68,.89-.18,.69-.29,1.35-.95,1.69-.16,.08-.31,.04-.45-.04-.58-.21-1.16-.44-1.66,.18-.17,.17-.36,.2-.57,.06-.79-.22-.98-.93-1.24-1.56-.28,0-.52,.2-.8,.11,.28-1.18,1.59-2.15,3.21-2.35,.42-.05,.85-.05,1.27,.04,.37,.13,.77,.1,1.14,.21Z"/>
    <path class="cls-3" d="M39.03,26.91c-1.94-.2-3.53,.41-4.65,2.06-.23,.03-.49,.11-.63-.13-.11-.2,.08-.36,.21-.5,.63-.68,1.26-1.37,2.01-1.93,.37,.19,.66-.13,1-.16,.82-.07,1.67-.28,2.3,.51,.01,.02,0,.08-.03,.1-.04,.04-.12,.05-.2,.04Z"/>
    <path class="cls-3" d="M39.03,26.91c-.1-.45-.49-.45-.82-.47-.49-.02-.97,0-1.46,.01-.24,.1-.31-.01-.29-.23,1.32-.53,2.5-.35,3.54,.65-.32,.12-.63,.44-.97,.04Z"/>
    <path class="cls-3" d="M38.76,29.88c.12,.11,.23,.23,.35,.34-.84,.7-1.74,.7-2.68,.21,.18-.04,.38-.04,.49-.23,.55-.48,1.24-.13,1.84-.32Z"/>
    <path class="cls-3" d="M36.46,26.22c.1,.08,.19,.16,.29,.23-.27,.15-.55,.43-.78-.04,.16-.06,.33-.13,.49-.19Z"/>
    <path class="cls-4" d="M14.36,33.26c-.01,.17-.03,.34-.21,.43-.02-.19-.17-.44,.21-.43Z"/>
    <path class="cls-3" d="M37.62,11.59c-.15-.14-.31-.28-.46-.42,1.03,0,1.72-.5,2.12-1.43,.19-.38,.14-.77,.03-1.17-.02-.14-.05-.28-.07-.41,.03-.2,.04-.4,.24-.52,.05,.05,.07,.11,.05,.18,.1,.16,.07,.36,.17,.52,.27,1.91-.13,2.64-1.82,3.33-.11,.06-.19,.03-.26-.06Z"/>
    <path class="cls-3" d="M37.86,7.15c.31,.44,.2,.98,.33,1.46,.06,.21-.15,.33-.33,.42-.08-.08-.14-.16-.18-.26-.05-.12-.04-.27-.14-.38-.09,.11-.02,.25-.08,.37-.07,.1-.16,.11-.26,.05-.49-.39-.35-.97-.44-1.51,.38-.05,.74-.1,1.11-.15h0Z"/>
    <path class="cls-3" d="M31.33,10.18c-.91,0-1.81,0-2.72-.02,.91-.31,1.82-.32,2.72,.02Z"/>
    <path class="cls-3" d="M12.69,28.65c0,.63,0,1.26,0,1.89-.24-.63-.19-1.26,0-1.89Z"/>
    <path class="cls-3" d="M39.31,8.56c.28,.4,.3,.79-.03,1.17,0-.39,.02-.78,.03-1.17Z"/>
    <path class="cls-3" d="M37.62,11.59c.09,.02,.17,.04,.26,.06,.07,.15,.14,.29,.21,.44-.28,.03-.45-.2-.69-.26,0-.14,.12-.19,.22-.24Z"/>
    <path class="cls-3" d="M39.7,8.32c-.18-.13-.2-.32-.17-.52,.13,.15,.21,.31,.17,.52Z"/>
    <path class="cls-3" d="M17.68,27.79c.71,.13,1.28-.14,1.8-.6,.55-.49,1.12-.96,1.89-1.05,.22-.09,.31,.03,.34,.22,.19,.06-.66,.33,.05,.27,1.13-.09,2.06,.37,2.93,1.01,.32,.23,.63,.49,.6,.95-.07,.18-.17,.3-.38,.2-.26,.09-.28,.34-.38,.55-.5,1.05-1.23,1.45-2.43,1.37-1.11-.07-1.75-.56-2.07-1.69-.11-.38-.24-.51-.61-.48-.71,.06-1.4,0-1.99-.47-.05-.23,.02-.34,.27-.28Z"/>
    <path class="cls-3" d="M17.64,24.52s.06-.05,.09-.07c2.72-2.24,5.59-1.5,8.51-.47,.88,.31,1.47,.75,1.76,1.62,.08,.23,.13,.44-.09,.63-.2,.17-.4,.23-.64,.12-.25-.11-.5-.23-.75-.34-1.21-.54-2.47-.96-3.76-1.26-1.47-.34-2.93-.38-4.39,.02-.3,.07-.67,.34-.73-.26Z"/>
    <path class="cls-5" d="M27.59,41.33c.55-1.35,3.07-1.46,4.04-.44,.29,.3,.48,.69,.91,.88-.41,.51-.83,.61-1.58,.24-.82-.41-1.59-.47-2.39-.01-.19,.06-.38,.09-.58,.12-.08,0-.15,0-.23-.02-.33-.17-.22-.43-.18-.68,0-.03,0-.06,0-.09Z"/>
    <path class="cls-3" d="M25.21,28.49c-1.21-1.3-2.72-1.8-4.53-1.61,.26-.42,.62-.43,.94-.5,.24-.21,.54-.19,.84-.19,.22,0,.44,.04,.65,.11,.3,.02,.56,.29,.88,.14,.72,.57,1.37,1.22,1.89,1.98,.41,.59,0,.62-.45,.61-.21-.12-.14-.35-.22-.52Z"/>
    <path class="cls-3" d="M31.53,36.34c-.97,.94-1.98,1.26-3.06,.23,.02-.42,.21-.39,.44-.23,.63,.47,1.25,.58,1.87-.04,.13-.13,.33-.16,.49-.24,.22-.08,.31,0,.25,.27Z"/>
    <path class="cls-3" d="M22.61,26.38c-.33,0-.66,0-.99,0-.09-.08-.17-.16-.26-.24,.58-.32,1.16-.31,1.74,.01-.1,.21-.35,.09-.49,.23Z"/>
    <path class="cls-3" d="M23.99,26.43c-.21,.39-.45,.24-.7,.04-.12-.09-.12-.19,0-.28,.28-.05,.47,.16,.7,.24Z"/>
    <path class="cls-3" d="M23.29,26.19c0,.09,0,.19,0,.28-.22-.03-.45-.06-.67-.09,.12-.17,.32-.16,.49-.23,.07-.01,.13,0,.19,.04Z"/>
    <path class="cls-3" d="M25.21,28.49c.23,.11,.26,.3,.22,.52-.22,.02-.41-.01-.54-.22,.1-.1,.21-.2,.31-.3Z"/>
    <path class="cls-3" d="M38.76,29.88c-.56,.42-1.2,.37-1.84,.32-.15-.13-.32-.36-.06-.43,.63-.17,1.29-.29,1.9,.12Z"/>
    <path class="cls-3" d="M21.31,29.87c.64-.31,1.27-.26,2.07,0-.82,.56-1.45,.41-2.07,0Z"/>
    <path class="cls-2" d="M27.97,41.68c-.16,.27-.41,.29-.69,.27,.15-.29,.43-.25,.69-.27Z"/>
    <path class="cls-8" d="M45.7,35.69c1.93,0,1.93-3,0-3s-1.93,3,0,3h0Z"/>
    <path class="cls-8" d="M14.6,35.03c1.93,0,1.93-3,0-3s-1.93,3,0,3h0Z"/>
    <path class="cls-3" d="M39.24,8.1c.11-.04,.11-.19,.05-.28s-.16-.15-.23-.24c-.03-.03-.04-.07-.07-.1-.04-.05-.08-.09-.13-.12-.14-.11-.27-.22-.41-.33-.25-.2-.5-.41-.79-.53"/>
    <path class="cls-3" d="M39.46,7.45l-.53-.33c-.14-.09-.29-.18-.44-.25-.11-.05-.21-.1-.32-.15-.36-.16-.72-.33-1.08-.5"/>
    <path class="cls-3" d="M38.82,11.82c-.22-.26-.52-.44-.81-.61-.12-.07-.24-.14-.36-.21"/>
    <path class="cls-3" d="M36.84,10.71c.26,.07,.51,.2,.72,.37,.14,.11,.26,.24,.41,.34,.2,.13,.43,.2,.67,.2"/>
    <path class="cls-3" d="M38.86,12.19c-.14-.08-.26-.2-.39-.3-.49-.39-1.08-.61-1.67-.83"/>
    <path class="cls-3" d="M12.58,25.92c-.09,.43-.18,.87-.29,1.3,.03-.51,.1-1.02,.21-1.52,.13,.1,.13,.3,.12,.47-.06,.7-.14,1.39-.27,2.08"/>
    <path class="cls-3" d="M12.42,28.82c.04,.61-.03,1.23,0,1.85"/>
    <path class="cls-3" d="M12.45,29.14c0-.09,0-.18,0-.26,0-.08-.01-.16-.02-.24"/>
    <path class="cls-3" d="M27.35,9.93c.94-.24,1.93-.3,2.89-.15-.55-.01-1.09,0-1.64,.06,2.05-.26,4.11,.22,6.11,.69,1.06,.25,2.12,.5,3.17,.8"/>
    <path class="cls-3" d="M38.61,11.98c-.19-.21-.39-.42-.63-.57-.15-.09-.31-.16-.48-.22-.6-.24-1.2-.47-1.83-.57"/>
    <path class="cls-8" d="M28.38,11.38c.64,0,.64-1,0-1s-.64,1,0,1h0Z"/>
    <path class="cls-8" d="M28.98,10.36c-.17,.02-.34,.03-.51,.06-.13,.02-.25,.07-.37,.08l.13-.02c-.09,.01-.18,.01-.27,0l.13,.98c.13-.02,.27-.04,.4-.06,.06,0,.13-.02,.19-.03s.12-.05,.18-.06l-.13,.02s.02,0,.03,0l-.13-.02h.02c.04-.32,.09-.65,.13-.98-.3,.02-.59,.05-.88,.11-.12,.02-.24,.13-.3,.23-.06,.11-.09,.27-.05,.39s.11,.24,.23,.3c.12,.07,.25,.08,.39,.05,.1-.02,.2-.03,.29-.05l-.13,.02c.15-.02,.3-.03,.45-.04,.13,0,.26-.05,.35-.15,.08-.08,.12-.18,.14-.29,.03-.24-.12-.49-.36-.55-.11-.03-.21-.03-.33,0-.03,0-.06,.02-.1,.03-.07,.02-.14,.03-.21,.05-.15,.02-.3,.04-.45,.07-.11,.02-.25,.13-.3,.23-.05,.1-.07,.21-.06,.32,.01,.1,.06,.21,.14,.29l.1,.08c.08,.05,.16,.07,.25,.07,.15,.02,.3,0,.45-.03,.11-.02,.21-.06,.32-.08l-.13,.02c.13-.02,.25-.03,.38-.04,.14-.01,.25-.05,.35-.15,.09-.09,.15-.23,.15-.35s-.05-.26-.15-.35c-.09-.08-.22-.16-.35-.15h0Z"/>
    <path class="cls-8" d="M31.25,11.37c.64,0,.64-1,0-1s-.64,1,0,1h0Z"/>
    <path class="cls-8" d="M31.53,10.41c-.05-.02-.11-.03-.17-.04-.1-.01-.2-.03-.3-.03-.07,0-.13,.01-.19,.04-.06,.02-.12,.05-.16,.1-.05,.05-.08,.1-.1,.16-.03,.06-.05,.12-.04,.19l.02,.13c.02,.08,.07,.16,.13,.22l.1,.08c.08,.05,.16,.07,.25,.07,.05,0,.11,0,.16,0l-.13-.02c.06,0,.12,.02,.17,.04,.07,.02,.13,.02,.2,0,.07,0,.13-.02,.19-.06,.06-.03,.11-.07,.14-.13,.04-.05,.07-.1,.09-.17l.02-.13c0-.09-.02-.17-.07-.25l-.08-.1c-.06-.06-.14-.1-.22-.13h0Z"/>
    <path class="cls-8" d="M23.18,36.49c3.26-.93,6.56-1.86,9.98-1.82,.64,0,.64-.99,0-1-3.51-.03-6.9,.91-10.24,1.86-.62,.18-.36,1.14,.27,.96h0Z"/>
    <line class="cls-6" x1="29.59" y1="36.69" x2="30.43" y2="36.69"/>
    <path class="cls-8" d="M30.01,38.01c.64,0,.64-1,0-1s-.64,1,0,1h0Z"/>
    <path class="cls-8" d="M30.66,36.28c.64,0,.64-1,0-1s-.64,1,0,1h0Z"/>
    <path class="cls-8" d="M30.36,36.51c.19-.04,.36-.12,.54-.2,.14-.07,.29-.14,.43-.21l-.5-.86c-.14,.09-.28,.17-.43,.23-.07,.03-.14,.07-.21,.11-.07,.05-.14,.09-.22,.12l.12-.05c-.08,.03-.15,.06-.23,.08-.12,.04-.23,.12-.3,.23s-.09,.27-.05,.39,.11,.24,.23,.3,.26,.09,.39,.05,.26-.09,.39-.15c.09-.04,.17-.11,.26-.16s.19-.09,.28-.13,.18-.1,.27-.16c.11-.07,.19-.17,.23-.3,.03-.12,.02-.28-.05-.39s-.17-.2-.3-.23l-.13-.02c-.09,0-.17,.02-.25,.07-.2,.1-.4,.2-.6,.29l.12-.05c-.08,.03-.16,.06-.25,.08-.12,.03-.24,.13-.3,.23s-.09,.27-.05,.39c.09,.27,.34,.41,.62,.35h0Z"/>
    <path class="cls-3" d="M39.34,7.57h0c0-.21-.04-.41-.13-.58-.06-.19-.16-.35-.31-.48-.14-.15-.3-.25-.48-.31-.18-.09-.37-.14-.58-.13l-.4,.05c-.25,.07-.47,.2-.66,.39l-.23,.3c-.14,.23-.2,.49-.2,.76h0c0,.21,.04,.41,.13,.58,.06,.19,.16,.35,.31,.48,.14,.15,.3,.25,.48,.31,.18,.09,.37,.14,.58,.13l.4-.05c.25-.07,.47-.2,.66-.39l.23-.3c.14-.23,.2-.49,.2-.76h0Z"/>
    <path class="cls-3" d="M11.74,34.38c1.93,0,1.93-3,0-3s-1.93,3,0,3h0Z"/>
    <path class="cls-3" d="M11.86,34.54c1.93,0,1.93-3,0-3s-1.93,3,0,3h0Z"/>
    <path class="cls-3" d="M11.7,34.13c1.93,0,1.93-3,0-3s-1.93,3,0,3h0Z"/>
    <path class="cls-3" d="M11.47,30.82c1.93,0,1.93-3,0-3s-1.93,3,0,3h0Z"/>
    <path class="cls-3" d="M11.4,31.24c1.93,0,1.93-3,0-3s-1.93,3,0,3h0Z"/>
    <path class="cls-3" d="M11.38,31.82c1.93,0,1.93-3,0-3s-1.93,3,0,3h0Z"/>
    <path class="cls-3" d="M11.39,32.19c1.93,0,1.93-3,0-3s-1.93,3,0,3h0Z"/>
    <path class="cls-3" d="M11.43,32.73c1.93,0,1.93-3,0-3s-1.93,3,0,3h0Z"/>
    <path class="cls-3" d="M11.46,33.22c1.93,0,1.93-3,0-3s-1.93,3,0,3h0Z"/>
    <path class="cls-3" d="M11.43,33.66c1.93,0,1.93-3,0-3s-1.93,3,0,3h0Z"/>
    <path class="cls-3" d="M11.48,33.71c1.93,0,1.93-3,0-3s-1.93,3,0,3h0Z"/>
    <path class="cls-3" d="M11.52,33.65c1.93,0,1.93-3,0-3s-1.93,3,0,3h0Z"/>
    <path class="cls-3" d="M11.61,33.68c1.93,0,1.93-3,0-3s-1.93,3,0,3h0Z"/>
    <path class="cls-3" d="M48.58,34.3c1.93,0,1.93-3,0-3s-1.93,3,0,3h0Z"/>
    <path class="cls-3" d="M48.5,34.54c1.93,0,1.93-3,0-3s-1.93,3,0,3h0Z"/>
    <path class="cls-3" d="M48.47,34.6c1.93,0,1.93-3,0-3s-1.93,3,0,3h0Z"/>
    <path class="cls-3" d="M48.49,34.51c1.93,0,1.93-3,0-3s-1.93,3,0,3h0Z"/>
    <path class="cls-3" d="M48.47,34.3c1.93,0,1.93-3,0-3s-1.93,3,0,3h0Z"/>
    <path class="cls-3" d="M48.56,34.94c1.93,0,1.93-3,0-3s-1.93,3,0,3h0Z"/>
    <path class="cls-3" d="M37.62,11.85c1.93,0,1.93-3,0-3s-1.93,3,0,3h0Z"/>
    <path class="cls-3" d="M31,10.52c1.93,0,1.93-3,0-3s-1.93,3,0,3h0Z"/>
    <path class="cls-3" d="M39.01,9.3c-.68-.38-1.37-.57-2.15-.6-1.74-.06-1.97,2.45-.4,2.95,.5,.16,.94,.37,1.39,.64l1.51-2.59c-1.24-.58-2.51-1.18-3.84-1.51-1.41-.35-2.9-.45-4.34-.59-2.82-.27-5.62-.33-8.41,.15-.8,.14-1.25,1.12-1.05,1.85,.23,.84,1.04,1.19,1.85,1.05,2.41-.42,4.9-.29,7.33-.07,1.18,.11,2.39,.18,3.55,.44s2.3,.76,3.41,1.28c1.72,.8,3.19-1.57,1.51-2.59-.66-.4-1.37-.71-2.11-.95l-.4,2.95c.28,0,.39,.05,.64,.19,1.68,.95,3.2-1.64,1.51-2.59h0Z"/>
    <path class="cls-3" d="M12.89,31.38c-.07-.15-.06-.13,.02,.07-.02-.05-.04-.1-.05-.15-.03-.11-.03-.07,0,.14,0-.17,0-.14-.03,.1,.1-.12,.12-.44,.15-.59,.11-.61,.03-1.2-.02-1.82-.04-.5-.08-.99-.12-1.49-.02-.23-.04-.47-.04-.7,0-.07,0-.14,0-.21l-.03,.19c-.04-.08,.09-.33,.11-.41,.28-.74-.31-1.68-1.05-1.85-.85-.19-1.55,.26-1.85,1.05-.23,.6-.22,1.25-.17,1.88,.05,.55,.09,1.11,.14,1.66,.02,.28,.05,.57,.07,.85,0,.02,0,.34,0,.34,.03-.21,.04-.23,0-.08-.02,.06-.04,.13-.06,.19-.24,.85-.07,1.57,.31,2.35,.34,.71,1.41,.95,2.05,.54,.73-.47,.9-1.29,.54-2.05h0Z"/>
    <path class="cls-3" d="M13.31,32.01c-.14-.58-.25-1.17-.33-1.76l.05,.4c-.08-.59-.13-1.19-.15-1.78-.01-.39-.16-.78-.44-1.06-.26-.26-.69-.46-1.06-.44s-.79,.14-1.06,.44-.45,.66-.44,1.06c.04,1.32,.22,2.65,.54,3.94,.19,.76,1.09,1.29,1.85,1.05,.79-.26,1.25-1.03,1.05-1.85h0Z"/>
    <path class="cls-8" d="M33.21,50.75c-.13,.02-.27,.05-.4,.07,.17-.02-.11,0-.14,.01-.23,.02-.47,.04-.71,.04-.52,.01-1.02,.45-1,1s.44,.98,1,1c.47,.02,.91-.11,1.34-.27,.49-.18,.88-.68,.7-1.23-.16-.49-.7-.88-1.23-.7-.23,.08-.47,.16-.7,.23-.11,.03-.22,.06-.33,.09-.06,.01-.13,.03-.19,.04,.1-.01,.1,0-.03,0l.27,1.96,1.04-.2c.49-.09,.78-.64,.72-1.1-.06-.48-.48-.88-.98-.87-.21,0-.42,.04-.62,.09-.02,0-.19,.06-.2,.05h.11c-.05,0-.11-.01-.16-.02l.27,1.96c.08-.03,.16-.05,.25-.08,.2-.06-.16,0,.07-.02v-2c-.32,.03-.64,.07-.96,.1l.27,1.96c.11-.04,.22-.07,.34-.1-.23,.04,.13,0,.18-.01,.31-.03,.63-.08,.94-.14,.49-.1,.97-.25,1.45-.4,.27-.09,.54-.18,.8-.3,.22-.1,.42-.23,.64-.34-.2,.1,.1-.03,.15-.04,.1-.03,.21-.06,.31-.09,.33-.12,.58-.26,.85-.48,.41-.32,.36-1.08,0-1.41-.44-.4-.97-.35-1.41,0,.1-.08,.1-.09,0-.03,.12-.05,.13-.05,.02,0-.1,.03-.2,.06-.31,.09-.24,.07-.48,.17-.7,.28-.11,.06-.21,.12-.32,.18-.04,.02-.28,.13-.09,.05-.22,.09-.45,.15-.67,.23-.45,.14-.9,.28-1.36,.36-.04,0-.42,.06-.21,.04-.09,.01-.18,.02-.27,.03-.29,.03-.59,.05-.87,.16-.47,.18-.79,.57-.72,1.1,.06,.45,.49,.92,.98,.87,.32-.03,.64-.07,.96-.1,.52-.06,1.03-.42,1-1-.02-.5-.44-1.05-1-1-.29,.03-.58,.07-.85,.16-.47,.17-.79,.58-.72,1.1s.48,.81,.98,.87c.2,.02,.42-.01,.62-.06,.07-.02,.13-.03,.2-.05,.2-.06-.17,0,.05-.01l-.27-1.96-1.04,.2c-.49,.09-.78,.64-.72,1.1s.49,.92,.98,.87c.62-.07,1.2-.22,1.79-.43l-.53-1.93c-.16,.06-.32,.12-.48,.17-.07,.02-.15,.04-.23,.05,.18-.03-.04-.01-.1-.02v2c.59-.02,1.19-.09,1.77-.19,.52-.09,.85-.75,.7-1.23-.18-.55-.68-.8-1.23-.7h0Z"/>
    <path class="cls-8" d="M31.93,51.32c-.67-.46-1.63-.39-2.41-.44s-1.57-.11-2.35-.2c-.65-.07-1.18-.35-1.77-.63-.34-.16-.67-.33-1.01-.49-.28-.14-.6-.27-.79-.47-.88-.95-2.29,.47-1.41,1.41,.5,.54,1.26,.81,1.91,1.13,.71,.35,1.45,.79,2.24,.94s1.63,.19,2.45,.25c.41,.03,.81,.06,1.22,.09,.29,.02,.67-.03,.91,.14,.45,.31,1.11,.08,1.37-.36,.29-.5,.09-1.06-.36-1.37h0Z"/>
    <path class="cls-3" d="M20.49,51.73c1.93,0,1.93-3,0-3s-1.93,3,0,3h0Z"/>
    <path class="cls-3" d="M19.03,49.11c0,.15-.01,.3-.03,.45l.05-.4c-.07,.53-.2,1.05-.24,1.58,0,.21,.04,.4,.13,.58,.06,.19,.16,.35,.31,.48l.3,.23c.17,.11,.36,.17,.56,.18,.13,.04,.27,.04,.4,0,.2,0,.39-.07,.56-.18,.31-.2,.63-.52,.69-.9,.08-.48,.12-.95,.13-1.43,0-.36,.01-.72,.06-1.07l-.05,.4s.01-.08,.02-.13c.06-.2,.07-.4,.03-.6,0-.2-.07-.39-.18-.56-.18-.31-.54-.61-.9-.69-.38-.09-.81-.07-1.16,.15-.31,.2-.63,.52-.69,.9-.08,.48-.12,.95-.13,1.43,0,.36,0,.72-.06,1.07l.05-.4s-.01,.08-.02,.13l2.95,.4c0-.1,.02-.19,.03-.29l-.05,.4c.08-.58,.24-1.16,.24-1.75,0-.39-.17-.79-.44-1.06s-.69-.46-1.06-.44-.79,.14-1.06,.44-.44,.66-.44,1.06h0Z"/>
    <path class="cls-3" d="M21.74,51.12c.07-.15,.15-.3,.18-.46,.02-.09,.06-.34,.06-.49,0-.21-.05-.41-.08-.62l.05,.4c-.02-.12-.02-.24,0-.35l-.05,.4v-.02h-2.89s0,.02,0,.04l-.05-.4c.01,.09,0,.19,0,.28s0,.19,.02,.29c0,.21,.04,.4,.13,.58,.06,.19,.16,.35,.31,.48,.14,.15,.3,.25,.48,.31,.18,.09,.37,.14,.58,.13l.4-.05c.25-.07,.47-.2,.66-.39l.23-.3c.14-.23,.2-.49,.2-.76,.02-.28,.03-.56,.03-.84,0-.21-.04-.4-.13-.58-.06-.19-.16-.35-.31-.48-.14-.15-.3-.25-.48-.31-.18-.09-.37-.14-.58-.13l-.4,.05c-.25,.07-.47,.2-.66,.39l-.23,.3c-.14,.23-.2,.49-.2,.76,0,.28,0,.56-.03,.84h3c-.01-.1-.02-.21-.02-.32,0-.05,0-.1,0-.16,0-.18-.02-.36-.07-.53l-.15-.36c-.09-.17-.22-.32-.39-.42-.09-.09-.2-.16-.33-.19-.18-.09-.37-.14-.58-.13l-.4,.05-.36,.15c-.17,.09-.32,.22-.42,.39-.13,.14-.22,.31-.27,.51-.03,.21-.08,.44-.07,.66s.05,.43,.08,.64l-.05-.4c0,.06,.01,.13,0,.19l.05-.4s-.01,.05-.02,.08l.15-.36v.02c-.12,.17-.18,.36-.19,.56-.04,.2-.04,.4,.03,.6,.05,.2,.14,.37,.27,.51,.11,.16,.25,.29,.42,.39l.36,.15c.27,.07,.53,.07,.8,0l.36-.15c.23-.13,.4-.31,.54-.54h0Z"/>
    <path class="cls-3" d="M13.03,31.33l-.03-.62-2.95,.4c.13,.35,.22,.72,.27,1.09l-.05-.4s.01,.08,.01,.12c0,.21,.04,.4,.13,.58,.06,.19,.16,.35,.31,.48,.26,.26,.69,.46,1.06,.44s.79-.14,1.06-.44l.23-.3c.14-.23,.2-.49,.2-.76,.01-.2-.03-.39-.06-.59-.01-.08-.03-.15-.05-.22-.04-.15-.11-.3-.17-.45-.12-.31-.21-.63-.28-.95l-2.74,1.16c.06,.11,.12,.23,.17,.34l-.15-.36c.11,.27,.19,.55,.23,.84l-.05-.4c0,.08,.02,.15,.02,.23,0,.21,.04,.4,.13,.58,.06,.19,.16,.35,.31,.48l.3,.23c.17,.11,.36,.17,.56,.18,.13,.04,.27,.04,.4,0,.2,0,.39-.07,.56-.18l.3-.23c.19-.19,.31-.41,.39-.66,.06-.18,.09-.38,.08-.57,0-.15-.03-.32-.06-.47,0-.04-.02-.07-.03-.11-.04-.15-.09-.29-.13-.43-.08-.31-.14-.62-.19-.93l.05,.4v-.04c0-.21-.04-.4-.13-.58-.06-.19-.16-.35-.31-.48-.26-.26-.69-.46-1.06-.44s-.79,.14-1.06,.44l-.23,.3c-.14,.23-.2,.49-.2,.76,.05,.39,.1,.79,.2,1.17,.06,.26,.17,.51,.21,.77l-.05-.4s0,.07,0,.11l.05-.4s-.01,.07-.02,.1l2.95,.4c-.03-.38-.08-.76-.18-1.13s-.26-.71-.44-1.04c-.09-.17-.22-.32-.39-.42-.14-.13-.31-.22-.51-.27l-.4-.05c-.21,0-.4,.04-.58,.13-.13,.04-.24,.1-.33,.19-.16,.11-.29,.25-.39,.42l-.15,.36c-.07,.27-.07,.53,0,.8,.06,.28,.14,.56,.24,.84s.22,.51,.26,.79l-.05-.4c0,.06,0,.13,0,.19h3c-.06-.55-.15-1.08-.34-1.61-.05-.2-.14-.37-.27-.51-.11-.16-.25-.29-.42-.39l-.36-.15c-.2-.06-.4-.07-.6-.03-.14,0-.26,.03-.38,.1-.19,.06-.35,.16-.48,.31-.26,.28-.46,.66-.44,1.06l.03,.62c.02,.4,.15,.77,.44,1.06,.26,.26,.69,.46,1.06,.44s.79-.14,1.06-.44,.46-.66,.44-1.06h0Z"/>
    <path class="cls-3" d="M13.31,33.42c.02-.08,.05-.15,.06-.23,.03-.15,.05-.3,.06-.45,0-.02,0-.04,0-.06,0-.07-.02-.14-.03-.21,0-.07-.02-.14-.03-.21,0-.01,0-.02,0-.03,0-.02-.01-.04-.02-.06-.05-.2-.14-.37-.27-.51-.11-.16-.25-.29-.42-.39-.17-.11-.36-.17-.56-.18-.2-.04-.4-.04-.6,.03l-.36,.15c-.23,.13-.4,.31-.54,.54l-.15,.36c-.07,.27-.07,.53,0,.8,0,.03,.02,.07,.02,.1l-.05-.4s0,.06,0,.09l.05-.4c-.01,.09-.04,.17-.07,.25-.06,.2-.07,.4-.03,.6,0,.2,.07,.39,.18,.56,.09,.17,.22,.32,.39,.42,.14,.13,.31,.22,.51,.27l.4,.05c.27,0,.52-.07,.76-.2l.3-.23c.19-.19,.31-.41,.39-.66h0Z"/>
    <path class="cls-3" d="M13.02,33.52c.64,0,.64-1,0-1s-.64,1,0,1h0Z"/>
    <path class="cls-3" d="M13.36,32.71s-.04-.04-.05-.06l.08,.1s-.05-.07-.07-.11l.05,.12s-.03-.09-.04-.13l.02,.13s0-.03,0-.04c0-.07-.01-.13-.04-.19-.02-.06-.05-.12-.1-.16-.05-.05-.1-.08-.16-.1-.06-.03-.12-.05-.19-.04l-.13,.02c-.08,.02-.16,.07-.22,.13l-.08,.1c-.05,.08-.07,.16-.07,.25,0,.11,.03,.23,.09,.32,.04,.06,.09,.11,.13,.16l-.08-.1s.05,.07,.06,.11l-.05-.12s.01,.03,.02,.05c.02,.07,.05,.12,.09,.17,.04,.05,.08,.1,.14,.13,.06,.04,.12,.06,.19,.06,.07,.01,.13,.01,.2,0l.12-.05c.08-.04,.13-.1,.18-.18l.05-.12c.02-.09,.02-.18,0-.27-.02-.06-.05-.13-.07-.19-.01-.02-.02-.05-.04-.07-.03-.06-.07-.11-.13-.14-.05-.04-.1-.07-.17-.09-.07-.02-.13-.02-.2,0-.07,0-.13,.02-.19,.06l-.1,.08c-.06,.06-.1,.14-.13,.22l-.02,.13c0,.09,.02,.17,.07,.25,.01,.02,.03,.05,.04,.07l-.05-.12s.02,.04,.02,.06l.96-.27c-.02-.06-.05-.12-.07-.18,0-.02-.02-.04-.03-.06-.05-.07-.1-.13-.16-.2l.08,.1s-.01-.02-.02-.03l.05,.12s0-.02,0-.02l.02,.13s0,0,0-.01h-1c0,.06,.01,.12,.02,.18,0,.02,0,.03,0,.05s0,.03,.01,.05c.02,.06,.04,.11,.07,.16,.01,.03,.03,.06,.05,.09,.03,.05,.07,.09,.11,.14,.01,.01,.02,.03,.04,.04,.05,.05,.1,.08,.16,.1,.06,.03,.12,.05,.19,.04,.07,0,.13-.01,.19-.04,.06-.02,.12-.05,.16-.1l.08-.1c.05-.08,.07-.16,.07-.25l-.02-.13c-.02-.08-.07-.16-.13-.22h0Z"/>
    <path class="cls-3" d="M12.14,25.48c-.24,.57-.44,1.16-.58,1.76-.05,.21,.03,.46,.23,.56,.08,.04,.16,.06,.25,.07,.11,0,.28-.06,.35-.15,.23-.29,.41-.61,.52-.97,.1-.32,.14-.67,.11-1-.02-.25-.17-.46-.43-.49s-.47,.12-.55,.36c-.21,.6-.4,1.2-.43,1.84-.01,.26,.24,.51,.5,.5,.28-.01,.49-.22,.5-.5,0-.1,.01-.19,.03-.29l-.02,.13c.07-.49,.22-.95,.39-1.41l-.98-.13c.01,.16,0,.32-.01,.49l.02-.13c-.03,.2-.08,.38-.15,.57-.02,.06,.06-.12,.01-.03-.01,.02-.02,.04-.03,.06-.02,.04-.04,.08-.07,.13s-.05,.08-.08,.12c-.02,.03-.13,.18-.03,.05l.84,.49c.06-.28,.13-.55,.22-.82,.04-.13,.09-.27,.14-.4,.02-.06,.05-.12,.07-.18,.01-.03,.02-.06,.04-.09,0-.02,.02-.04,.02-.06-.03,.07-.03,.08-.01,.03,.06-.13,.09-.24,.05-.39-.03-.12-.12-.24-.23-.3-.12-.06-.26-.09-.39-.05-.11,.04-.25,.11-.3,.23h0Z"/>
    <path class="cls-3" d="M12.13,25.49c-.28,.64-.51,1.3-.68,1.99-.06,.25,.08,.55,.35,.62s.55-.08,.62-.35c.07-.31,.16-.62,.26-.93,.05-.15,.1-.3,.16-.45,.03-.08,.06-.15,.09-.23,0-.02,.05-.14,0-.01,.02-.04,.04-.09,.06-.13,.06-.13,.09-.25,.05-.39-.03-.12-.12-.24-.23-.3-.22-.11-.57-.08-.68,.18h0Z"/>
    <path class="cls-3" d="M12.86,27.11c.06-.46-.01-.93,.05-1.4l-.02,.13s.01-.1,.02-.14c.03-.13,.02-.26-.05-.39-.06-.1-.18-.2-.3-.23-.25-.06-.56,.07-.62,.35-.06,.29-.07,.59-.07,.89,0,.26,.01,.53-.02,.79-.02,.12,.07,.27,.15,.35,.09,.09,.23,.15,.35,.15s.26-.05,.35-.15l.08-.1c.05-.08,.07-.16,.07-.25h0Z"/>
    <path class="cls-3" d="M12.05,25.63l-.22,.87c-.03,.14-.07,.27-.1,.41-.02,.07-.04,.13-.06,.19,0,.03-.02,.06-.03,.09,0,.02-.01,.04-.02,.06,.03-.07,.04-.08,.01-.03-.06,.13-.09,.25-.05,.39,.03,.12,.12,.24,.23,.3,.22,.12,.57,.08,.68-.18,.13-.3,.21-.61,.29-.92l.23-.9c.06-.25-.08-.55-.35-.62s-.55,.08-.62,.35h0Z"/>
    <path class="cls-3" d="M20.13,54.65c6.01,2.73,12.78,2.8,18.84,.22,.75-.32,.91-1.42,.54-2.05-.45-.77-1.3-.86-2.05-.54-4.98,2.11-10.9,2.02-15.82-.22-.74-.34-1.61-.21-2.05,.54-.38,.64-.2,1.72,.54,2.05h0Z"/>
    <path class="cls-8" d="M41.33,36.74c-.23,.5-.33,.98-.46,1.51-.12,.48-.19,.62-.45,1.08-.5,.87-1.14,1.67-1.74,2.47-1.19,1.59-2.42,3.15-3.94,4.51-.61,.54-.55,1.57,0,2.12,.6,.6,1.51,.54,2.12,0,1.65-1.47,2.99-3.2,4.3-4.97,.6-.81,1.25-1.61,1.77-2.48,.28-.46,.5-.96,.69-1.47,.08-.23,.15-.47,.2-.71,.03-.13,.05-.26,.08-.39,0-.04,.11-.34,.03-.16,.33-.74,.21-1.61-.54-2.05-.64-.38-1.72-.2-2.05,.54h0Z"/>
    <path class="cls-8" d="M41.96,34.3c-.27,.64-.43,1.19-.48,1.89-.05,.74,.61,1.38,1.3,1.47,.74,.1,1.43-.35,1.65-1.07l.19-.65c.03-.09,.06-.19,.08-.28,.04-.11,0-.05-.09,.19-.18,.19-.21,.24-.1,.15l-2.56-1.06c0,.17,.02,.12,.04-.12-.01,.06-.03,.12-.05,.18-.04,.12-.09,.24-.13,.36-.11,.32-.14,.67-.17,1.01,0,.07,0,.14-.02,.22,.03-.22,.04-.26,0-.1-.03,.09-.05,.19-.08,.29-.03,.08-.07,.32-.14,.37,.09-.21,.1-.23,.03-.08-.02,.05-.04,.1-.06,.14-.42,.94-.91,1.84-1.46,2.7-.42,.66-.16,1.68,.54,2.05,.77,.41,1.57,.15,2.05-.54,.64-.92,1.05-1.99,1.51-3.01,.17-.38,.27-.74,.15-1.16-.1-.35-.36-.73-.69-.9-.66-.35-1.71-.22-2.05,.54-.46,1.01-.87,2.09-1.51,3.01l2.59,1.51c.59-.92,1.11-1.89,1.55-2.89,.3-.69,.51-1.3,.58-2.06,0-.07,0-.14,.02-.22-.04,.22-.04,.24,0,.08,.04-.12,.08-.24,.13-.36,.12-.33,.21-.68,.18-1.03-.05-.61-.34-1.12-.92-1.37s-1.15-.07-1.64,.31c-.55,.43-.67,1.29-.86,1.92l2.95,.4c0-.06,.03-.35,0-.09s.02-.05,.03-.09c.03-.12,.21-.6,.04-.2,.17-.39,.27-.73,.15-1.16-.1-.35-.36-.73-.69-.9-.35-.18-.77-.28-1.16-.15-.34,.11-.75,.34-.9,.69h0Z"/>
    <path class="cls-8" d="M36.83,48.68c.24-.12,.47-.29,.64-.5,.52-.62,.61-1.51,0-2.12s-1.53-.56-2.12,0l.04-.04,1.82,2.36c.91-.72,1.62-1.77,2.37-2.65,.81-.95,1.6-1.9,2.3-2.93s1.47-2.04,1.93-3.21c.41-1.04,1.06-1.98,1.41-3.06,.25-.77-.29-1.64-1.05-1.85-.81-.22-1.6,.27-1.85,1.05-.14,.43-.36,.8-.58,1.2-.28,.51-.51,1.04-.72,1.59-.39,.99-1.14,1.89-1.73,2.77s-1.24,1.63-1.91,2.41c-.73,.85-1.41,1.87-2.3,2.57-.58,.46-.54,1.44-.12,1.97,.46,.58,1.28,.77,1.94,.39,.21-.12,.39-.27,.56-.43l-2.12-2.12c.14-.05,.13-.05-.04,.03-.73,.35-.92,1.4-.54,2.05,.44,.75,1.32,.89,2.05,.54h0Z"/>
    <path class="cls-8" d="M35.18,46.98s0,.03,0,.05l.05-.4s-.01,.05-.02,.08l.15-.36s-.02,.05-.04,.07l.23-.3s-.03,.04-.05,.05l.3-.23s-.04,.03-.07,.04l.36-.15s-.02,0-.02,0c-.2,.05-.37,.14-.51,.27-.16,.11-.29,.25-.39,.42-.11,.17-.17,.36-.18,.56-.04,.2-.04,.4,.03,.6l.15,.36c.13,.23,.31,.4,.54,.54l.36,.15c.27,.07,.53,.07,.8,0,.14-.04,.27-.1,.4-.17,.02,0,.03-.02,.04-.03,.05-.04,.1-.08,.16-.12,.05-.04,.1-.08,.16-.12,0,0,0,0,0,0,0,0,.01-.01,.02-.02,.1-.1,.18-.22,.26-.34,0-.01,.02-.03,.03-.04,.06-.13,.13-.26,.17-.4,0-.02,0-.03,.01-.05,.02-.14,.05-.28,.06-.42,0,0,0-.02,0-.03,0-.21-.04-.4-.13-.58-.06-.19-.16-.35-.31-.48-.14-.15-.3-.25-.48-.31-.18-.09-.37-.14-.58-.13l-.4,.05c-.25,.07-.47,.2-.66,.39l-.23,.3c-.14,.23-.2,.49-.2,.76h0Z"/>
    <path class="cls-8" d="M36.4,48.93c1.93,0,1.93-3,0-3s-1.93,3,0,3h0Z"/>
    <path class="cls-8" d="M36.35,48.86c1.93,0,1.93-3,0-3s-1.93,3,0,3h0Z"/>
    <path class="cls-8" d="M37.65,47.89s.05-.04,.07-.06l-.3,.23c.06-.04,.12-.08,.19-.11l-.36,.15h.03c-.62-.63-1.23-1.24-1.85-1.86l-.07,.21-.05,.4,.05,.4,.15,.36c.09,.17,.22,.32,.39,.42,.09,.09,.2,.16,.33,.19,.12,.07,.24,.1,.38,.1,.13,.04,.27,.04,.4,0,.2,0,.39-.07,.56-.18,.24-.18,.48-.35,.68-.57s.36-.47,.53-.7l-.23,.3c.11-.14,.25-.24,.36-.37,.18-.21,.34-.44,.51-.66l-.23,.3c.07-.09,.15-.18,.25-.26l-.3,.23s.04-.03,.07-.05c.33-.21,.58-.52,.69-.9,.06-.2,.07-.4,.03-.6,0-.2-.07-.39-.18-.56-.21-.32-.51-.6-.9-.69s-.82-.07-1.16,.15c-.21,.14-.42,.3-.59,.5s-.31,.41-.47,.62l.23-.3c-.1,.13-.21,.23-.33,.34-.2,.2-.35,.45-.52,.67l.23-.3c-.14,.18-.29,.33-.47,.47l.3-.23-.03,.02,2.2,1.69,.07-.21c.16-.5-.02-1.1-.39-1.46-.19-.19-.41-.31-.66-.39-.27-.07-.53-.07-.8,0-.17,.07-.35,.13-.51,.23s-.3,.22-.44,.34c-.15,.14-.25,.3-.31,.48-.09,.18-.14,.37-.13,.58,0,.21,.04,.4,.13,.58,.06,.19,.16,.35,.31,.48,.29,.26,.66,.46,1.06,.44l.4-.05c.25-.07,.47-.2,.66-.39h0Z"/>
    <path class="cls-8" d="M5,47.46c-.09-.23-.17-.43-.31-.63-.07-.1-.14-.2-.19-.32l.15,.36c-.03-.09-.05-.18-.07-.28l.05,.4c-.04-.33-.04-.66-.12-.98s-.26-.61-.39-.91l.15,.36c-.05-.12-.08-.24-.09-.37l.05,.4c-.03-.32,0-.62-.08-.95-.04-.2-.13-.39-.2-.58l-2.51,1.46s.05,.05,.07,.08l-.23-.3c.05,.07,.1,.14,.13,.22l-.15-.36c.03,.09,.06,.17,.07,.27l-.05-.4c.03,.38,0,.74,.07,1.13s.28,.67,.44,1l-.15-.36c.04,.1,.07,.21,.09,.32,.04,.22,.12,.41,.22,.62,.08,.17,.21,.32,.29,.49l-.15-.36s.03,.09,.04,.15c.07,.35,.38,.72,.69,.9,.32,.19,.8,.27,1.16,.15s.71-.34,.9-.69c.2-.37,.24-.74,.15-1.16-.05-.23-.16-.46-.29-.66-.07-.11-.15-.22-.21-.34l.15,.36c-.07-.18-.08-.37-.14-.55-.11-.29-.26-.52-.39-.79l.15,.36c-.03-.08-.05-.15-.07-.23l.05,.4c-.02-.14-.01-.28-.01-.43,0-.25-.02-.49-.07-.73-.08-.45-.34-.88-.65-1.2-.44-.46-1.27-.59-1.82-.23-.22,.14-.4,.32-.54,.54-.19,.29-.28,.83-.15,1.16,.08,.2,.17,.4,.21,.61l-.05-.4c.02,.13,0,.26,.01,.39,0,.23,.04,.46,.09,.68,.08,.34,.26,.64,.4,.95l-.15-.36c.04,.11,.07,.22,.09,.34l-.05-.4c.04,.36,.04,.74,.16,1.09,.07,.2,.16,.41,.28,.59,.07,.1,.14,.2,.2,.31l-.15-.36,.02,.05c.15,.38,.33,.68,.69,.9,.32,.19,.8,.27,1.16,.15s.71-.34,.9-.69,.3-.79,.15-1.16h0Z"/>
    <path class="cls-8" d="M4.66,46.88l.03-.87-2.95,.4,.12,.84,2.51-1.46s-.02-.03-.04-.04l.23,.3s-.05-.08-.07-.12l.15,.36c-.07-.17-.08-.35-.11-.52-.05-.31-.21-.6-.33-.88l.15,.36c-.04-.1-.07-.2-.09-.3l.05,.4c0-.05,0-.1,0-.15l-.05,.4s.01-.08,.03-.12l-.15,.36s.02-.04,.03-.05c.11-.17,.17-.36,.18-.56,.04-.2,.04-.4-.03-.6-.05-.2-.14-.37-.27-.51-.11-.16-.25-.29-.42-.39-.35-.18-.77-.28-1.16-.15-.36,.12-.72,.34-.9,.69-.17,.33-.23,.56-.26,.93-.01,.2,.03,.4,.06,.6,.01,.08,.04,.15,.07,.22,.08,.19,.16,.38,.24,.57l-.15-.36c.08,.19,.11,.38,.14,.58,.01,.09,.03,.18,.06,.26,.06,.15,.12,.32,.2,.46s.2,.28,.31,.4l.3,.23c.17,.11,.36,.17,.56,.18,.13,.04,.27,.04,.4,0,.2,0,.39-.07,.56-.18,.22-.14,.4-.32,.54-.54,.11-.17,.17-.36,.18-.56,.04-.2,.04-.4-.03-.6l-.12-.84c-.05-.2-.14-.37-.27-.51-.11-.16-.25-.29-.42-.39l-.36-.15c-.2-.06-.4-.07-.6-.03-.14,0-.26,.03-.38,.1-.19,.06-.35,.16-.48,.31-.27,.3-.43,.65-.44,1.06l-.03,.87c0,.21,.04,.4,.13,.58,.06,.19,.16,.35,.31,.48,.14,.15,.3,.25,.48,.31,.18,.09,.37,.14,.58,.13,.39-.02,.79-.14,1.06-.44s.43-.65,.44-1.06h0Z"/>
    <path class="cls-8" d="M4.63,46.09c-.02-.24-.05-.49-.11-.73-.03-.11-.06-.22-.07-.34l.05,.4s0-.09-.01-.13c0-.21-.04-.4-.13-.58-.06-.19-.16-.35-.31-.48-.14-.15-.3-.25-.48-.31-.18-.09-.37-.14-.58-.13l-.4,.05c-.25,.07-.47,.2-.66,.39l-.23,.3c-.14,.23-.2,.49-.2,.76,0,.19,.04,.38,.07,.57,0,.06,.02,.12,.04,.18,.03,.12,.06,.24,.08,.36l-.05-.4s0,.06,0,.09c0,.21,.04,.4,.13,.58,.06,.19,.16,.35,.31,.48,.14,.15,.3,.25,.48,.31,.18,.09,.37,.14,.58,.13l.4-.05c.25-.07,.47-.2,.66-.39l.23-.3c.14-.23,.2-.49,.2-.76h0Z"/>
    <path class="cls-8" d="M56.15,43.7c-.24,.35-.39,.75-.54,1.14l.15-.36s-.04,.08-.07,.12l.23-.3s-.08,.08-.12,.12c-.12,.12-.24,.27-.33,.4-.13,.2-.2,.44-.29,.66-.1,.27-.2,.53-.29,.8-.06,.2-.07,.4-.03,.6,0,.2,.07,.39,.18,.56,.18,.31,.54,.61,.9,.69,.38,.09,.81,.07,1.16-.15l.3-.23c.19-.19,.31-.41,.39-.66,.12-.32,.23-.65,.36-.97l-.15,.36s.04-.09,.07-.13l-.23,.3s.08-.08,.12-.12c.13-.12,.25-.27,.34-.42,.13-.21,.2-.45,.29-.68l-.15,.36c.09-.2,.19-.39,.31-.57,.11-.17,.17-.36,.18-.56,.04-.2,.04-.4-.03-.6-.1-.35-.36-.73-.69-.9-.35-.18-.77-.28-1.16-.15l-.36,.15c-.23,.13-.4,.31-.54,.54h0Z"/>
    <path class="cls-8" d="M57.58,47.68c.39-.51,.65-1.1,.87-1.7,.18-.5,.31-1.01,.42-1.53l-2.95-.4s0,.06,0,.09l.05-.4c-.01,.08-.03,.15-.06,.23l.15-.36c-.12,.27-.26,.53-.39,.79-.18,.36-.26,.76-.15,1.16,.1,.35,.36,.73,.69,.9,.35,.18,.77,.28,1.16,.15,.36-.12,.72-.34,.9-.69,.3-.59,.68-1.19,.67-1.87,0-.37-.16-.8-.44-1.06-.25-.23-.53-.37-.86-.41s-.68,0-.96,.18c-.32,.2-.61,.51-.69,.9-.13,.62-.29,1.24-.53,1.82l.15-.36c-.16,.37-.35,.72-.6,1.04-.22,.29-.24,.83-.15,1.16,.1,.35,.36,.73,.69,.9,.35,.18,.77,.28,1.16,.15l.36-.15c.23-.13,.4-.31,.54-.54h0Z"/>
    <path class="cls-3" d="M6.53,33.77c1.93,0,1.93-3,0-3s-1.93,3,0,3h0Z"/>
    <path class="cls-3" d="M6.66,34.25c1.93,0,1.93-3,0-3s-1.93,3,0,3h0Z"/>
    <path class="cls-3" d="M53.61,34.03c1.93,0,1.93-3,0-3s-1.93,3,0,3h0Z"/>
    <path class="cls-3" d="M12.77,22.59c.04,3.29-1.19,6.63,.22,9.8,.26,.59,1.12,.08,.86-.5-1.3-2.93-.05-6.25-.09-9.29,0-.64-1.01-.64-1,0h0Z"/>
    <path class="cls-3" d="M12.94,20.65c.26,.7,.03,1.42-.25,2.08-.32,.75-.67,1.47-.75,2.29-.03,.27,.25,.5,.5,.5,.29,0,.47-.23,.5-.5,.08-.78,.5-1.48,.79-2.19,.3-.76,.48-1.65,.18-2.44-.1-.25-.34-.43-.62-.35-.24,.07-.45,.36-.35,.62h0Z"/>
    <path class="cls-3" d="M12.69,25.11c.68-1.4,1.28-2.84,1.8-4.31,.09-.26-.1-.55-.35-.62-.28-.08-.53,.09-.62,.35-.48,1.39-1.05,2.75-1.69,4.07-.12,.24-.07,.54,.18,.68,.22,.13,.57,.06,.68-.18h0Z"/>
    <path class="cls-3" d="M13.26,25.53c.38-1.98,.46-3.99,.22-5.99-.03-.27-.21-.5-.5-.5-.24,0-.53,.23-.5,.5,.23,1.91,.18,3.84-.18,5.72-.12,.63,.84,.9,.96,.27h0Z"/>
    <path class="cls-3" d="M13.49,25.29l.75-3.68c.05-.26-.08-.54-.35-.62-.25-.07-.56,.08-.62,.35l-.75,3.68c-.05,.26,.08,.54,.35,.62,.25,.07,.56-.08,.62-.35h0Z"/>
    <path class="cls-3" d="M11.47,33.46c.38,.06,.76,.05,1.14-.05s.7-.29,1-.53c.09-.08,.15-.24,.15-.35,0-.12-.05-.27-.15-.35s-.22-.15-.35-.15c-.14,0-.24,.06-.35,.15-.08,.06,.1-.07,.02-.01-.01,.01-.03,.02-.04,.03-.04,.03-.08,.05-.12,.08-.08,.05-.16,.09-.25,.13l.12-.05c-.18,.08-.37,.13-.57,.16l.13-.02c-.19,.02-.37,.02-.56,0l.13,.02h-.03c-.14-.02-.26-.03-.39,.05-.1,.06-.2,.18-.23,.3-.03,.13-.02,.27,.05,.39,.07,.1,.17,.21,.3,.23h0Z"/>
    <path class="cls-3" d="M12.9,32.36v.38c0,.07,.01,.13,.04,.19,.02,.06,.05,.12,.1,.16,.05,.05,.1,.08,.16,.1,.06,.03,.12,.05,.19,.04l.13-.02c.08-.02,.16-.07,.22-.13l.08-.1c.05-.08,.07-.16,.07-.25v-.38c0-.07-.01-.13-.04-.19-.02-.06-.05-.12-.1-.16-.05-.05-.1-.08-.16-.1-.06-.03-.12-.05-.19-.04l-.13,.02c-.08,.02-.16,.07-.22,.13l-.08,.1c-.05,.08-.07,.16-.07,.25h0Z"/>
    <path class="cls-3" d="M13.03,33.46s.1,0,.15,0c.09-.01,.18-.02,.27-.05,.07-.02,.12-.05,.17-.09,.05-.04,.1-.08,.13-.14,.04-.06,.06-.12,.06-.19,.01-.07,.01-.13,0-.2l-.05-.12c-.04-.08-.1-.13-.18-.18l-.12-.05c-.09-.02-.18-.02-.27,0-.05,.01-.09,.02-.14,.03l.13-.02s-.1,0-.15,0c-.07,0-.13,.01-.19,.04-.06,.02-.12,.05-.16,.1-.05,.05-.08,.1-.1,.16-.03,.06-.05,.12-.04,.19l.02,.13c.02,.08,.07,.16,.13,.22l.1,.08c.08,.05,.16,.07,.25,.07h0Z"/>
    <path class="cls-3" d="M13.11,33.95c.04-.07,.08-.13,.13-.19l-.08,.1c.05-.06,.1-.12,.16-.17l-.1,.08c.13-.1,.28-.18,.39-.3,.17-.17,.27-.38,.28-.62,0-.13-.06-.27-.15-.35s-.23-.15-.35-.15-.26,.05-.35,.15-.14,.22-.15,.35c0,.01,0,.03,0,.04l.02-.13s-.01,.05-.02,.07l.05-.12s-.04,.07-.06,.1l.08-.1s-.07,.08-.11,.11l.1-.08c-.13,.1-.28,.18-.4,.3s-.21,.26-.3,.4c-.07,.11-.08,.26-.05,.39s.12,.24,.23,.3c.12,.06,.26,.09,.39,.05s.23-.12,.3-.23h0Z"/>
    <path class="cls-8" d="M27.41,47.86c.03,1.08,.32,2.16,.88,3.09,.27,.46,.76,.74,1.3,.74,.27,0,.52-.07,.76-.2,.23-.13,.4-.31,.54-.54,.07-.16,.16-.32,.19-.49s.07-.36,.07-.53c-.01-.38-.11-.68-.27-1.02s-.56-.6-.9-.69c-.36-.1-.84-.05-1.16,.15s-.6,.51-.69,.9l-.05,.4c0,.27,.07,.52,.2,.76l.02,.03-.15-.36s.03,.1,.04,.15l-.05-.4c0,.05,0,.1,0,.15l.05-.4c0,.05-.02,.1-.04,.15l.15-.36-.02,.04h2.59c-.11-.19-.21-.38-.3-.58l.15,.36c-.16-.39-.28-.8-.33-1.22l.05,.4c-.02-.18-.04-.35-.04-.53,0-.39-.16-.78-.44-1.06-.26-.26-.69-.46-1.06-.44s-.79,.14-1.06,.44-.45,.66-.44,1.06h0Z"/>
    <path class="cls-3" d="M37.92,48.72c-2.02,2.41-5.3,2.93-8.28,2.93s-6.07-.76-7.93-3.18c-.39-.5-1.26,0-.86,.5,2.05,2.65,5.32,3.63,8.56,3.67s6.99-.56,9.21-3.22c.41-.49-.29-1.2-.71-.71h0Z"/>
    <path class="cls-3" d="M21.58,48.06s-.01,.03-.02,.05l.05-.12c-.03,.06-.06,.12-.1,.18l.08-.1c-.04,.05-.09,.1-.15,.14l.1-.08s-.05,.03-.07,.05l.68,.68s.02-.04,.04-.06l-.08,.1s.06-.06,.09-.09l-.1,.08s.07-.05,.1-.07c.07-.05,.13-.1,.2-.15,.11-.09,.19-.19,.27-.31,.04-.06,.06-.12,.06-.19,.01-.07,.01-.13,0-.2-.02-.07-.05-.12-.09-.17-.04-.05-.08-.1-.14-.13-.12-.06-.26-.09-.39-.05l-.12,.05c-.08,.04-.13,.1-.18,.18-.01,.01-.02,.03-.03,.04l.08-.1c-.08,.1-.17,.19-.27,.27l.1-.08s-.07,.05-.1,.07c-.06,.03-.11,.07-.14,.13-.04,.05-.07,.1-.09,.17-.02,.07-.02,.13,0,.2,0,.07,.02,.13,.06,.19,.07,.11,.17,.2,.3,.23l.13,.02c.09,0,.17-.02,.25-.07,.07-.05,.14-.1,.21-.16,.04-.03,.08-.06,.11-.1,.1-.09,.18-.2,.26-.31l-.86-.5s-.02,.03-.03,.04l.08-.1c-.05,.06-.1,.12-.17,.17l.1-.08c-.06,.05-.13,.09-.19,.14s-.13,.09-.18,.15c-.04,.04-.07,.09-.11,.14-.01,.02-.02,.03-.03,.05l-.05,.12c-.02,.07-.02,.13,0,.2,0,.05,.01,.09,.03,.13,.02,.06,.05,.12,.1,.16l.1,.08,.12,.05c.07,.02,.13,.02,.2,0,.07,0,.13-.02,.19-.06,.07-.05,.14-.1,.21-.16,.04-.03,.07-.07,.1-.1,.05-.07,.11-.13,.15-.21s.08-.16,.11-.25c.02-.07,.02-.13,0-.2,0-.07-.02-.13-.06-.19-.03-.06-.07-.11-.13-.14-.05-.04-.1-.07-.17-.09l-.13-.02c-.09,0-.17,.02-.25,.07l-.1,.08c-.06,.06-.1,.14-.13,.22h0Z"/>
    <path class="cls-3" d="M38.03,48.79c.43-.39,.84-.79,1.19-1.25,.33-.43,.73-.75,1.09-1.14s.68-.82,1.09-1.18c.22-.19,.4-.38,.57-.61,.14-.19,.27-.37,.45-.53,.21-.18,.18-.53,0-.71-.2-.2-.5-.18-.71,0s-.36,.39-.52,.61c-.15,.2-.31,.36-.5,.53-.41,.35-.73,.78-1.09,1.18-.18,.19-.38,.36-.57,.54-.22,.2-.4,.43-.58,.67-.34,.44-.73,.82-1.14,1.19-.48,.43,.23,1.14,.71,.71h0Z"/>
    <path class="cls-3" d="M21.26,47.78c-.06,.15-.05,.35,0,.5,.05,.17,.14,.29,.25,.43,.02,.02,.03,.04,.05,.06-.02-.03-.06-.08-.02-.02,.03,.04,.05,.08,.07,.11,.04,.08,.08,.16,.12,.25l-.05-.12c.14,.34,.27,.7,.55,.96,.19,.17,.45,.2,.66,.04s.24-.42,.13-.65c-.08-.16-.15-.32-.22-.49l.05,.12c-.11-.26-.21-.53-.29-.8l-.91,.39c.19,.3,.36,.61,.5,.93l-.05-.12c.04,.1,.08,.21,.12,.31,.08,.24,.29,.39,.55,.36,.22-.03,.46-.24,.43-.49-.06-.53-.12-1.06-.4-1.52-.13-.23-.46-.33-.68-.18s-.32,.44-.18,.68c.04,.07,.07,.13,.1,.2l-.05-.12c.1,.24,.15,.5,.19,.75l-.02-.13c.01,.11,.03,.21,.04,.32l.98-.13c-.17-.48-.39-.94-.67-1.36-.14-.21-.39-.3-.62-.2-.22,.09-.36,.35-.29,.59,.15,.48,.34,.95,.56,1.4l.79-.61s-.07-.07-.1-.1c.05,.07,.06,.08,.03,.04v-.02s-.04-.05-.06-.07c-.05-.09-.09-.18-.13-.28l.05,.12c-.08-.18-.15-.37-.24-.55-.05-.09-.1-.17-.16-.24-.03-.03-.05-.06-.08-.1-.06-.08,.05,.07,.02,.02-.03-.05-.06-.09-.08-.14l.05,.12s-.02-.07-.03-.11l.02,.13s0-.05,0-.08l-.02,.13s.01-.05,.02-.08c.05-.11,0-.29-.05-.39-.06-.1-.18-.2-.3-.23-.13-.03-.27-.02-.39,.05s-.18,.17-.23,.3h0Z"/>
    <path class="cls-3" d="M37.23,47.95c-.06,.19-.08,.39-.11,.59-.01,.09-.03,.19-.05,.28,0,.02-.01,.05-.02,.07,0,.01-.04,.1,0,.02s0,0-.01,.02c-.01,.03-.03,.05-.04,.08l.91,.39c.1-.33,.2-.66,.31-.98,.03-.07,.05-.15,.08-.22,.02-.05,.02-.04-.01,.03,0-.02,.02-.04,.02-.06,.01-.03,.03-.06,.05-.1,.03-.07,.07-.13,.11-.2,.02-.03,.05-.07,.07-.1,.03-.04,.02-.03-.02,.03,.01-.02,.03-.03,.04-.05,.17-.2,.21-.52,0-.71-.19-.17-.52-.21-.71,0-.5,.58-.68,1.35-.9,2.07-.07,.24,.07,.5,.29,.59s.49,0,.62-.2,.19-.44,.23-.68c.03-.21,.05-.42,.12-.62,.08-.25-.1-.56-.35-.62-.28-.06-.53,.08-.62,.35h0Z"/>
    <path class="cls-3" d="M44.76,36.41c-.83,2.04-1.54,4.22-2.73,6.08-.55,.87-1.24,1.65-1.99,2.36-.69,.65-1.56,1.16-2.05,1.99-.33,.55,.53,1.06,.86,.5,.25-.42,.63-.71,1-1.01,.4-.32,.79-.67,1.15-1.03,.75-.74,1.43-1.57,1.98-2.47,1.17-1.9,1.89-4.1,2.73-6.16,.24-.6-.72-.85-.96-.27h0Z"/>
    <path class="cls-3" d="M37.84,49.52c0-.09,0-.18-.02-.26,0-.04-.02-.09-.04-.13-.02-.07-.05-.12-.09-.17-.04-.05-.08-.1-.14-.13-.06-.04-.12-.06-.19-.06-.07-.01-.13-.01-.2,0l-.12,.05c-.08,.04-.13,.1-.18,.18l-.05,.12c-.02,.09-.02,.18,0,.27,.02,.05,.03,.09,.04,.14l-.02-.13s0,.08,0,.12c0,.07,.01,.13,.04,.19,.02,.06,.05,.12,.1,.16,.05,.05,.1,.08,.16,.1,.06,.03,.12,.05,.19,.04l.13-.02c.08-.02,.16-.07,.22-.13l.08-.1c.05-.08,.07-.16,.07-.25h0Z"/>
    <path class="cls-3" d="M37.9,47.02c-.16,.15-.32,.31-.48,.46-.19,.18-.31,.37-.38,.63-.06,.2-.1,.41-.15,.62-.05,.23-.1,.47-.1,.71,0,.26,.23,.51,.5,.5,.3-.01,.47-.22,.5-.5-.02,.14,.01-.02,.02-.05,.01-.04,.02-.07,.04-.11-.06,.11,0,0,.01-.02,.02-.05,.05-.09,.07-.14,.09-.19,.16-.38,.22-.58,.03-.09,.05-.17,.09-.26,0-.02,.01-.04,.02-.06-.02,.06-.02,.06,0,0,.02-.04,.03-.08,.05-.11,.08-.17,.18-.34,.27-.51l-.86-.5s-.02,.04-.03,.06c.04-.05,.05-.07,.03-.04-.03,.02-.05,.05-.07,.07-.06,.05-.11,.09-.16,.15-.15,.16-.25,.34-.31,.55-.07,.24,.07,.5,.29,.59s.52,.02,.62-.2c0-.02,.02-.04,.03-.06,.03-.04,.02-.04-.02,.02,.02-.02,.05-.06,.07-.08,.08-.08,.15-.16,.21-.25,.05-.07,.08-.14,.12-.22,0-.01,.04-.1,.05-.09-.05,.06-.05,.06-.02,.02-.03,.03-.07,.05-.11,.06,.25-.09,.44-.34,.35-.62-.08-.24-.35-.44-.62-.35-.17,.06-.3,.15-.41,.29-.07,.1-.11,.2-.17,.31,0,0-.04,.05-.04,.06,0-.01,.07-.08,.02-.02-.03,.03-.06,.07-.09,.1-.09,.1-.18,.2-.23,.32l.91,.39s.01-.04,.02-.07l-.02,.06s.04-.08,.05-.09c.05-.09-.07,.07,0,0,.02-.02,.05-.05,.07-.07,.12-.11,.25-.21,.33-.37,.11-.24,.07-.55-.18-.68-.23-.12-.55-.07-.68,.18-.21,.38-.4,.76-.53,1.17-.02,.08-.04,.21-.09,.28,.03-.06,.03-.06,0-.01-.01,.02-.02,.05-.03,.07-.02,.04-.03,.07-.05,.1-.12,.24-.19,.46-.23,.72h1c0-.06,0-.11,0-.17,0-.11-.02,.08,0-.03,.02-.1,.04-.19,.06-.29,.04-.18,.08-.36,.13-.54,.01-.04,.02-.08,.04-.12,.02-.05,.02-.05,0,0,.03-.04,.03-.05,0-.01-.03,.03-.03,.03,0,0,.02-.02,.03-.03,.05-.05,.03-.03,.06-.06,.09-.08l.45-.43c.19-.18,.2-.53,0-.71s-.51-.19-.71,0h0Z"/>
    <path class="cls-3" d="M38.34,46.68s-.01,0-.02,0l.12-.05s-.01,0-.02,0l.13-.02s-.02,0-.03,0l.13,.02s-.06-.02-.09-.03c-.02,0-.03-.01-.05-.01-.02,0-.05,0-.08-.01s-.05,0-.08,0c0,0-.02,0-.03,0-.07,0-.13,.01-.19,.04-.06,.02-.12,.05-.16,.1-.05,.05-.08,.1-.1,.16-.03,.06-.05,.12-.04,.19l.02,.13c.02,.08,.07,.16,.13,.22l.1,.08c.08,.05,.16,.07,.25,.07,.01,0,.02,0,.04,0l-.13-.02s.08,.03,.12,.04c.05,.01,.12,.02,.16,.02,0,0,.02,0,.03,0,.05,0,.11,0,.16-.02s.1-.03,.14-.06c.06-.03,.11-.07,.14-.13,.04-.05,.07-.1,.09-.17,.02-.07,.02-.13,0-.2,0-.07-.02-.13-.06-.19l-.08-.1c-.06-.06-.14-.1-.22-.13l-.13-.02c-.09,0-.17,.02-.25,.07h0Z"/>
    <path class="cls-3" d="M38.94,47.1v-.11c0-.07-.01-.13-.04-.19-.02-.06-.05-.12-.1-.16-.05-.05-.1-.08-.16-.1-.06-.03-.12-.05-.19-.04l-.13,.02c-.08,.02-.16,.07-.22,.13l-.08,.1c-.05,.08-.07,.16-.07,.25v.11c0,.07,.01,.13,.04,.19,.02,.06,.05,.12,.1,.16,.05,.05,.1,.08,.16,.1,.06,.03,.12,.05,.19,.04l.13-.02c.08-.02,.16-.07,.22-.13l.08-.1c.05-.08,.07-.16,.07-.25h0Z"/>
    <path class="cls-3" d="M38.41,47.29c-.05-.05-.11-.09-.16-.13-.02-.02-.05-.03-.07-.05-.06-.04-.12-.06-.19-.06-.07-.01-.13-.01-.2,0-.07,.02-.12,.05-.17,.09-.05,.04-.1,.08-.13,.14l-.05,.12c-.02,.09-.02,.18,0,.27l.05,.12c.04,.08,.1,.13,.18,.18,.03,.01,.05,.03,.08,.05l-.1-.08s.04,.03,.06,.05c.05,.05,.1,.08,.16,.1,.06,.03,.12,.05,.19,.04,.07,0,.13-.01,.19-.04,.06-.02,.12-.05,.16-.1l.08-.1c.05-.08,.07-.16,.07-.25l-.02-.13c-.02-.08-.07-.16-.13-.22h0Z"/>
    <path class="cls-3" d="M38.5,47.51v-.1c.01-.07,0-.13-.03-.19-.02-.06-.05-.12-.1-.16-.05-.05-.1-.08-.16-.1-.06-.03-.12-.05-.19-.04l-.13,.02c-.08,.02-.16,.07-.22,.13l-.08,.1c-.05,.08-.07,.16-.07,.25v.1c-.01,.07,0,.13,.03,.19,.02,.06,.05,.12,.1,.16,.05,.05,.1,.08,.16,.1,.06,.03,.12,.05,.19,.04l.13-.02c.08-.02,.16-.07,.22-.13l.08-.1c.05-.08,.07-.16,.07-.25h0Z"/>
    <path class="cls-3" d="M47.99,33.8c-.17-1.17-.11-2.37-.18-3.54-.06-1.08-.16-2.15-.31-3.22-.3-2.17-.81-4.32-1.6-6.37-.71-1.85-1.62-3.62-2.78-5.22-1.06-1.48-2.36-3.19-4.24-3.6-.63-.14-.9,.83-.27,.96,1.84,.4,3.15,2.36,4.12,3.83,1.04,1.58,1.87,3.3,2.49,5.08,.69,1.99,1.14,4.06,1.38,6.15s.12,4.14,.41,6.18c.09,.63,1.05,.36,.96-.27h0Z"/>
    <path class="cls-3" d="M12.62,34.46c.52-.28,.9-.74,1.12-1.29,.23-.6,.17-1.27-.09-1.85-.11-.24-.47-.31-.68-.18-.25,.16-.29,.43-.18,.68-.02-.04-.02-.05,0,0,0,.03,.02,.05,.03,.08,.02,.05,.03,.11,.04,.16,0,.03,.01,.06,.02,.08,.03,.13,0-.06,0,.01,0,.06,0,.11,0,.17s0,.11,0,.17c0,.01,0,.1,0,.04s0,.03,0,.04c0,.04-.06,.33-.1,.34,0,0,.04-.09,0-.02-.01,.02-.02,.05-.03,.07-.02,.04-.05,.09-.07,.13-.01,.02-.06,.12-.08,.13,.01,0,.06-.07,0-.01-.02,.02-.03,.04-.05,.06-.03,.04-.07,.07-.1,.11-.02,.02-.05,.04-.07,.06,0,0-.07,.06-.02,.02s-.01,0-.02,.02c-.02,.01-.04,.03-.06,.04-.05,.03-.1,.06-.15,.09-.23,.12-.32,.46-.18,.68,.15,.23,.44,.31,.68,.18h0Z"/>
    <path class="cls-3" d="M45.88,36.87c.03-.14,.05-.29,.04-.43s-.03-.29-.07-.43c-.04-.12-.12-.23-.23-.3-.06-.04-.12-.06-.19-.06-.07-.01-.13-.01-.2,0-.12,.04-.24,.11-.3,.23s-.09,.25-.05,.39c.02,.06,.03,.13,.04,.19l-.02-.13c.01,.11,.01,.22,0,.33l.02-.13s0,.05-.01,.08c-.02,.07-.02,.13,0,.2,0,.07,.02,.13,.06,.19,.03,.06,.07,.11,.13,.14,.05,.04,.1,.07,.17,.09,.13,.03,.27,.02,.39-.05,.1-.07,.2-.17,.23-.3h0Z"/>
    <path class="cls-3" d="M44.76,36.64h0s-.01-.08-.02-.13c0,.04,0,.08,0,.12l.02-.13s-.01,.07-.03,.11l.05-.12s-.01,.02-.02,.04l.91,.39c.03-.12,.07-.23,.12-.34l-.05,.12s.03-.08,.05-.12c.04-.06,.06-.12,.06-.19,.01-.07,.01-.13,0-.2-.02-.07-.05-.12-.09-.17-.04-.05-.08-.1-.14-.13l-.12-.05c-.09-.02-.18-.02-.27,0l-.12,.05c-.08,.04-.13,.1-.18,.18-.05,.06-.07,.14-.1,.21s-.03,.16-.04,.23c0,.07,.01,.13,.04,.19,.02,.06,.05,.12,.1,.16,.05,.05,.1,.08,.16,.1,.06,.03,.12,.05,.19,.04l.13-.02c.08-.02,.16-.07,.22-.13l.08-.1c.05-.08,.07-.16,.07-.25,0,0,0-.02,0-.02l-.02,.13s.01-.06,.02-.09l-.05,.12s.03-.05,.05-.08l-.86-.5c-.09,.19-.17,.38-.22,.58-.02,.07-.02,.13,0,.2,0,.07,.02,.13,.06,.19l.08,.1s.1,.08,.16,.1c.04,.02,.08,.03,.13,.03,.07,.01,.13,.01,.2,0l.12-.05c.08-.04,.13-.1,.18-.18,0-.01,.01-.02,.02-.04,.02-.05,.04-.1,.06-.15,0-.02,.01-.05,.02-.07,.01-.06,.02-.13,.02-.2s-.01-.14-.02-.2c-.02-.07-.05-.12-.09-.17-.04-.05-.08-.1-.14-.13-.06-.04-.12-.06-.19-.06-.07-.01-.13-.01-.2,0l-.12,.05c-.08,.04-.13,.1-.18,.18l-.05,.12c-.02,.09-.02,.18,0,.27h0Z"/>
    <path class="cls-3" d="M45.57,37.06c.05-.14,.1-.28,.16-.42l-.05,.12c.03-.08,.07-.15,.1-.23,.04-.06,.06-.12,.06-.19,.01-.07,.01-.13,0-.2-.02-.07-.05-.12-.09-.17-.04-.05-.08-.1-.14-.13-.12-.06-.26-.09-.39-.05-.12,.04-.24,.11-.3,.23-.12,.25-.22,.51-.31,.77-.02,.07-.02,.13,0,.2,0,.07,.02,.13,.06,.19,.03,.06,.07,.11,.13,.14,.05,.04,.1,.07,.17,.09,.13,.03,.27,.02,.39-.05l.1-.08c.06-.06,.1-.14,.13-.22h0Z"/>
    <path class="cls-3" d="M45.67,36.83s0-.04,0-.06l-.02,.13c.01-.1,.04-.19,.08-.28l-.05,.12s.03-.07,.05-.11c.04-.06,.06-.12,.06-.19,.01-.07,.01-.13,0-.2-.02-.07-.05-.12-.09-.17-.04-.05-.08-.1-.14-.13l-.12-.05c-.09-.02-.18-.02-.27,0l-.12,.05c-.08,.04-.13,.1-.18,.18-.02,.03-.04,.07-.05,.11-.03,.07-.07,.15-.09,.23-.04,.12-.05,.24-.06,.36,0,.07,.01,.13,.04,.19,.02,.06,.05,.12,.1,.16,.05,.05,.1,.08,.16,.1,.06,.03,.12,.05,.19,.04l.13-.02c.08-.02,.16-.07,.22-.13l.08-.1c.05-.08,.07-.16,.07-.25h0Z"/>
    <path class="cls-3" d="M12.89,32.92c.04,.15,.04,.27,.03,.42-.03,.64,.97,.64,1,0,.04-.76-.07-1.5-.18-2.25-.12-.8-.18-1.59-.18-2.4s.01-1.59-.07-2.38c-.08-.75-.23-1.51-.1-2.26,.11-.63-.85-.9-.96-.27-.14,.8-.04,1.56,.05,2.36s.09,1.58,.09,2.37,.03,1.55,.14,2.32c.12,.84,.27,1.66,.23,2.51h1c.01-.23-.01-.46-.07-.69-.15-.63-1.11-.36-.96,.27h0Z"/>
    <path class="cls-8" d="M15.02,34.46c-.12,.07-.24,.13-.36,.19l.12-.05c-.16,.07-.33,.13-.5,.15l.13-.02c-.07,0-.13,.01-.2,0l.13,.02s-.08-.02-.12-.03l.12,.05s-.06-.03-.08-.05l.1,.08s-.04-.04-.06-.07l.08,.1s-.04-.06-.06-.1l.05,.12c-.07-.16-.08-.33-.11-.5-.04-.2-.07-.4-.11-.6-.02-.12-.13-.24-.23-.3-.11-.06-.27-.09-.39-.05s-.24,.11-.3,.23c-.07,.12-.08,.25-.05,.39,.05,.27,.1,.53,.15,.8,.06,.32,.18,.6,.46,.79s.64,.15,.94,.06c.28-.08,.55-.2,.79-.35,.22-.14,.33-.45,.18-.68s-.45-.33-.68-.18h0Z"/>
    <path class="cls-3" d="M22.61,49.87c.42,.65,1.07,1.13,1.82,1.33,.13,.03,.28-.04,.31-.17s-.04-.27-.17-.31c-.08-.02-.17-.05-.25-.08-.02,0-.03-.01-.05-.02,0,0-.06-.02-.04-.02-.01,0-.07-.03-.1-.05-.15-.07-.3-.16-.44-.26-.23-.17-.48-.43-.65-.68-.07-.11-.22-.16-.34-.09-.11,.07-.16,.23-.09,.34h0Z"/>
    <path class="cls-3" d="M37.01,49.47l-.68,.77c-.04,.05-.07,.11-.07,.18,0,.06,.03,.13,.07,.18,.09,.09,.26,.1,.35,0l.68-.77c.04-.05,.07-.11,.07-.18,0-.06-.03-.13-.07-.18-.09-.09-.26-.1-.35,0h0Z"/>
    <path class="cls-3" d="M21.62,50.54c.17,.18,.37,.34,.6,.44,.03,.02,.06,.03,.09,.03,.03,0,.07,0,.1,0,.06-.02,.12-.06,.15-.11,.03-.06,.05-.13,.03-.19-.02-.06-.06-.12-.11-.15-.12-.05-.23-.12-.33-.2l.05,.04c-.08-.06-.15-.13-.22-.2-.04-.05-.12-.07-.18-.07s-.13,.03-.18,.07-.08,.11-.07,.18,.03,.13,.07,.18h0Z"/>
    <path class="cls-3" d="M21.96,50.43c-.24,.57-.37,1.18-.35,1.8,0,.12,.09,.23,.22,.25,.12,.02,.25-.06,.27-.18,.11-.53,.24-1.05,.39-1.57l-.49-.07c0,.43-.12,.84-.35,1.21-.07,.11-.02,.28,.09,.34,.12,.07,.27,.02,.34-.09,.16-.24,.32-.49,.48-.73,.07-.11,.02-.28-.09-.34-.12-.07-.27-.02-.34,.09-.16,.24-.32,.49-.48,.73l.43,.25c.28-.44,.42-.95,.42-1.46,0-.28-.41-.34-.49-.07-.16,.52-.29,1.04-.39,1.57l.49,.07c-.02-.53,.07-1.06,.28-1.55,.05-.12,.04-.27-.09-.34-.11-.06-.29-.04-.34,.09h0Z"/>
    <path class="cls-3" d="M37.23,50.73l.36,1.36c.03,.12,.15,.2,.27,.18,.11-.02,.23-.12,.22-.25-.05-.51-.19-1-.41-1.46-.05-.11-.21-.15-.31-.1-.11,.05-.18,.17-.14,.29,.08,.31,.17,.62,.25,.92l.42-.24s-.01-.02-.02-.02c0-.01-.02-.02-.03-.04-.02-.03-.05-.07-.07-.11-.02-.03-.04-.07-.05-.1,0-.02-.02-.03-.02-.05,.02,.05,0-.02,0-.02-.03-.07-.05-.14-.06-.22,0-.02,0-.04-.01-.07,0,0-.01-.07,0-.03s0-.04,0-.03c0-.02,0-.05,0-.07,0-.13-.11-.26-.25-.25-.13,0-.25,.11-.25,.25,.02,.5,.17,.99,.45,1.41,.07,.11,.22,.17,.34,.09,.11-.07,.17-.23,.09-.34-.06-.09-.12-.19-.17-.28-.01-.03-.03-.06-.04-.08-.02-.05,0,.03-.01-.03-.02-.05-.04-.1-.06-.15-.03-.1-.06-.21-.08-.32,0-.02,0-.05-.01-.07,0,.05,0-.04,0-.05,0-.05,0-.11-.01-.16h-.5c.02,.42,.18,.79,.43,1.12,.07,.08,.22,.09,.3,.04,.09-.06,.14-.17,.11-.28-.08-.31-.17-.62-.25-.92l-.46,.19c.02,.05,.05,.11,.07,.16-.02-.04,0,.02,.01,.03,.01,.03,.02,.06,.04,.09,.04,.1,.07,.2,.1,.31s.05,.21,.08,.32c.01,.06,.02,.11,.03,.17,0,0,.01,.08,0,.03,0,.03,0,.07,.01,.1l.49-.07-.36-1.36c-.03-.13-.18-.22-.31-.17s-.21,.17-.17,.31h0Z"/>
    <path class="cls-3" d="M22.34,50.48s0,.02,0,.03v-.07s0,.04,0,.07v-.07c0,.08-.04,.15-.06,.22-.03,.09-.04,.2-.05,.3v-.07s0,.04,0,.06l.03-.06s0,.02,.02-.02l.03-.02s-.03,.02-.04,.02c-.02,.01-.05,.03-.07,.05-.06,.04-.12,.09-.16,.15-.04,.05-.07,.11-.07,.18,0,.06,.03,.13,.07,.18,.09,.09,.26,.11,.35,0,.02-.02,.03-.04,.05-.05,0,0,.01-.01,.02-.02s.04-.03,0,0,0,0,0,0c0,0,.02-.01,.02-.02,.02-.01,.04-.02,.06-.04,.08-.05,.13-.12,.16-.21,.02-.06,.02-.13,.03-.19v.07c0-.09,.03-.17,.07-.25,.04-.11,.06-.23,.03-.35-.03-.13-.18-.22-.31-.17-.13,.04-.21,.17-.17,.31h0Z"/>
    <path class="cls-3" d="M23.01,50.34c-.16,.03-.28,.15-.42,.21l.06-.03c-.1,.04-.2,.08-.29,.14-.07,.05-.12,.11-.18,.18-.04,.05-.07,.11-.07,.18,0,.06,.03,.13,.07,.18s.11,.08,.18,.07c.06,0,.14-.02,.18-.07,.05-.06,.09-.12,.15-.16l-.05,.04s.08-.05,.12-.07l-.06,.03c.08-.03,.17-.07,.25-.11,.06-.04,.12-.08,.18-.11l-.06,.03s.05-.02,.08-.02c.13-.03,.21-.18,.17-.31-.04-.13-.17-.2-.31-.17h0Z"/>
    <path class="cls-3" d="M22.4,50.66c-.01,.06-.02,.12-.05,.18l.03-.06s-.03,.07-.06,.1l.04-.05c-.07,.08-.14,.16-.2,.25l.39,.3s.04-.06,.06-.09l-.04,.05c.05-.06,.11-.12,.17-.18,.07-.06,.14-.12,.18-.21,.03-.06,.04-.12,.03-.19-.02-.06-.06-.12-.11-.15-.06-.03-.13-.05-.19-.03-.06,.02-.12,.06-.15,.11,0,.02-.02,.04-.03,.05l.04-.05c-.05,.06-.12,.11-.18,.17-.07,.08-.14,.16-.2,.25-.03,.05-.04,.13-.03,.19,.02,.05,.05,.1,.09,.13s.1,.06,.15,.05c.06,0,.13-.02,.18-.07,.08-.1,.17-.2,.24-.3,.07-.1,.11-.21,.13-.33,.01-.07,.01-.13-.03-.19-.03-.05-.09-.1-.15-.11-.06-.01-.14-.01-.19,.03-.05,.03-.1,.09-.11,.15h0Z"/>
    <path class="cls-3" d="M22.48,50.75s-.01,.02,0,0c-.01,.01-.02,.03-.03,.04-.02,.02-.04,.04-.06,.06-.04,.04-.08,.08-.12,.13-.09,.1-.18,.2-.26,.31-.14,.19-.26,.4-.38,.61-.06,.11-.03,.25,.06,.32s.24,.07,.33-.02c.12-.13,.23-.27,.33-.43l-.46-.19s-.01,.04-.02,.06c.01-.01,.01-.03,0,0-.02,.03-.03,.06-.05,.1-.02,.03-.04,.06-.06,.08,0,.01-.02,.03-.03,.04-.03,.04,.03-.03,0,.01-.04,.05-.07,.1-.07,.18,0,.06,.03,.13,.07,.18,.09,.08,.26,.11,.35,0,.32-.38,.61-.79,.86-1.22,.07-.11,.03-.28-.09-.34s-.27-.03-.34,.09c-.12,.2-.24,.4-.38,.59-.07,.09-.13,.19-.2,.28,0,0-.03,.04-.01,.02s-.01,.01-.01,.02c-.02,.02-.04,.05-.05,.07-.04,.05-.08,.1-.12,.14l.35,.35c.12-.16,.24-.31,.3-.5,.04-.12-.03-.25-.14-.29-.12-.05-.24,0-.31,.1-.04,.06-.08,.13-.13,.19,.02-.03,0-.01,0,0-.01,.01-.02,.03-.03,.04-.03,.03-.05,.06-.08,.09l.39,.3c.12-.21,.24-.41,.38-.61,0-.01,.02-.02,.02-.03,0,0,.03-.04,.01-.02s0-.01,.01-.02c.01-.01,.02-.03,.03-.04,.04-.04,.08-.09,.12-.13,.09-.1,.19-.19,.27-.31s.02-.28-.09-.34c-.13-.07-.26-.02-.34,.09h0Z"/>
    <path class="cls-3" d="M21.85,50.4s.02,0,.03,0l-.06-.03s.03,.02,.05,.03l-.05-.04s.03,.02,.04,.04l-.04-.05s.02,.03,.02,.04l-.03-.06s0,0,0,0c0,.03,.02,.06,.04,.09,.02,.03,.04,.05,.07,.06,.03,.02,.06,.03,.09,.03,.03,0,.07,0,.1,0l.06-.03s.07-.05,.09-.09l.03-.06s.01-.09,0-.13c-.01-.03-.02-.06-.03-.08,0,0,0-.01-.01-.02-.02-.02-.03-.05-.05-.07,0,0-.01-.01-.02-.02-.03-.02-.06-.05-.09-.07-.03-.01-.05-.02-.08-.03,0,0-.02,0-.03,0-.03-.01-.07-.01-.1,0-.03,0-.06,.01-.09,.03-.03,.02-.05,.04-.07,.06-.02,.02-.04,.05-.04,.09v.07s0,.09,.03,.13l.04,.05s.07,.05,.11,.06h0Z"/>
    <path class="cls-8" d="M46.91,34.95c.17-.19,.26-.42,.28-.68,.01-.22-.05-.46-.17-.63-.06-.08-.13-.15-.22-.17-.09-.02-.21-.01-.29,.04s-.15,.13-.17,.22-.02,.21,.04,.29c.03,.04,.05,.08,.07,.12l-.04-.09c.02,.06,.04,.12,.05,.18v-.1c0,.07,0,.13-.01,.2v-.1c0,.07-.01,.13-.04,.19l.04-.09s-.05,.1-.08,.14l.06-.08s-.02,.03-.03,.04c-.07,.08-.11,.16-.11,.27,0,.09,.04,.2,.11,.27s.17,.11,.27,.11,.2-.04,.27-.11h0Z"/>
    <path class="cls-3" d="M10.48,25.98c.02,.18,.02,.37,0,.55,0,.21,.04,.4,.13,.58,.06,.19,.16,.35,.31,.48,.14,.15,.3,.25,.48,.31,.18,.09,.37,.14,.58,.13l.4-.05c.25-.07,.47-.2,.66-.39l.23-.3c.14-.23,.2-.49,.2-.76,.02-.18,.03-.37,0-.55,0-.21-.04-.4-.13-.58-.06-.19-.16-.35-.31-.48-.14-.15-.3-.25-.48-.31-.18-.09-.37-.14-.58-.13l-.4,.05c-.25,.07-.47,.2-.66,.39l-.23,.3c-.14,.23-.2,.49-.2,.76h0Z"/>
    <path class="cls-8" d="M14.69,30.61l-.08,.06c-.17,.09-.32,.22-.42,.39-.13,.14-.22,.31-.27,.51-.06,.2-.07,.4-.03,.6,0,.2,.07,.39,.18,.56l.23,.3c.19,.19,.41,.31,.66,.39l.4,.05c.27,0,.52-.07,.76-.2l.08-.06c.17-.09,.32-.22,.42-.39,.13-.14,.22-.31,.27-.51,.06-.2,.07-.4,.03-.6,0-.2-.07-.39-.18-.56l-.23-.3c-.19-.19-.41-.31-.66-.39l-.4-.05c-.27,0-.52,.07-.76,.2h0Z"/>
    <path class="cls-8" d="M15.29,33.31c1.93,0,1.93-3,0-3s-1.93,3,0,3h0Z"/>
    <path class="cls-8" d="M37.54,15.38c1.93,0,1.93-3,0-3s-1.93,3,0,3h0Z"/>
    <path class="cls-8" d="M37.62,15.35c1.93,0,1.93-3,0-3s-1.93,3,0,3h0Z"/>
    <path class="cls-8" d="M37.85,15.53c1.93,0,1.93-3,0-3s-1.93,3,0,3h0Z"/>
    <path class="cls-8" d="M38.03,15.59c1.93,0,1.93-3,0-3s-1.93,3,0,3h0Z"/>
    <path class="cls-3" d="M38.89,51.87c1.93,0,1.93-3,0-3s-1.93,3,0,3h0Z"/>
    <path class="cls-8" d="M15.23,35.49c1.93,0,1.93-3,0-3s-1.93,3,0,3h0Z"/>
    <path class="cls-3" d="M47.92,38.19c.79-.41,1.29-1.22,1.68-1.99,.28-.57,.42-1.11,.43-1.74,.01-.52-.05-1.03-.13-1.54-.05-.35-.4-.73-.69-.9-.32-.19-.8-.27-1.16-.15s-.71,.34-.9,.69l-.15,.36c-.07,.27-.07,.53,0,.8,0,.04,.01,.09,.02,.13l-.05-.4c.06,.44,.08,.9,.03,1.34l.05-.4c-.02,.18-.07,.34-.14,.5l.15-.36c-.17,.39-.38,.77-.64,1.11l.23-.3c-.1,.13-.21,.24-.34,.35l.3-.23c-.07,.05-.15,.1-.23,.14-.7,.37-.96,1.39-.54,2.05,.46,.71,1.31,.93,2.05,.54h0Z"/>
    <path class="cls-8" d="M46.36,33.62s-.01,.09-.02,.13l.02-.13c-.04,.3-.11,.59-.2,.88-.04,.12-.01,.28,.05,.39s.18,.2,.3,.23c.27,.06,.53-.08,.62-.35,.12-.37,.19-.76,.23-1.15,.01-.12-.07-.27-.15-.35-.09-.09-.23-.15-.35-.15s-.26,.05-.35,.15l-.08,.1c-.05,.08-.07,.16-.07,.25h0Z"/>
    <path class="cls-8" d="M46.16,33.89c-.09,.17-.17,.36-.23,.54s-.09,.39-.11,.58l.02,.13c.02,.07,.05,.12,.09,.17,.06,.08,.16,.16,.26,.18,.09,.02,.18,.02,.27,0,.13-.03,.23-.13,.3-.23,.12-.18,.21-.38,.26-.58l-.73,.3h0s-.07-.05-.1-.07h0s-.05-.06-.08-.09h0s-.03-.07-.05-.11c0,0,0,.01,0,.02l-.02-.13s0,.02,0,.03l.02-.13s0,.02-.01,.03l.05-.12s-.01,.02-.02,.03l.08-.1c-.04,.06-.09,.11-.13,.17-.06,.1-.09,.2-.09,.32,0,.16,.08,.3,.2,.39,.05,.04,.1,.07,.17,.09,.09,.02,.18,.02,.27,0,.22-.04,.38-.23,.45-.44,.04-.12,.01-.28-.05-.39s-.18-.2-.3-.23c-.13-.03-.27-.02-.39,.05s-.19,.17-.23,.3h0s.03-.07,.05-.11c0,.01-.01,.02-.02,.03l.08-.1s-.01,.01-.02,.02l.1-.08s-.02,.01-.03,.02l.12-.05s-.02,0-.02,0l.63,.48h0s-.01,.08-.02,.12c0,0,0-.02,0-.02l-.05,.12s.02-.04,.03-.05l-.08,.1s.09-.1,.12-.15c.04-.08,.07-.15,.08-.24,.01-.09,.02-.15-.01-.25-.03-.09-.05-.12-.1-.18s-.08-.09-.16-.14c-.13-.09-.31-.08-.44-.03-.14,.06-.25,.17-.29,.32-.02,.06-.04,.13-.07,.19l.05-.12c-.04,.1-.09,.19-.15,.27l.93,.25s0-.03,0-.05l-.02,.13c.03-.21,.09-.42,.17-.62l-.05,.12c.03-.07,.06-.14,.1-.21,.06-.12,.09-.26,.05-.39-.03-.12-.12-.24-.23-.3-.12-.06-.26-.09-.39-.05-.12,.04-.24,.11-.3,.23h0Z"/>
    <path class="cls-8" d="M14.16,33.9c-.05-.17-.08-.34-.11-.52l.02,.13s0-.07-.01-.11c0-.07-.01-.13-.04-.19-.02-.06-.05-.12-.1-.16-.05-.05-.1-.08-.16-.1-.06-.03-.12-.05-.19-.04-.13,0-.26,.05-.35,.15l-.08,.1c-.05,.08-.07,.16-.07,.25,.03,.26,.07,.51,.14,.76,.03,.12,.12,.23,.23,.3,.06,.04,.12,.06,.19,.06,.07,.01,.13,.01,.2,0,.12-.04,.24-.11,.3-.23s.09-.25,.05-.39h0Z"/>
    <path class="cls-3" d="M47.56,36.16c.09-.28,.17-.56,.29-.82,.03-.07,.12-.24,.18-.35,.07-.12,.15-.23,.22-.35,.16-.25,.29-.52,.36-.81,.03-.13,.05-.26,.08-.39,.02-.07,.04-.14,.06-.2,.02-.06,.02-.07,0-.03,.02-.03,.03-.06,.05-.09,.13-.23,.06-.56-.18-.68s-.54-.06-.68,.18c-.16,.27-.22,.57-.28,.87-.06,.28-.14,.44-.3,.7-.34,.54-.56,1.11-.76,1.72-.08,.25,.09,.56,.35,.62,.27,.06,.53-.08,.62-.35h0Z"/>
    <path class="cls-3" d="M47.49,33.28c-.16,.65-.33,1.29-.52,1.93-.07,.25,.09,.56,.35,.62s.54-.08,.62-.35c.19-.64,.36-1.28,.52-1.93,.06-.25-.08-.55-.35-.62s-.55,.08-.62,.35h0Z"/>
    <path class="cls-3" d="M45.52,36.82s.01,0,.02,0c.04,0,.09,.01,.14,.02,0,0,0,0,0,0,.01,0,.02,0,.03,0,.03,0,.11,0,.16-.02s.1-.04,.15-.06,.09-.07,.13-.09c0,0,.02-.01,.02-.02,.03-.04,.06-.07,.09-.11,0,0,0,0,0-.01,.01-.02,.02-.05,.03-.07,0-.02,.02-.05,.03-.07,.02-.07,.02-.13,0-.2,0-.07-.02-.13-.06-.19-.03-.06-.07-.11-.13-.14-.05-.04-.1-.07-.17-.09l-.13-.02c-.09,0-.17,.02-.25,.07l-.1,.08c-.06,.06-.1,.14-.13,.22,0,0,0,.01,0,.01l.05-.12s-.01,.02-.02,.03l.08-.1s-.02,.02-.03,.03l.1-.08s-.02,.02-.04,.02l.12-.05s-.03,0-.04,.01l.13-.02s-.03,0-.04,0l.13,.02s-.01,0-.02,0c-.07-.02-.13-.02-.2,0-.07,0-.13,.02-.19,.06-.06,.03-.11,.07-.14,.13-.04,.05-.07,.1-.09,.17l-.02,.13c0,.09,.02,.17,.07,.25l.08,.1c.06,.06,.14,.1,.22,.13h0Z"/>
    <path class="cls-8" d="M44.99,35.7s.02,0,.03,0c.05,0,.11-.01,.16-.02,.01,0,.02,0,.03,0,0,0,.01,0,.02,0,.04-.02,.09-.04,.13-.06,.06-.03,.11-.07,.14-.13,.04-.05,.07-.1,.09-.17,.02-.07,.02-.13,0-.2,0-.07-.02-.13-.06-.19l-.08-.1c-.06-.06-.14-.1-.22-.13l-.13-.02c-.09,0-.17,.02-.25,.07,0,0,0,0-.01,0l.12-.05s-.05,.02-.07,.02l.13-.02s-.03,0-.04,0c-.07,0-.13,.01-.19,.04-.06,.02-.12,.05-.16,.1-.05,.05-.08,.1-.1,.16-.03,.06-.05,.12-.04,.19l.02,.13c.02,.08,.07,.16,.13,.22l.1,.08c.08,.05,.16,.07,.25,.07h0Z"/>
    <path class="cls-8" d="M14.59,20.75c-.06,.08-.11,.15-.17,.23l.93,.25s0-.06,0-.08l-.02,.13c0-.07,.03-.13,.05-.19l-.05,.12s.03-.07,.05-.1c.04-.06,.06-.12,.06-.19,.01-.07,.01-.13,0-.2-.02-.07-.05-.12-.09-.17-.04-.05-.08-.1-.14-.13l-.12-.05c-.09-.02-.18-.02-.27,0l-.12,.05c-.08,.04-.13,.1-.18,.18-.02,.03-.03,.06-.05,.09-.03,.07-.06,.14-.08,.21,0,.03-.02,.06-.02,.1-.01,.08-.02,.15-.03,.23l.02,.13c.02,.07,.05,.12,.09,.17,.02,.04,.05,.07,.09,.09,.05,.04,.1,.07,.17,.09l.13,.02,.13-.02c.07-.02,.12-.05,.17-.09,.05-.04,.1-.08,.13-.14,.06-.08,.11-.15,.17-.23,.04-.06,.06-.12,.06-.19,.01-.07,.01-.13,0-.2-.02-.07-.05-.12-.09-.17-.04-.05-.08-.1-.14-.13l-.12-.05c-.09-.02-.18-.02-.27,0l-.12,.05c-.08,.04-.13,.1-.18,.18h0Z"/>
    <path class="cls-8" d="M15.42,21.07l.02-.06c.02-.07,.02-.13,0-.2,0-.07-.02-.13-.06-.19-.03-.06-.07-.11-.13-.14-.05-.04-.1-.07-.17-.09l-.13-.02c-.09,0-.17,.02-.25,.07l-.1,.08c-.06,.06-.1,.14-.13,.22l-.02,.06c-.02,.07-.02,.13,0,.2,0,.07,.02,.13,.06,.19,.03,.06,.07,.11,.13,.14,.05,.04,.1,.07,.17,.09l.13,.02c.09,0,.17-.02,.25-.07l.1-.08c.06-.06,.1-.14,.13-.22h0Z"/>
    <path class="cls-3" d="M12.2,33.92c-.28,0-.13-.13-.12,0,0,.06,.07,.14,.1,.19,.07,.14,.14,.29,.21,.43,.12,.26,.23,.53,.33,.8,.21,.59,.38,1.19,.51,1.8,.11,.54,1.04,.43,.98-.13-.08-.82-.38-1.57-.63-2.36s-.32-1.6-.37-2.42l-.98,.13c.38,1.55,.9,3.06,1.53,4.52,.19,.44,.99,.23,.93-.25-.17-1.33-.43-2.64-.8-3.92-.18-.62-1.14-.35-.96,.27,.34,1.2,.61,2.42,.76,3.66l.93-.25c-.6-1.38-1.07-2.82-1.43-4.28-.13-.54-1.02-.44-.98,.13,.05,.85,.12,1.7,.35,2.52,.22,.75,.57,1.47,.64,2.25l.98-.13c-.15-.75-.37-1.49-.66-2.2-.15-.36-.31-.72-.48-1.07s-.4-.69-.84-.68c-.64,0-.64,1,0,1h0Z"/>
    <path class="cls-3" d="M14.8,36.18c-.04-.4-.1-.78-.21-1.17l-.91,.39c.24,.43,.43,.88,.63,1.33,.11,.26,.47,.29,.68,.18,.41-.2,.29-.67,.19-1.01-.11-.37-.27-.73-.45-1.07-.13-.24-.46-.31-.68-.18-.25,.15-.29,.44-.18,.68s.18,.48,.24,.73l.96-.27c-.16-.4-.31-.81-.43-1.23s-.16-.83-.22-1.25c-.13-.81-.58-1.54-.68-2.36-.03-.27-.21-.5-.5-.5-.24,0-.53,.23-.5,.5,.11,.88,.54,1.65,.7,2.52,.08,.44,.11,.88,.23,1.31s.28,.85,.44,1.27c.23,.59,1.11,.37,.96-.27-.07-.34-.19-.66-.34-.97l-.86,.5c.1,.18,.19,.36,.26,.55,.03,.09,.06,.19,.09,.28,.01,.05,.03,.09,.04,.14,.02,.12,.03,.13,.03,.02l.23-.3-.03,.02,.68,.18c-.19-.45-.39-.9-.63-1.33-.28-.5-1.06-.16-.91,.39,.08,.3,.14,.6,.17,.9,.03,.27,.21,.5,.5,.5,.25,0,.53-.23,.5-.5h0Z"/>
    <path class="cls-3" d="M46.77,32.84c-.02,.75-.09,1.49-.23,2.23-.12,.64,.73,.86,.96,.27,.36-.93,.66-1.86,.77-2.86h-1c-.03,.72-.2,1.41-.54,2.04-.17,.31-.36,.6-.55,.89-.09,.13-.18,.27-.28,.4-.04,.05-.09,.09-.13,.14-.06,.07-.11,0-.02,.04l.35,.35c.06,.17-.02,.13,.05,.05,.05-.05,.08-.12,.12-.17,.09-.12,.17-.23,.25-.35,.15-.25,.26-.54,.35-.82,.2-.6,.38-1.21,.64-1.79,.1-.23,.08-.49-.13-.65-.19-.14-.48-.14-.66,.04-.47,.49-.63,1.12-.89,1.73-.28,.65-.63,1.26-.97,1.88-.32,.56,.52,1.05,.86,.5,.27-.42,.53-.84,.73-1.3s.29-.91,.54-1.33c.26-.44,.45-.87,.5-1.39,.05-.49-.04-.98,.03-1.47,.04-.27-.06-.54-.35-.62-.23-.06-.58,.08-.62,.35-.07,.49-.03,.97-.05,1.46s-.18,.83-.42,1.24-.34,.87-.52,1.31-.45,.85-.71,1.24l.86,.5c.33-.59,.66-1.18,.94-1.8,.23-.52,.37-1.18,.77-1.6l-.79-.61c-.2,.44-.38,.9-.53,1.36-.12,.36-.2,.75-.37,1.09-.18,.37-.52,.65-.61,1.06-.12,.54,.39,.82,.86,.68,.4-.12,.66-.47,.89-.79,.25-.35,.49-.7,.69-1.08,.44-.8,.67-1.68,.7-2.59,0-.27-.24-.5-.5-.5-.3,0-.47,.23-.5,.5-.1,.89-.41,1.76-.74,2.59l.96,.27c.16-.82,.25-1.66,.27-2.5,.01-.64-.99-.64-1,0h0Z"/>
    <path class="cls-3" d="M46.28,35.56c.64-1.09,.9-2.48,1.11-3.72,.23-1.34,.33-2.7,.29-4.06-.02-.64-1.02-.64-1,0,.03,1.27-.04,2.54-.26,3.79-.1,.61-.24,1.22-.4,1.82s-.31,1.15-.61,1.66c-.33,.56,.54,1.06,.86,.5h0Z"/>
    <path class="cls-3" d="M45.45,35.81s-.09,0-.13,0l.25,.07h-.01c.06,.05,.12,.11,.18,.17h0c.02,.07,.05,.16,.07,.24h0s-.01,.08-.02,.12h0s-.03,.07-.05,.11c.07-.12,.15-.23,.23-.35s.16-.24,.24-.35l.05-.12c.02-.07,.02-.13,0-.2-.01-.1-.06-.21-.14-.29-.06-.06-.14-.1-.22-.13-.12-.04-.28-.01-.39,.05-.12,.07-.22,.18-.28,.3-.05,.1-.07,.2-.12,.31l.05-.12c-.03,.07-.06,.13-.09,.2-.04,.11-.03,.22,0,.33l.05,.12,.08,.1c.08,.08,.18,.12,.29,.14,.04,.01,.09,.01,.13,0,.05,0,.09-.01,.13-.03,.1-.04,.18-.11,.24-.2,.07-.1,.13-.21,.2-.31,.03-.05,.07-.11,.1-.16s.06-.11,.08-.17c.03-.13,.02-.29-.05-.41-.09-.14-.21-.23-.37-.25-.07,0-.14-.01-.21,0-.04,.01-.1,.04-.14,.06-.1,.06-.19,.15-.25,.25-.04,.07-.07,.15-.09,.23-.01,.05-.02,.1-.04,.14l.05-.12s-.02,.04-.03,.06l.08-.1h0c.28,.08,.56,.16,.84,.23,0-.01,0-.03-.01-.04l.02,.13s0-.06,0-.09l-.02,.13s.01-.06,.03-.08l-.05,.12s.03-.06,.05-.09l-.08,.1s.08-.09,.12-.12c.09-.08,.15-.24,.15-.35,0-.12-.05-.27-.15-.35s-.22-.15-.35-.15l-.13,.02c-.08,.02-.16,.07-.22,.13-.04,.03-.07,.06-.1,.1-.05,.06-.11,.13-.15,.2-.03,.05-.05,.11-.07,.17s-.02,.12-.03,.18c0,.02,0,.05,0,.07,0,.06,.01,.13,.03,.19,.05,.17,.18,.3,.35,.35,.16,.04,.37,0,.49-.13,.09-.11,.16-.21,.19-.35,.01-.05,.02-.11,.04-.16l-.05,.12s.02-.04,.03-.05l-.08,.1s.02-.02,.03-.03l-.1,.08s.02-.01,.03-.02l-.12,.05h0s-.09,0-.13,.01h0c-.08-.02-.17-.04-.25-.07h0c-.06-.06-.12-.11-.18-.17h0c-.02-.08-.05-.16-.07-.25h0s.01-.08,.02-.12c0,0,0,.01,0,.02l.05-.12c-.05,.09-.11,.17-.16,.25s-.11,.17-.16,.26l.91,.12h0s.01,.07,.02,.12h0s-.01,.07-.02,.12c0-.02,0-.03,.01-.04l-.05,.12c.03-.08,.07-.15,.1-.23,.02-.04,.03-.09,.04-.13l-.05,.12s.03-.06,.05-.08l-.08,.1s.02-.03,.04-.04l-.1,.08s.01,0,.02-.01l-.68-.68c-.11,.17-.23,.33-.34,.5-.03,.04-.05,.08-.08,.12-.01,.02-.03,.04-.04,.06-.04,.07-.07,.14-.08,.22s-.01,.06,0,.14c0,.07,.03,.13,.06,.19,.06,.11,.19,.21,.31,.24,.08,.02,.18,.02,.27,.02,.13,0,.26-.06,.35-.15s.15-.23,.15-.35-.05-.26-.15-.35-.22-.14-.35-.15h0Z"/>
    <path class="cls-3" d="M46.34,36.41c.22-.44,.51-.84,.78-1.26s.48-.88,.66-1.35c.36-.98,.64-1.99,.95-2.99l-.96-.27c-.09,.58-.42,1.03-.78,1.47s-.87,.93-.77,1.55c.09,.52,.83,.43,.96,0,.22-.71,.36-1.43,.43-2.17l-.98,.13c.09,.39-.08,.81-.19,1.18-.12,.42-.26,.84-.4,1.26s-.33,.82-.47,1.24c-.06,.18-.11,.37-.15,.55-.02,.1-.05,.19-.07,.28-.02,.06-.08,.18-.05,.16-.57,.31-.06,1.17,.5,.86,.46-.25,.52-.83,.64-1.28,.13-.5,.35-.97,.53-1.45s.33-.97,.47-1.47c.15-.53,.29-1.05,.15-1.61-.14-.58-.93-.4-.98,.13-.06,.65-.19,1.28-.39,1.91h.96v-.08c-.01,.09-.01,.18-.01,.27,.04-.21,.26-.43,.39-.6,.17-.21,.34-.41,.49-.62,.32-.43,.59-.91,.67-1.45,.1-.62-.77-.9-.96-.27-.3,.97-.58,1.94-.91,2.89s-.94,1.62-1.37,2.48c-.29,.57,.57,1.08,.86,.5h0Z"/>
    <path class="cls-3" d="M15.14,36.13c-.1-.63-.15-1.29-.41-1.88-.28-.65-.34-1.36-.58-2.03-.23-.63-.29-1.3-.5-1.95s-.46-1.26-.55-1.92c-.03-.27-.2-.5-.5-.5-.24,0-.53,.23-.5,.5,.09,.69,.3,1.33,.52,1.99s.29,1.35,.51,2.01c.12,.35,.25,.68,.32,1.04,.06,.34,.11,.66,.24,.98,.27,.66,.37,1.31,.48,2.02,.1,.63,1.07,.36,.96-.27h0Z"/>
    <path class="cls-3" d="M12.47,29.07c.04,.68,.15,1.36,.26,2.03,.11,.61,.19,1.23,.33,1.83s.43,1.11,.63,1.67c.1,.29,.2,.59,.27,.89s.12,.61,.31,.87c.26,.35,.99,.3,.93-.25-.04-.31-.09-.61-.2-.91-.22-.6-1.19-.34-.96,.27,.08,.21,.14,.42,.16,.64l.93-.25c-.15-.21-.18-.51-.24-.76-.08-.3-.18-.59-.28-.89-.19-.52-.46-1.01-.58-1.54-.27-1.16-.48-2.4-.56-3.59-.04-.64-1.04-.64-1,0h0Z"/>
    <path class="cls-3" d="M13.49,31.07c.05-.53,.15-1.08,.05-1.61l-.96,.27c.04,.17,.08,.34,.11,.51l-.02-.13c.03,.2,.02,.4,0,.61l.02-.13c-.04,.26-.09,.53-.07,.79s.22,.51,.5,.5c.26-.01,.51-.22,.5-.5,0-.14,0-.29,.02-.43l-.02,.13c.04-.26,.09-.53,.07-.8s-.08-.54-.14-.81-.36-.43-.62-.35c-.27,.09-.4,.34-.35,.62,0,.03,.01,.07,.02,.1l-.02-.13c.03,.23,.01,.46-.01,.69s-.05,.46-.07,.69c-.01,.12,.06,.27,.15,.35,.09,.09,.23,.15,.35,.15s.26-.05,.35-.15c.09-.1,.13-.21,.15-.35h0Z"/>
    <path class="cls-3" d="M13.4,26l.02-.4c0-.07-.01-.13-.04-.19-.02-.06-.05-.12-.1-.16-.05-.05-.1-.08-.16-.1-.06-.03-.12-.05-.19-.04l-.13,.02c-.08,.02-.16,.07-.22,.13l-.08,.1c-.05,.08-.07,.16-.07,.25l-.02,.4c0,.07,.01,.13,.04,.19,.02,.06,.05,.12,.1,.16,.05,.05,.1,.08,.16,.1,.06,.03,.12,.05,.19,.04l.13-.02c.08-.02,.16-.07,.22-.13l.08-.1c.05-.08,.07-.16,.07-.25h0Z"/>
    <path class="cls-3" d="M46.55,28.86c-.05,.63-.08,1.27-.16,1.9s-.29,1.19-.46,1.78c-.35,1.18-.59,2.39-.85,3.59-.14,.63,.82,.89,.96,.27,.28-1.24,.52-2.5,.89-3.72,.18-.59,.36-1.16,.44-1.77,.09-.68,.13-1.36,.18-2.04,.05-.64-.95-.64-1,0h0Z"/>
    <path class="cls-3" d="M46.46,28.11c.09,.74,.05,1.42-.11,2.15-.14,.68-.28,1.35-.34,2.05s-.09,1.45-.22,2.16c-.09,.5-.17,1.41-.67,1.69-.56,.31-.06,1.17,.5,.86,.61-.34,.83-1,.99-1.64,.2-.79,.29-1.6,.35-2.41s.18-1.62,.36-2.44,.24-1.59,.14-2.42c-.08-.63-1.08-.64-1,0h0Z"/>
    <path class="cls-3" d="M45.69,36.91l.49-1.14c.22-.51-.34-1-.79-.61-.22,.19-.37,.4-.49,.66-.27,.58,.51,1.06,.86,.5,.45-.7,.55-1.58,.72-2.38,.19-.87,.36-1.75,.5-2.63,.28-1.82,.33-3.62,.3-5.46,0-.64-1.01-.64-1,0,.02,1.74,0,3.47-.27,5.19-.13,.81-.29,1.62-.46,2.43s-.24,1.67-.66,2.34l.86,.5c.09-.19,.18-.32,.34-.46l-.79-.61-.49,1.14c-.25,.58,.61,1.09,.86,.5h0Z"/>
    <path class="cls-3" d="M13.97,37.46c.41,.82,.74,1.68,.99,2.56l.96-.27c-.55-1.93-1.81-3.68-1.99-5.72-.06-.64-1.06-.64-1,0,.19,2.15,1.44,3.94,2.02,5.98,.18,.62,1.14,.36,.96-.27-.28-.97-.64-1.9-1.09-2.8-.29-.58-1.15-.07-.86,.5h0Z"/>
    <path class="cls-3" d="M13.72,35.22c.87,1.87,1.61,3.79,2.24,5.75,.2,.61,1.16,.35,.96-.27-.66-2.04-1.44-4.04-2.34-5.99-.11-.25-.47-.31-.68-.18-.25,.15-.29,.44-.18,.68h0Z"/>
    <path class="cls-3" d="M45.33,35.46c-.57,.89-.67,1.95-.89,2.96-.25,1.1-.61,2.18-1.09,3.2-.11,.24-.07,.54,.18,.68,.22,.13,.57,.07,.68-.18,.49-1.03,.88-2.11,1.14-3.22,.24-.98,.29-2.07,.84-2.94,.35-.54-.52-1.05-.86-.5h0Z"/>
    <path class="cls-3" d="M44.93,35.81s0,.06,0,.08c0,.06,0,.06,0,0,0,.04-.02,.09-.03,.12-.02,.1-.05,.19-.08,.29-.05,.18-.1,.36-.13,.54-.07,.41-.1,.83-.06,1.24,.03,.26,.21,.51,.5,.5,.25-.01,.53-.22,.5-.5-.02-.2-.03-.4-.02-.6,0-.09,.01-.17,.02-.26,0-.06,0-.06,0,0,0-.03,0-.06,.01-.08,0-.04,.01-.08,.02-.13,.08-.41,.25-.79,.26-1.21,0-.26-.24-.51-.5-.5-.28,.01-.49,.22-.5,.5h0Z"/>
    <path class="cls-3" d="M45.38,37.59l.37-1.28c.07-.25-.09-.56-.35-.62s-.54,.08-.62,.35l-.37,1.28c-.07,.25,.09,.56,.35,.62s.54-.08,.62-.35h0Z"/>
    <path class="cls-3" d="M45.72,36.61v-.02s0,.09-.02,.13c.01-.09,.04-.17,.07-.25l-.05,.12c.07-.17,.17-.32,.24-.48,.05-.11,.1-.22,.12-.34,.03-.18,.03-.31,0-.49-.02-.12-.13-.24-.23-.3-.11-.06-.27-.09-.39-.05s-.24,.11-.3,.23l-.05,.12c-.02,.09-.02,.18,0,.27v.02s0-.09-.02-.13c0,.06,0,.11,0,.17l.02-.13c-.01,.08-.04,.16-.07,.24l.05-.12c-.06,.14-.13,.26-.2,.4-.05,.1-.09,.2-.13,.3-.04,.11-.05,.22-.07,.33s.07,.27,.15,.35c.09,.09,.23,.15,.35,.15s.26-.05,.35-.15l.08-.1c.05-.08,.07-.16,.07-.25h0Z"/>
    <path class="cls-3" d="M18.96,17.22c.16-.18,.31-.37,.44-.57,.45-.68,.13-1.66-.54-2.05-.76-.44-1.57-.12-2.05,.54-.79,1.08-1.61,2.18-2.24,3.36-.6,1.11-.7,2.34-1.18,3.48l2.74,1.16c.19-.99,1-1.88,1.51-2.75,.67-1.13,1.23-2.3,1.71-3.52,.39-.98,.8-1.96,1.4-2.84,.66-.96,1.69-1.53,2.56-2.28,.62-.53,.54-1.58,0-2.12-.61-.61-1.5-.53-2.12,0-.49,.41-1.02,.76-1.52,1.17-.52,.43-.95,.93-1.34,1.47-.76,1.04-1.26,2.24-1.73,3.42s-.98,2.22-1.61,3.27-1.52,2.12-1.76,3.38c-.14,.73,.14,1.48,.87,1.77,.62,.25,1.58,.08,1.87-.61,.48-1.12,.61-2.42,1.18-3.48,.64-1.18,1.45-2.28,2.24-3.36l-2.59-1.51,.03-.03c-.53,.61-.6,1.52,0,2.12,.54,.54,1.58,.61,2.12,0h0Z"/>
    <path class="cls-3" d="M14.2,30.46c1.21-2.91,.88-6.19,2.05-9.15,1.08-2.71,2.91-5.02,5.2-6.82,1.32-1.04-.44-3.36-1.82-2.36-2.92,2.12-5.53,4.57-7.76,7.41l2.36,1.82c3.34-5.17,8.8-8.56,14.86-9.46,1.66-.25,1.28-3.1-.4-2.95-2.29,.21-4.51,.67-6.67,1.45-1.85,.67-1.09,3.16,.8,2.89,3.18-.45,6.37-.88,9.57-1.13,1.54-.12,3.09-.19,4.63-.2,.81,0,1.63,0,2.44,.04,.33,.01,.65,.03,.97,.05,.24,.02,.49,.03,.73,.05,.27,.07,.32,.05,.15-.06l1.3-2.26c-4.11-.06-8.2-.35-12.28-.88-1.7-.22-2,2.53-.4,2.95,2,.52,4,1.05,6,1.57,1.85,.49,3.88,.82,5.62,1.63l1.16-2.74c-2.22-.39-4.34-1.05-6.36-2.05l-1.51,2.59c3.18,1.57,5.88,3.75,8.08,6.52,1.03,1.29,2.75-.16,2.51-1.46-.19-1.01-.57-1.95-1.13-2.82-1.05-1.65-3.4-.22-2.59,1.51,1.15,2.46,2.11,4.99,2.91,7.58,.57,1.84,3.38,1.08,2.89-.8l-1.13-4.32c-.49-1.88-3.28-1.08-2.89,.8,.65,3.17,.96,6.37,.95,9.61,0,1.94,2.89,1.92,3,0,.28-4.79-1.65-9.35-4.81-12.9-2.92-3.28-7.18-6.45-11.78-6.12-8.8,.64-16.1,7-17.45,15.79-.91,5.87,.48,11.93,1.31,17.73,.27,1.9,3.17,1.09,2.89-.8-1.14-7.88-3.43-16.93,1.91-23.81,2.22-2.87,5.24-4.61,8.73-5.45,2.14-.51,4.26-.77,6.32,.17,1.71,.78,3.27,1.98,4.63,3.26,3.37,3.17,5.52,7.43,5.24,12.12h3c0-3.5-.35-6.98-1.06-10.41l-2.89,.8,1.13,4.32,2.89-.8c-.88-2.84-1.96-5.6-3.22-8.3l-2.59,1.51c.43,.67,.68,1.32,.82,2.1l2.51-1.46c-2.35-2.94-5.32-5.33-8.69-6.99-1.72-.85-3.25,1.73-1.51,2.59,2.25,1.12,4.6,1.93,7.08,2.35,1.54,.27,2.82-1.97,1.16-2.74-1.86-.86-3.88-1.29-5.86-1.81-2.16-.57-4.32-1.13-6.48-1.7l-.4,2.95c4.07,.52,8.17,.82,12.28,.88,1.2,.02,1.78-1.27,1.3-2.26-.73-1.47-2.54-1.43-3.96-1.5-2.03-.11-4.07-.08-6.1,.03-3.96,.23-7.9,.78-11.83,1.33l.8,2.89c1.9-.69,3.86-1.16,5.87-1.35l-.4-2.95c-6.82,1.01-12.92,5.06-16.65,10.84-.91,1.4,1.29,3.17,2.36,1.82,2.07-2.62,4.45-4.98,7.15-6.94l-1.82-2.36c-2.48,1.96-4.44,4.52-5.68,7.43-.61,1.44-1.05,2.92-1.29,4.46-.28,1.83-.34,3.67-1.06,5.4s2.16,2.56,2.89,.8h0Z"/>
    <path class="cls-3" d="M18.84,45.61c.07-1.4-.81-2.52-1.63-3.55-.12-.15,.18,.25,.07,.09-.03-.05-.07-.09-.11-.14-.09-.12-.17-.24-.25-.37-.16-.25-.3-.52-.43-.79-.1-.19,0,.05,.03,.08-.05-.04-.07-.18-.09-.23-.05-.12-.09-.25-.13-.38-.09-.3-.16-.61-.21-.92-.06-.35-.4-.73-.69-.9-.32-.19-.8-.27-1.16-.15s-.71,.34-.9,.69c-.2,.38-.22,.74-.15,1.16,.19,1.21,.7,2.41,1.43,3.39,.21,.28,.43,.56,.65,.83,.12,.16-.03-.04-.07-.09,.03,.05,.07,.1,.11,.14,.08,.11,.16,.22,.23,.33,.06,.1,.12,.2,.18,.3,.03,.05,.05,.15,.1,.19-.03-.03-.12-.32-.05-.12,.03,.1,.05,.22,.09,.32-.11-.28-.03-.28-.02-.11,0,.07,0,.14,0,.21-.04,.78,.72,1.53,1.5,1.5,.85-.04,1.46-.66,1.5-1.5h0Z"/>
    <path class="cls-3" d="M49.76,38.31c-.27-2.84-.55-5.67-.82-8.51-.08-.78-.64-1.54-1.5-1.5-.75,.03-1.58,.66-1.5,1.5,.27,2.84,.55,5.67,.82,8.51,.08,.78,.64,1.54,1.5,1.5,.75-.03,1.58-.66,1.5-1.5h0Z"/>
    <path class="cls-3" d="M49.06,37.21c-.09-3.28-.07-6.57,.04-9.85,.03-.78-.71-1.54-1.5-1.5-.84,.04-1.47,.66-1.5,1.5-.12,3.28-.13,6.57-.04,9.85,.02,.78,.67,1.54,1.5,1.5s1.52-.66,1.5-1.5h0Z"/>
    <path class="cls-3" d="M48.96,33.95c-.36-.87-.66-1.76-.89-2.67-.11-.45-.21-.9-.29-1.35-.02-.1-.03-.2-.05-.3s-.05-.57-.02-.11c-.02-.24-.05-.48-.08-.71-.04-.41-.14-.76-.44-1.06-.26-.26-.69-.46-1.06-.44-.75,.03-1.58,.66-1.5,1.5,.18,2.05,.63,4.04,1.43,5.94,.16,.38,.32,.68,.69,.9,.32,.19,.8,.27,1.16,.15s.71-.34,.9-.69,.3-.79,.15-1.16h0Z"/>
    <path class="cls-3" d="M47.62,38c.62-3.5,1.06-7.03,1.29-10.58,.05-.81-.73-1.5-1.5-1.5-.86,0-1.45,.69-1.5,1.5-.21,3.3-.6,6.54-1.18,9.79-.14,.8,.22,1.62,1.05,1.85,.73,.2,1.7-.25,1.85-1.05h0Z"/>
    <path class="cls-3" d="M47.29,37.85c.6-4.25,2.39-8.28,1.55-12.64-.15-.8-1.11-1.25-1.85-1.05-.83,.23-1.2,1.05-1.05,1.85,.71,3.71-1.04,7.42-1.55,11.04-.11,.8,.2,1.61,1.05,1.85,.7,.19,1.73-.24,1.85-1.05h0Z"/>
    <path class="cls-3" d="M47.51,37.33c.37-1.5,.63-3.05,.7-4.59,.02-.44-.02-.86-.09-1.3-.03-.2-.07-.39-.1-.58-.01-.06-.07-.48-.04-.19-.04-.3-.02-.61-.05-.91-.04-.55-.15-.98-.38-1.48-.25-.54-.96-.79-1.49-.72-.62,.08-1.04,.5-1.25,1.07-.23,.65-.21,1.36-.19,2.04s.02,1.4,.02,2.1c0,1.37-.05,2.75-.12,4.12-.04,.78,.72,1.53,1.5,1.5,.85-.04,1.46-.66,1.5-1.5,.07-1.32,.11-2.64,.12-3.96,0-.65,0-1.3,0-1.94,0-.3-.02-.59-.02-.89,0-.14,0-.27,.01-.41-.02,.33,.06-.17,.09-.25l-2.74,.36c-.18-.38,0,.28-.01,.04-.02-.21,0,.26,0,.31,.01,.36,.05,.72,.1,1.07,.02,.15,.05,.29,.08,.44,.02,.1,.04,.19,.05,.29,.03,.16,.03,.2,.02,.09-.01-.1,0-.07,0,.09,0,.1,.01,.2,.01,.3,0,.15,0,.3-.02,.45-.02,.3-.05,.61-.08,.91-.01,.1-.02,.2-.03,.3-.02,.17-.03,.2-.01,.1,.01-.1,0-.07-.01,.1-.01,.1-.03,.2-.05,.3-.1,.65-.24,1.29-.4,1.93-.19,.76,.24,1.66,1.05,1.85s1.64-.23,1.85-1.05h0Z"/>
    <path class="cls-3" d="M47.13,35.55c.24-2.72,.31-5.45,.23-8.17-.02-.78-.67-1.54-1.5-1.5s-1.53,.66-1.5,1.5c.09,2.73,.01,5.46-.23,8.17-.07,.78,.74,1.53,1.5,1.5,.87-.04,1.43-.66,1.5-1.5h0Z"/>
    <path class="cls-3" d="M45.19,42.61c.53-1.75,.77-3.56,1.26-5.32,.46-1.66,1.15-3.14,2.11-4.59,.45-.68,.13-1.66-.54-2.05-.73-.43-1.6-.14-2.05,.54-1.04,1.57-1.84,3.31-2.36,5.12s-.76,3.7-1.31,5.5c-.24,.77,.28,1.63,1.05,1.85s1.61-.27,1.85-1.05h0Z"/>
    <path class="cls-3" d="M47.18,35.31c-.12-.49,.16-1.12,.11-1.65-.06-.74-.52-1.38-1.3-1.47-.7-.08-1.49,.33-1.65,1.07-.2,.96-.3,1.94-.28,2.92h3c-.1-2.38,.1-4.77,.02-7.15-.04-1.14-.2-2.25-.32-3.37-.13-1.21,.01-2.43-.53-3.55-.35-.73-1.39-.92-2.05-.54-.74,.44-.89,1.32-.54,2.05,.13,.27,.04,.86,.05,1.15,.03,.54,.09,1.08,.16,1.61,.14,1.05,.23,2.1,.25,3.17,.04,2.21-.13,4.42-.03,6.63,.08,1.92,3.06,1.94,3,0-.02-.72,.02-1.42,.17-2.12l-2.95-.4c.07,.84-.21,1.6,0,2.45,.45,1.88,3.35,1.08,2.89-.8h0Z"/>
    <path class="cls-3" d="M47.02,25.16c-.57-1.4-.95-2.87-1.16-4.37-.05-.34-.41-.73-.69-.9-.32-.19-.8-.27-1.16-.15s-.71,.34-.9,.69l-.15,.36c-.07,.27-.07,.53,0,.8,.2,1.5,.59,2.97,1.16,4.37,.15,.38,.33,.68,.69,.9,.32,.19,.8,.27,1.16,.15s.71-.34,.9-.69,.3-.79,.15-1.16h0Z"/>
    <path class="cls-3" d="M46.87,35.91c-.01-.11,0-.22,0-.33l-.05,.4c.06-.47,.15-.94,.15-1.42,0-.21-.04-.4-.13-.58-.06-.19-.16-.35-.31-.48-.14-.15-.3-.25-.48-.31-.18-.09-.37-.14-.58-.13l-.4,.05c-.25,.07-.47,.2-.66,.39l-.23,.3c-.14,.23-.2,.49-.2,.76,0,.22-.01,.44-.04,.66l.05-.4c-.02,.12-.04,.24-.06,.36-.03,.23-.09,.49-.06,.73,0,.21,.04,.4,.13,.58,.06,.19,.16,.35,.31,.48,.14,.15,.3,.25,.48,.31,.18,.09,.37,.14,.58,.13l.4-.05c.25-.07,.47-.2,.66-.39l.23-.3c.14-.23,.2-.49,.2-.76h0Z"/>
    <path class="cls-3" d="M46.97,35.92s0-.09,.01-.13l-.05,.4s0-.05,.01-.08c.06-.2,.07-.4,.03-.6,0-.2-.07-.39-.18-.56-.09-.17-.22-.32-.39-.42-.14-.13-.31-.22-.51-.27l-.4-.05c-.27,0-.52,.07-.76,.2l-.3,.23c-.19,.19-.31,.41-.39,.66,0,.02,0,.03,0,.05-.02,.15-.04,.3-.06,.45,0,.04,0,.07,0,.11,0,.21,.04,.4,.13,.58,.06,.19,.16,.35,.31,.48,.14,.15,.3,.25,.48,.31,.18,.09,.37,.14,.58,.13l.4-.05c.25-.07,.47-.2,.66-.39l.23-.3c.14-.23,.2-.49,.2-.76h0Z"/>
    <path class="cls-3" d="M19.46,45.17c-1.18-2.49-2.77-4.79-4.66-6.79-.54-.57-1.58-.59-2.12,0s-.58,1.51,0,2.12c.44,.46,.86,.94,1.26,1.44,.06,.07,.12,.15,.18,.22,.02,.03,.18,.23,.06,.07s.03,.04,.05,.07c.05,.06,.09,.12,.14,.18,.2,.27,.4,.55,.59,.83,.73,1.07,1.37,2.2,1.92,3.38,.34,.71,1.41,.95,2.05,.54,.73-.47,.9-1.29,.54-2.05h0Z"/>
    <path class="cls-3" d="M18.15,43.15l-.03-.08,.15,.36c-.61-1.45-1.14-2.93-1.58-4.43-.22-.75-1.07-1.3-1.85-1.05s-1.28,1.04-1.05,1.85c.49,1.66,1.09,3.28,1.76,4.87,.14,.32,.58,.6,.9,.69,.36,.1,.84,.05,1.16-.15s.6-.51,.69-.9l.05-.4c0-.27-.07-.52-.2-.76h0Z"/>
    <path class="cls-3" d="M18.41,43.58c-.42-.48-.83-.98-1.22-1.49l.23,.3c-.51-.67-1-1.35-1.46-2.06-.21-.33-.51-.58-.9-.69-.36-.1-.84-.05-1.16,.15s-.6,.51-.69,.9-.07,.82,.15,1.16c.88,1.35,1.86,2.63,2.92,3.85,.24,.28,.7,.44,1.06,.44s.81-.16,1.06-.44,.46-.66,.44-1.06-.17-.75-.44-1.06h0Z"/>
    <path class="cls-3" d="M18.73,44.74c-.51-1.77-1.2-3.48-2.05-5.11-.36-.7-1.39-.96-2.05-.54-.71,.46-.93,1.31-.54,2.05,.33,.63,.63,1.27,.91,1.92l-.15-.36c.39,.93,.72,1.87,1,2.84,.22,.75,1.07,1.3,1.85,1.05s1.28-1.04,1.05-1.85h0Z"/>
    <path class="cls-3" d="M18.74,44.44c-.23-.43-.46-.87-.67-1.31-.1-.21-.19-.41-.29-.62-.04-.09-.08-.18-.12-.27-.03-.06-.05-.12-.08-.18,.09,.21,.1,.24,.04,.09-.36-.88-.68-1.77-.95-2.68-.22-.75-1.06-1.3-1.85-1.05s-1.29,1.04-1.05,1.85c.59,1.97,1.39,3.88,2.36,5.69,.37,.69,1.39,.97,2.05,.54,.7-.45,.94-1.31,.54-2.05h0Z"/>
    <path class="cls-3" d="M18.71,44.29c-.75-1.76-1.57-3.49-2.46-5.18-.37-.7-1.39-.96-2.05-.54-.71,.46-.93,1.31-.54,2.05,.89,1.69,1.71,3.42,2.46,5.18,.14,.32,.58,.6,.9,.69,.36,.1,.84,.05,1.16-.15s.6-.51,.69-.9c.1-.42,.02-.76-.15-1.16h0Z"/>
    <path class="cls-3" d="M43.16,47.56c1.02-1.72,1.97-3.49,2.84-5.29,.18-.37,.26-.75,.15-1.16-.1-.35-.36-.73-.69-.9-.67-.35-1.69-.22-2.05,.54-.87,1.8-1.82,3.57-2.84,5.29-.4,.68-.18,1.68,.54,2.05s1.63,.18,2.05-.54h0Z"/>
    <path class="cls-3" d="M42.85,47.31c1.11-1.68,2.21-3.42,2.68-5.39,.18-.76-.24-1.66-1.05-1.85s-1.65,.23-1.85,1.05c-.12,.52-.29,1.01-.5,1.5l.15-.36c-.54,1.25-1.28,2.4-2.03,3.53-.43,.66-.15,1.69,.54,2.05,.75,.4,1.59,.16,2.05-.54h0Z"/>
    <path class="cls-3" d="M42.55,47.36c1.4-1.84,2.42-3.98,3.04-6.21,.21-.76-.26-1.67-1.05-1.85s-1.62,.24-1.85,1.05c-.15,.53-.31,1.05-.51,1.56-.05,.13-.1,.25-.15,.38-.06,.15-.05,.13,.03-.07-.03,.06-.05,.13-.08,.19-.1,.23-.21,.47-.33,.7-.48,.96-1.05,1.88-1.7,2.74-.22,.29-.24,.82-.15,1.16,.1,.35,.36,.73,.69,.9,.35,.18,.77,.28,1.16,.15s.65-.36,.9-.69h0Z"/>
    <path class="cls-1" d="M21.03,28.73c.64,0,.64-1,0-1s-.64,1,0,1h0Z"/>
    <path class="cls-1" d="M36.48,28.79c.64,0,.64-1,0-1s-.64,1,0,1h0Z"/>
    <path class="cls-1" d="M22.25,30.55c1.29,0,1.29-2,0-2s-1.29,2,0,2h0Z"/>
    <path class="cls-1" d="M37.69,30.59c1.29,0,1.29-2,0-2s-1.29,2,0,2h0Z"/>
    <path class="cls-3" d="M22.82,28.07c1.29,0,1.29-2,0-2s-1.29,2,0,2h0Z"/>
    <path class="cls-3" d="M22.87,28.06c1.29,0,1.29-2,0-2s-1.29,2,0,2h0Z"/>
    <path class="cls-3" d="M22.81,28c1.29,0,1.29-2,0-2s-1.29,2,0,2h0Z"/>
    <path class="cls-3" d="M22.9,28.05c1.29,0,1.29-2,0-2s-1.29,2,0,2h0Z"/>
    <path class="cls-3" d="M23.03,28.07c1.29,0,1.29-2,0-2s-1.29,2,0,2h0Z"/>
    <path class="cls-3" d="M22.58,27.99c1.29,0,1.29-2,0-2s-1.29,2,0,2h0Z"/>
    <path class="cls-3" d="M22.58,27.98c1.29,0,1.29-2,0-2s-1.29,2,0,2h0Z"/>
    <path class="cls-3" d="M22.58,27.96c1.29,0,1.29-2,0-2s-1.29,2,0,2h0Z"/>
    <path class="cls-8" d="M28.36,35.93l-.64,.64c-.09,.09-.1,.26,0,.35s.25,.1,.35,0l.64-.64c.09-.09,.1-.26,0-.35s-.25-.1-.35,0h0Z"/>
    <path class="cls-8" d="M31.2,35.96l.52,.52s.11,.07,.18,.07,.13-.03,.18-.07,.08-.11,.07-.18-.03-.13-.07-.18l-.52-.52s-.11-.07-.18-.07-.13,.03-.18,.07-.08,.11-.07,.18,.03,.13,.07,.18h0Z"/>
    <path class="cls-8" d="M25.7,38.43c1.93,0,1.93-3,0-3s-1.93,3,0,3h0Z"/>
    <path class="cls-3" d="M21.81,52.74c1.93,0,1.93-3,0-3s-1.93,3,0,3h0Z"/>
    <path class="cls-3" d="M38.07,52.78c1.93,0,1.93-3,0-3s-1.93,3,0,3h0Z"/>
    <path class="cls-3" d="M19.18,44.17c-1.35-2.41-3.22-4.45-5.43-6.09-.29-.22-.82-.24-1.16-.15s-.73,.36-.9,.69c-.18,.35-.28,.77-.15,1.16s.36,.65,.69,.9c.06,.05,.12,.09,.19,.14,.15,.11-.26-.2-.05-.03,.12,.1,.24,.19,.36,.29,.23,.19,.45,.38,.66,.58,.44,.41,.87,.85,1.27,1.3,.2,.22,.38,.45,.57,.68,.08,.11,.1,.24-.03-.05,.03,.07,.1,.13,.14,.19,.08,.11,.17,.23,.25,.34,.36,.51,.69,1.03,.99,1.58,.39,.68,1.38,.97,2.05,.54s.95-1.32,.54-2.05h0Z"/>
    <path class="cls-3" d="M19.82,45c-.24-.66-.56-1.24-.99-1.8-.24-.31-.49-.62-.73-.92-.06-.07-.11-.14-.17-.21-.13-.16-.02,.02,.03,.05-.09-.04-.24-.33-.3-.4-.36-.52-.69-1.06-.98-1.62-.04-.08-.42-.84-.4-.85,0,0,.12,.29,.02,.05-.03-.07-.05-.14-.08-.21-.07-.17-.13-.35-.19-.52-.25-.74-1.04-1.31-1.85-1.05-.73,.24-1.32,1.05-1.05,1.85,.44,1.3,1.04,2.55,1.81,3.68,.4,.59,.85,1.13,1.29,1.68,.04,.05,.09,.11,.13,.17,.13,.16-.16-.22-.04-.05,.09,.13,.19,.25,.27,.39,.08,.12,.15,.24,.22,.36,.04,.08,.08,.16,.12,.23,.09,.18-.13-.34-.01-.02,.26,.74,1.03,1.31,1.85,1.05,.72-.23,1.33-1.05,1.05-1.85h0Z"/>
    <path class="cls-3" d="M18.72,42.91c-.12-.22-.24-.44-.34-.67-.02-.04-.19-.43-.1-.21s-.07-.18-.09-.22c-.19-.47-.37-.95-.55-1.42-.38-1-.77-1.99-1.15-2.99-.14-.38-.33-.69-.69-.9-.32-.19-.8-.27-1.16-.15-.71,.23-1.35,1.06-1.05,1.85,.4,1.03,.79,2.06,1.19,3.09s.78,2.14,1.33,3.12c.39,.68,1.38,.97,2.05,.54s.95-1.32,.54-2.05h0Z"/>
    <path class="cls-3" d="M43.01,46.62c1.11-1.88,1.99-3.91,2.57-6.02,.25-.91,.42-1.9,.82-2.74s.7-1.21,1.51-1.55c.75-.32,.91-1.42,.54-2.05-.45-.77-1.3-.85-2.05-.54-2.15,.91-2.97,3.27-3.5,5.34s-1.34,4.14-2.47,6.05c-.41,.7-.16,1.64,.54,2.05s1.64,.16,2.05-.54h0Z"/>
    <path class="cls-8" d="M27.03,19.79c-.41,.23-.83,.44-1.27,.62l.36-.15s-.08,.03-.12,.05c-.2,.05-.37,.14-.51,.27-.16,.11-.29,.25-.39,.42-.11,.17-.17,.36-.18,.56-.04,.2-.04,.4,.03,.6l.15,.36c.13,.23,.31,.4,.54,.54l.36,.15c.27,.07,.53,.07,.8,0,.6-.25,1.18-.51,1.75-.82,.17-.09,.32-.22,.42-.39,.13-.14,.22-.31,.27-.51,.06-.2,.07-.4,.03-.6,0-.2-.07-.39-.18-.56l-.23-.3c-.19-.19-.41-.31-.66-.39l-.4-.05c-.27,0-.52,.07-.76,.2h0Z"/>
    <path class="cls-8" d="M31.77,18.01c-1.51-.08-3.03-.19-4.53-.34-.36-.03-.81,.19-1.06,.44-.26,.26-.46,.69-.44,1.06s.14,.79,.44,1.06,.64,.4,1.06,.44c1.51,.14,3.02,.25,4.53,.34,.78,.04,1.53-.72,1.5-1.5-.04-.85-.66-1.45-1.5-1.5h0Z"/>
    <path class="cls-3" d="M39.27,13.81c-2.95-1.31-6.47-1.68-9.68-1.77-1.56-.05-3.16-.03-4.7,.27-1.65,.32-2.76,1.27-4.13,2.15-1.62,1.04-.12,3.64,1.51,2.59,1.15-.74,2.03-1.58,3.41-1.84,1.27-.24,2.62-.2,3.9-.16,1.38,.04,2.77,.16,4.14,.39s2.79,.43,4.03,.98c.74,.33,1.61,.22,2.05-.54,.37-.64,.21-1.72-.54-2.05h0Z"/>
    <path class="cls-3" d="M18.09,20.69c6.61-4.61,15.61-3.91,23.26-3.68,1.93,.06,1.93-2.94,0-3-8.18-.25-17.71-.83-24.77,4.09-1.57,1.1-.07,3.7,1.51,2.59h0Z"/>
    <path class="cls-3" d="M42.44,18.29c-3.65-2.94-7.83-3.81-12.44-3.8-2.22,0-4.48,.05-6.67,.44s-4.49,1.32-6.68,2.08c-1.5,.52-1.39,3.1,.4,2.95,4.86-.42,9.72-.8,14.61-.61s9.8,.79,14.68,1.4c1.91,.24,1.89-2.76,0-3-4.88-.61-9.76-1.21-14.68-1.4s-9.75,.19-14.61,.61l.4,2.95c1.92-.66,3.83-1.43,5.81-1.89s3.91-.47,5.87-.5c4.02-.07,7.95,.31,11.19,2.91,1.49,1.2,3.63-.91,2.12-2.12h0Z"/>
    <path class="cls-3" d="M16.75,21.05c9.98-.08,19.97,.01,29.95,.28,1.93,.05,1.93-2.95,0-3-9.98-.26-19.96-.35-29.95-.28-1.93,.02-1.93,3.02,0,3h0Z"/>
    <path class="cls-3" d="M41.4,48.82c1.65-2.76,3.14-5.61,4.48-8.53,.33-.71,.23-1.65-.54-2.05-.66-.35-1.7-.22-2.05,.54-1.34,2.92-2.83,5.77-4.48,8.53-.4,.67-.17,1.68,.54,2.05s1.62,.18,2.05-.54h0Z"/>
    <path class="cls-3" d="M20.98,46.42c-.77-1.28-1.77-2.4-2.79-3.49-.47-.51-.95-1.01-1.41-1.53-.23-.27-.46-.54-.69-.81-.12-.15,0-.03,.04,.05-.03-.07-.11-.15-.16-.21-.12-.16-.23-.32-.34-.48-.44-.65-1.34-1-2.05-.54-.65,.42-1.01,1.36-.54,2.05,.84,1.24,1.85,2.34,2.88,3.43,.47,.5,.95,1.01,1.39,1.54,.11,.14,.23,.27,.34,.41,.12,.15,0,.03-.04-.05,.03,.08,.14,.18,.19,.25,.21,.29,.4,.58,.58,.88,.4,.67,1.37,.98,2.05,.54s.97-1.33,.54-2.05h0Z"/>
    <path class="cls-3" d="M21.05,47.33c-.46-1.42-1.34-2.63-2.16-3.85s-1.65-2.44-2.48-3.65c-.44-.65-1.34-1-2.05-.54-.64,.41-1.01,1.36-.54,2.05,.8,1.18,1.61,2.36,2.41,3.54,.38,.57,.77,1.13,1.14,1.71,.17,.27,.34,.55,.5,.83,.08,.15,.16,.31,.23,.46-.14-.32,.06,.18,.07,.24,.24,.75,1.05,1.3,1.85,1.05,.75-.24,1.3-1.04,1.05-1.85h0Z"/>
    <path class="cls-3" d="M42.54,46.52c2.84-6.12,5.41-12.36,7.69-18.71,.65-1.82-2.24-2.6-2.89-.8-2.19,6.11-4.66,12.11-7.39,18-.34,.73-.21,1.62,.54,2.05,.65,.38,1.71,.2,2.05-.54h0Z"/>
    <path class="cls-3" d="M42.3,47.4c2.32-5.54,4.36-11.2,6.1-16.96,.56-1.85-2.34-2.64-2.89-.8-1.74,5.75-3.77,11.41-6.1,16.96-.31,.75,.34,1.65,1.05,1.85,.87,.24,1.53-.3,1.85-1.05h0Z"/>
    <path class="cls-3" d="M39.55,48.46c.08,.03,.16,.03,.24,.04,.12,.02,.15,.03,.24,.03l.4-.05h.02c.07-.03,.13-.06,.2-.09,.06-.02,.13-.05,.19-.08,.02,0,.03-.02,.05-.03,.11-.07,.23-.17,.33-.26,.12-.1,.2-.24,.29-.37,.11-.15,.2-.32,.3-.48,.25-.44,.44-.9,.63-1.36,.06-.2,.07-.4,.03-.6,0-.2-.07-.39-.18-.56-.09-.17-.22-.32-.39-.42-.14-.13-.31-.22-.51-.27l-.4-.05c-.27,0-.52,.07-.76,.2l-.3,.23c-.19,.19-.31,.41-.39,.66-.02,.06-.04,.11-.07,.17l.15-.36c-.1,.23-.21,.46-.33,.68s-.23,.44-.38,.64l.23-.3s-.06,.06-.09,.09l.3-.23s-.04,.02-.06,.03l.36-.15s-.03,0-.04,.01l.4-.05s-.03,0-.04,0l.4,.05s-.03,0-.04-.01c-.2-.06-.4-.07-.6-.03-.2,0-.39,.07-.56,.18-.17,.09-.32,.22-.42,.39-.13,.14-.22,.31-.27,.51l-.05,.4c0,.27,.07,.52,.2,.76l.23,.3c.19,.19,.41,.31,.66,.39h0Z"/>
    <path class="cls-3" d="M44.11,33.5c-.61,2.48-1.61,4.93-2.67,7.25s-2.3,4.27-3.86,6.12c-.52,.62-.61,1.51,0,2.12,.54,.54,1.6,.62,2.12,0,1.73-2.05,3.21-4.29,4.33-6.73s2.3-5.24,2.97-7.96c.46-1.87-2.43-2.67-2.89-.8h0Z"/>
    <path class="cls-3" d="M45.53,35.73c1.93,0,1.93-3,0-3s-1.93,3,0,3h0Z"/>
    <path class="cls-3" d="M44.02,33.69c.01,.37,.03,.74-.02,1.12l.05-.4c-.03,.2-.07,.39-.15,.57l.15-.36-.02,.04,2.8,.76s0-.06,0-.09l-.05,.4c.03-.15,.1-.29,.15-.43s.09-.29,.11-.44c.04-.27,.08-.53,.08-.8,0-.17,0-.35,.02-.52l-.05,.4c.03-.22,.07-.45,.09-.67s-.02-.45-.07-.67c-.05-.2-.14-.37-.27-.51-.11-.16-.25-.29-.42-.39l-.36-.15c-.2-.06-.4-.07-.6-.03-.14,0-.26,.03-.38,.1-.19,.06-.35,.16-.48,.31-.25,.28-.48,.67-.44,1.06,.03,.28,.01,.56-.02,.83l.05-.4c-.06,.42-.17,.82-.28,1.23l2.74-.36-.02-.03,.15,.36v-.03c0,.13,.03,.27,.04,.4,0-.02,0-.04,0-.07,0-.21-.04-.4-.13-.58-.06-.19-.16-.35-.31-.48-.26-.26-.69-.46-1.06-.44s-.79,.14-1.06,.44l-.23,.3c-.14,.23-.2,.49-.2,.76-.03,.31,.09,.62,.23,.89l.23,.3,.3,.23,.36,.15c.2,.06,.4,.07,.6,.03,.14,0,.26-.03,.38-.1,.13-.04,.24-.1,.33-.19,.26-.2,.45-.46,.54-.78,.1-.35,.19-.69,.25-1.05,.08-.46,.15-.94,.11-1.41l-2.95,.4s.01,.06,.02,.09l-.05-.4c0,.11,0,.21-.01,.31l.05-.4c-.04,.29-.09,.59-.1,.89,0,.18,0,.35-.02,.53l.05-.4c-.03,.18-.07,.35-.13,.52-.11,.3-.18,.54-.19,.88l.05,.4c.05,.2,.14,.37,.27,.51,.19,.25,.47,.47,.78,.54,.26,.06,.53,.06,.8,0,.2-.05,.37-.14,.51-.27,.16-.11,.29-.25,.39-.42,.11-.25,.23-.49,.28-.76s.09-.53,.11-.8c.02-.31,0-.62,0-.92-.01-.39-.16-.78-.44-1.06-.26-.26-.69-.46-1.06-.44s-.79,.14-1.06,.44-.45,.66-.44,1.06h0Z"/>
    <path class="cls-3" d="M46.76,35.39c.08-.51,.2-1.01,.36-1.5,.06-.2,.07-.4,.03-.6,0-.2-.07-.39-.18-.56-.09-.17-.22-.32-.39-.42-.14-.13-.31-.22-.51-.27l-.4-.05c-.27,0-.52,.07-.76,.2l-.3,.23c-.19,.19-.31,.41-.39,.66-.15,.49-.27,.99-.36,1.5-.06,.2-.07,.4-.03,.6,0,.2,.07,.39,.18,.56,.09,.17,.22,.32,.39,.42,.14,.13,.31,.22,.51,.27l.4,.05c.27,0,.52-.07,.76-.2l.3-.23c.19-.19,.31-.41,.39-.66h0Z"/>
    <path class="cls-3" d="M46.77,35.56c.08-.25,.14-.51,.19-.78,.07-.38,.12-.77,.14-1.16,0-.21-.04-.4-.13-.58-.06-.19-.16-.35-.31-.48-.14-.15-.3-.25-.48-.31-.18-.09-.37-.14-.58-.13l-.4,.05c-.25,.07-.47,.2-.66,.39l-.23,.3c-.14,.23-.2,.49-.2,.76,0,.18-.02,.37-.05,.55l.05-.4c-.05,.34-.12,.67-.22,.99-.06,.2-.07,.4-.03,.6,0,.2,.07,.39,.18,.56,.09,.17,.22,.32,.39,.42,.14,.13,.31,.22,.51,.27l.4,.05c.27,0,.52-.07,.76-.2l.3-.23c.19-.19,.31-.41,.39-.66h0Z"/>
    <path class="cls-3" d="M46.45,36.16c.52-1.25,.8-2.59,.88-3.94,.02-.37-.18-.81-.44-1.06s-.69-.46-1.06-.44-.79,.14-1.06,.44-.41,.65-.44,1.06c-.02,.26-.04,.52-.08,.78l.05-.4c-.13,.95-.38,1.88-.75,2.76-.14,.33-.02,.86,.15,1.16,.18,.31,.54,.61,.9,.69,.38,.09,.81,.07,1.16-.15l.3-.23c.19-.19,.31-.41,.39-.66h0Z"/>
    <path class="cls-3" d="M46.68,35.99c.02-.18,.04-.37,.06-.55l-.05,.4c.23-1.6,.73-3.15,.8-4.78,.04-.78-.72-1.54-1.5-1.5-.84,.04-1.46,.66-1.5,1.5-.01,.28-.04,.55-.07,.83l.05-.4c-.21,1.51-.66,2.98-.79,4.5-.03,.36,.19,.81,.44,1.06s.69,.46,1.06,.44c.87-.04,1.43-.66,1.5-1.5h0Z"/>
    <path class="cls-3" d="M46.88,35.05c.06-.14,.09-.29,.12-.45,.04-.27,.07-.54,.11-.81,.04-.33,.06-.65,.05-.97,0-.39-.16-.78-.44-1.06-.14-.15-.3-.25-.48-.31-.18-.09-.37-.14-.58-.13-.39,.02-.79,.14-1.06,.44s-.45,.66-.44,1.06-.03,.83-.09,1.25l.05-.4c-.03,.2-.06,.39-.14,.58-.06,.2-.07,.4-.03,.6,0,.2,.07,.39,.18,.56,.09,.17,.22,.32,.39,.42,.14,.13,.31,.22,.51,.27,.38,.09,.81,.07,1.16-.15l.3-.23c.19-.19,.31-.41,.39-.66h0Z"/>
    <path class="cls-3" d="M22.92,46.89c-3.9-2.96-5.35-8.06-5.83-12.72s-.04-10.08,3.25-13.91c1.25-1.46-.86-3.59-2.12-2.12-3.94,4.57-4.76,10.66-4.08,16.49s2.54,11.26,7.27,14.85c1.54,1.17,3.03-1.44,1.51-2.59h0Z"/>
    <path class="cls-3" d="M39.52,48.98c1.44-2.13,3.05-4.22,4.05-6.6s1.83-4.92,2.34-7.45c.98-4.77,1-10.02-1.86-14.16-1.09-1.58-3.69-.08-2.59,1.51,2.57,3.72,2.38,8.49,1.36,12.73-.54,2.22-1.23,4.57-2.19,6.64s-2.43,3.93-3.7,5.81c-1.08,1.6,1.51,3.11,2.59,1.51h0Z"/>
    <path class="cls-3" d="M43.94,20.12s-.05-.06-.07-.1l.23,.3c-.51-.66-.95-1.37-1.31-2.13-.09-.17-.22-.32-.39-.42-.14-.13-.31-.22-.51-.27-.2-.06-.4-.07-.6-.03-.2,0-.39,.07-.56,.18-.32,.21-.6,.51-.69,.9l-.05,.4c0,.27,.07,.52,.2,.76,.44,.91,.99,1.73,1.62,2.53,.14,.15,.3,.25,.48,.31,.18,.09,.37,.14,.58,.13,.37,0,.81-.16,1.06-.44s.46-.66,.44-1.06l-.05-.4c-.07-.25-.2-.47-.39-.66h0Z"/>
    <path class="cls-3" d="M40.13,19.62c.33,.78,.98,1.36,1.49,2.02l-.23-.3c.18,.23,.33,.47,.45,.74l-.15-.36s.04,.09,.05,.14l.15-1.16v.02c.07-.1,.15-.2,.22-.3h-.02c.22-.12,.44-.24,.66-.37h-.02c.13-.01,.27-.03,.4-.05h-.02c.13,.02,.27,.04,.4,.05-.02,0-.04,0-.05-.01l.36,.15c-.06-.03-.1-.07-.15-.1l.3,.23c-.32-.25-.59-.54-.84-.86l.23,.3c-.34-.44-.62-.91-.9-1.38-.19-.33-.53-.59-.9-.69s-.84-.05-1.16,.15-.6,.51-.69,.9-.06,.8,.15,1.16,.43,.72,.67,1.07c.3,.44,.63,.88,1.02,1.24,.22,.21,.46,.44,.73,.58,.38,.2,.83,.28,1.25,.16,.33-.09,.59-.29,.8-.55,.15-.19,.11-.13,.2-.35,.07-.12,.1-.24,.1-.38,.04-.13,.04-.27,0-.4-.05-.35-.2-.69-.38-1-.15-.26-.34-.5-.53-.74-.26-.33-.55-.64-.81-.97l.23,.3c-.18-.23-.33-.47-.45-.74-.09-.17-.22-.32-.39-.42-.14-.13-.31-.22-.51-.27-.36-.1-.84-.05-1.16,.15s-.6,.51-.69,.9l-.05,.4c0,.27,.07,.52,.2,.76h0Z"/>
    <path class="cls-3" d="M39.21,20.28c.34,.23,.67,.47,.99,.72l-.3-.23c.94,.73,1.81,1.53,2.62,2.4,.53,.58,1.59,.58,2.12,0,.57-.62,.57-1.5,0-2.12-1.17-1.27-2.49-2.38-3.92-3.35-.31-.21-.81-.25-1.16-.15s-.73,.36-.9,.69c-.18,.35-.28,.77-.15,1.16s.35,.67,.69,.9h0Z"/>
    <path class="cls-5" d="M32.55,41.49c-.67-1.55-3.72-1.67-4.9-.5-.35,.35-.59,.78-1.1,1.01,.49,.59,1.01,.7,1.91,.27,.99-.47,1.93-.53,2.9-.02,.23,.07,.47,.11,.71,.14,.09,0,.18,0,.27-.02,.4-.2,.27-.5,.22-.78,0-.04,0-.07,0-.11Z"/>
    <path class="cls-5" d="M31.66,43.19c-.55,1.23-3.03,1.33-3.99,.4-.28-.27-.48-.62-.9-.8,.4-.47,.82-.56,1.56-.22,.81,.38,1.57,.42,2.36,.01,.19-.06,.38-.09,.57-.11,.08,0,.15,0,.22,.02,.33,.16,.22,.4,.18,.62,0,.03,0,.06,0,.08Z"/>
    <path class="cls-5" d="M27.53,43.1c.47,1.58,3.01,1.84,4.06,.73,.31-.33,.53-.76,.98-.96-.38-.61-.81-.75-1.58-.36-.85,.43-1.63,.44-2.41-.12-.19-.08-.38-.13-.58-.17-.08-.01-.15-.01-.23,0-.35,.18-.25,.48-.23,.77,0,.04,0,.07,0,.11Z"/>
    <path class="cls-3" d="M42.27,20.26c-4.74-1.42-9.78-1.3-14.68-1.35s-10.03,.1-14.98,1.01c-1.9,.35-1.09,3.24,.8,2.89,4.68-.86,9.44-.95,14.18-.9s9.4-.11,13.89,1.24c1.85,.56,2.64-2.34,.8-2.89h0Z"/>
    <path class="cls-3" d="M45.99,21.69c-1.36-.66-2.73-1.31-4.09-1.97s-2.71-1.29-4.17-1.59c-.77-.16-1.66,.22-1.85,1.05-.17,.75,.23,1.68,1.05,1.85,.67,.14,1.31,.35,1.95,.59,.16,.07,.18,.07,.05,.02,.09,.04,.18,.08,.27,.12,.13,.06,.27,.12,.4,.18,.31,.14,.62,.29,.93,.44,1.32,.63,2.64,1.27,3.96,1.9,.71,.34,1.65,.22,2.05-.54,.35-.67,.22-1.69-.54-2.05h0Z"/>
    <path class="cls-3" d="M40.48,22.52l2.42,.74c.37,.11,.83,.04,1.16-.15s.61-.54,.69-.9c.09-.38,.07-.81-.15-1.16s-.51-.57-.9-.69l-2.42-.74c-.37-.11-.83-.04-1.16,.15s-.61,.54-.69,.9c-.09,.38-.07,.81,.15,1.16s.51,.57,.9,.69h0Z"/>
    <path class="cls-3" d="M41.7,23.23l1.1,.32c.2,.06,.4,.07,.6,.03,.2,0,.39-.07,.56-.18,.17-.09,.32-.22,.42-.39,.13-.14,.22-.31,.27-.51l.05-.4c0-.27-.07-.52-.2-.76l-.23-.3c-.19-.19-.41-.31-.66-.39l-1.1-.32c-.2-.06-.4-.07-.6-.03-.2,0-.39,.07-.56,.18-.17,.09-.32,.22-.42,.39-.13,.14-.22,.31-.27,.51l-.05,.4c0,.27,.07,.52,.2,.76l.23,.3c.19,.19,.41,.31,.66,.39h0Z"/>
    <path class="cls-3" d="M43.16,23.73c1.93,0,1.93-3,0-3s-1.93,3,0,3h0Z"/>
    <path class="cls-3" d="M43.11,23.73c1.93,0,1.93-3,0-3s-1.93,3,0,3h0Z"/>
    <path class="cls-3" d="M43.07,23.75c1.93,0,1.93-3,0-3s-1.93,3,0,3h0Z"/>
    <path class="cls-3" d="M43.12,23.78c1.93,0,1.93-3,0-3s-1.93,3,0,3h0Z"/>
    <path class="cls-3" d="M43,23.7c1.93,0,1.93-3,0-3s-1.93,3,0,3h0Z"/>
    <path class="cls-3" d="M42.81,23.51c1.93,0,1.93-3,0-3s-1.93,3,0,3h0Z"/>
    <path class="cls-3" d="M42.76,23.52c1.93,0,1.93-3,0-3s-1.93,3,0,3h0Z"/>
    <path class="cls-3" d="M42.71,23.52c1.93,0,1.93-3,0-3s-1.93,3,0,3h0Z"/>
  </g>
</svg>