<?xml version="1.0" encoding="UTF-8"?>
<svg id="Layer_2" data-name="Layer 2" xmlns="http://www.w3.org/2000/svg" viewBox="0 0 52.41 46.66">
  <g id="Layer_1-2" data-name="Layer 1">
    <path d="M26.27,8.06c1.49-1.41,2.95-2.91,4.52-4.26,5.27-4.51,10.69-4.99,15.54-1.46,5.47,3.98,7.64,10.83,4.89,16.75-1.25,2.7-3.01,5.32-5.07,7.45-6.58,6.8-13.41,13.35-20.26,20.11-.53-.6-1.26-1.52-2.08-2.35-4.93-4.98-9.85-9.96-14.83-14.88-3.29-3.25-6.52-6.51-8.17-10.99C-2.09,10.61,3.19,1.39,11.36,.12c3.13-.49,5.92,.49,8.35,2.32,2.26,1.7,4.31,3.67,6.56,5.62Z"/>
  </g>
</svg>